STARTFONT 2.1
FONT -NBTPUA-medium-r-normal--16-16-75-75-c-80-iso10646-1
SIZE 16 75 75
FONTBOUNDINGBOX 16 16 0 -2
STARTPROPERTIES 2
FONT_ASCENT 14
FONT_DESCENT 2
ENDPROPERTIES
CHARS 1

STARTCHAR uniE100
ENCODING 57600
SWIDTH 625 0
DWIDTH 10 0
BBX 8 15 1 -4
BITMAP
F0
40
40
40
40
40
40
40
40
41
FF
20
38
08
10
ENDCHAR
STARTCHAR uniE101
ENCODING 57601
SWIDTH 1000 0
DWIDTH 16 0
BBX 15 14 1 -1
BITMAP
07C0
1830
2008
4004
4C64
9292
8002
8002
9FF2
5554
4D64
27C8
1830
07C0
ENDCHAR
STARTCHAR uniE102
ENCODING 57602
SWIDTH 1000 0
DWIDTH 16 0
BBX 15 14 1 -1
BITMAP
07C0
1830
2008
4C64
5294
8002
A00A
C006
9FF2
5554
4D64
27C8
1830
07C0
ENDCHAR
STARTCHAR uniE103
ENCODING 57603
SWIDTH 1000 0
DWIDTH 16 0
BBX 15 14 1 -1
BITMAP
07C0
1830
2008
4004
4C64
8C62
8002
8002
9FF2
5014
4824
27C8
1830
07C0
ENDCHAR
STARTCHAR uniE104
ENCODING 57604
SWIDTH 1000 0
DWIDTH 16 0
BBX 15 14 1 -1
BITMAP
07C0
1830
2008
4004
4C64
9292
8002
8002
9FF2
5014
4824
27C8
1830
07C0
ENDCHAR
STARTCHAR uniE105
ENCODING 57605
SWIDTH 1000 0
DWIDTH 16 0
BBX 15 14 1 -1
BITMAP
07C0
1930
2488
4004
4C64
9292
8002
8002
9FF2
5014
4824
27C8
1830
07C0
ENDCHAR
STARTCHAR uniE106
ENCODING 57606
SWIDTH 1000 0
DWIDTH 16 0
BBX 15 14 1 -1
BITMAP
07C0
1830
2008
4824
4444
8822
8002
8002
9FF2
5014
4824
27C8
1830
07C0
ENDCHAR
STARTCHAR uniE107
ENCODING 57607
SWIDTH 1000 0
DWIDTH 16 0
BBX 15 15 1 -1
BITMAP
1FF0
2008
47C4
5834
3838
47C4
4004
8C62
8C62
8002
5014
4824
27C8
1830
07C0
ENDCHAR
STARTCHAR uniE108
ENCODING 57608
SWIDTH 1000 0
DWIDTH 16 0
BBX 14 15 1 -1
BITMAP
8004
C78C
D86C
E01C
C84C
4488
8CC4
8CC4
8004
9024
4848
4788
2010
1860
0780
ENDCHAR
STARTCHAR uniE109
ENCODING 57609
SWIDTH 1000 0
DWIDTH 16 0
BBX 15 14 1 -1
BITMAP
07C0
1830
2008
4024
4C44
8C22
8002
8002
9FF2
5014
4824
27C8
1830
07C0
ENDCHAR
STARTCHAR uniE10A
ENCODING 57610
SWIDTH 1000 0
DWIDTH 16 0
BBX 15 14 1 -1
BITMAP
07C0
1830
2008
4004
4C64
9292
8002
8002
9012
4824
47C4
2008
1830
07C0
ENDCHAR
STARTCHAR uniE10B
ENCODING 57611
SWIDTH 1000 0
DWIDTH 16 0
BBX 15 14 1 -1
BITMAP
07C0
1830
2008
4004
4C64
9292
8002
8002
9012
4824
47C4
2248
19B0
07C0
ENDCHAR
STARTCHAR uniE10C
ENCODING 57612
SWIDTH 1000 0
DWIDTH 16 0
BBX 15 14 1 -1
BITMAP
07C0
1830
2008
4004
5294
8C62
8002
8002
9012
4824
47C4
2008
1830
07C0
ENDCHAR
STARTCHAR uniE10D
ENCODING 57613
SWIDTH 1000 0
DWIDTH 16 0
BBX 15 14 1 -1
BITMAP
07C0
1830
2008
4004
76DC
BEFA
9C72
8822
8002
5014
4824
27C8
1830
07C0
ENDCHAR
STARTCHAR uniE10E
ENCODING 57614
SWIDTH 1000 0
DWIDTH 16 0
BBX 15 14 1 -1
BITMAP
07C0
1830
2008
4004
7FFC
BEFA
9C72
8002
8002
5014
4824
27C8
1830
07C0
ENDCHAR
STARTCHAR uniE10F
ENCODING 57615
SWIDTH 1000 0
DWIDTH 16 0
BBX 14 14 1 -1
BITMAP
0780
1860
2010
4008
4008
9CE4
8004
8004
8024
4048
4188
2010
1860
0780
ENDCHAR
STARTCHAR uniE110
ENCODING 57616
SWIDTH 1000 0
DWIDTH 16 0
BBX 15 14 1 -1
BITMAP
07C0
1830
2008
4004
4C64
8C62
8002
8002
8002
4FE4
4004
2008
1830
07C0
ENDCHAR
STARTCHAR uniE111
ENCODING 57617
SWIDTH 1000 0
DWIDTH 16 0
BBX 15 14 1 -1
BITMAP
07C0
1830
2008
4004
4004
8EE2
8002
8002
8002
4FE4
4004
2008
1830
07C0
ENDCHAR
STARTCHAR uniE112
ENCODING 57618
SWIDTH 1000 0
DWIDTH 16 0
BBX 15 14 1 -1
BITMAP
07C0
1830
2008
4004
4EE4
8662
8002
8002
8002
4FE4
4004
2008
1830
07C0
ENDCHAR
STARTCHAR uniE113
ENCODING 57619
SWIDTH 1000 0
DWIDTH 16 0
BBX 15 14 1 -1
BITMAP
07C0
1830
2448
4824
4C64
8C62
800A
8006
8002
4FE4
4004
2008
1830
07C0
ENDCHAR
STARTCHAR uniE114
ENCODING 57620
SWIDTH 1000 0
DWIDTH 16 0
BBX 15 14 1 -1
BITMAP
07C0
1830
2008
4004
5294
8C62
8002
8002
8002
47C4
4004
2008
1830
07C0
ENDCHAR
STARTCHAR uniE115
ENCODING 57621
SWIDTH 1000 0
DWIDTH 16 0
BBX 15 14 1 -1
BITMAP
07C0
1830
2008
4004
4C64
8C62
8002
8002
8002
4064
4184
2608
1830
07C0
ENDCHAR
STARTCHAR uniE116
ENCODING 57622
SWIDTH 1000 0
DWIDTH 16 0
BBX 15 14 1 -1
BITMAP
07C0
1830
2008
4004
4444
8822
8002
8002
8002
46C4
4924
2008
1830
07C0
ENDCHAR
STARTCHAR uniE117
ENCODING 57623
SWIDTH 1000 0
DWIDTH 16 0
BBX 15 14 1 -1
BITMAP
07C0
1830
2008
4004
4C64
8C62
8002
80C2
8022
40C4
4024
20C8
1830
07C0
ENDCHAR
STARTCHAR uniE118
ENCODING 57624
SWIDTH 1000 0
DWIDTH 16 0
BBX 15 14 1 -1
BITMAP
07C0
1830
2008
4024
4C44
8C22
8002
836E
80FE
433C
4094
2308
1830
07C0
ENDCHAR
STARTCHAR uniE119
ENCODING 57625
SWIDTH 1000 0
DWIDTH 16 0
BBX 15 14 1 -1
BITMAP
07C0
1830
2008
4004
4C64
9292
8002
8182
8042
4184
4044
2188
1830
07C0
ENDCHAR
STARTCHAR uniE11A
ENCODING 57626
SWIDTH 1000 0
DWIDTH 16 0
BBX 15 14 1 -1
BITMAP
07C0
1830
2008
4004
5294
8C62
8002
8182
8042
4184
4044
2188
1830
07C0
ENDCHAR
STARTCHAR uniE11B
ENCODING 57627
SWIDTH 1000 0
DWIDTH 16 0
BBX 15 14 1 -1
BITMAP
07C0
1830
2008
4004
4C64
8C62
8002
8002
8002
4FE4
4244
2188
1830
07C0
ENDCHAR
STARTCHAR uniE11C
ENCODING 57628
SWIDTH 1000 0
DWIDTH 16 0
BBX 15 14 1 -1
BITMAP
07C0
1830
2008
4024
4C44
8C22
8002
8002
8002
4FE4
4244
2188
1830
07C0
ENDCHAR
STARTCHAR uniE11D
ENCODING 57629
SWIDTH 1000 0
DWIDTH 16 0
BBX 15 14 1 -1
BITMAP
07C0
1830
2008
4824
4444
8822
8002
8002
8002
4FE4
4244
2188
1830
07C0
ENDCHAR
STARTCHAR uniE11E
ENCODING 57630
SWIDTH 1000 0
DWIDTH 16 0
BBX 15 14 1 -1
BITMAP
07C0
1830
2448
4824
4C64
8C62
8002
8002
8002
47C4
4824
2008
1830
07C0
ENDCHAR
STARTCHAR uniE11F
ENCODING 57631
SWIDTH 1000 0
DWIDTH 16 0
BBX 15 14 1 -1
BITMAP
07C0
1830
2448
4824
4C64
8C62
8002
8002
87C2
4824
4384
2448
1830
07C0
ENDCHAR
STARTCHAR uniE120
ENCODING 57632
SWIDTH 1000 0
DWIDTH 16 0
BBX 15 14 1 -1
BITMAP
07C0
1830
2828
4444
4C64
8C62
8002
8002
8002
47C4
4824
2008
1830
07C0
ENDCHAR
STARTCHAR uniE121
ENCODING 57633
SWIDTH 1000 0
DWIDTH 16 0
BBX 15 14 1 -1
BITMAP
07C0
1830
2828
4444
4C64
8C62
8002
8002
87C2
4824
4384
2448
1830
07C0
ENDCHAR
STARTCHAR uniE122
ENCODING 57634
SWIDTH 1000 0
DWIDTH 16 0
BBX 15 14 1 -1
BITMAP
07C0
1830
2008
4004
5294
8C62
8012
8012
8002
47C4
4824
2008
1830
07C0
ENDCHAR
STARTCHAR uniE123
ENCODING 57635
SWIDTH 1000 0
DWIDTH 16 0
BBX 15 14 1 -1
BITMAP
07C0
1830
2008
4004
4824
8442
8822
8002
8002
47C4
4824
2008
1830
07C0
ENDCHAR
STARTCHAR uniE124
ENCODING 57636
SWIDTH 1000 0
DWIDTH 16 0
BBX 15 14 1 -1
BITMAP
07C0
1830
2008
4824
4444
9C72
8002
8282
8282
47C4
4AA4
2288
1830
07C0
ENDCHAR
STARTCHAR uniE125
ENCODING 57637
SWIDTH 1000 0
DWIDTH 16 0
BBX 15 14 1 -1
BITMAP
07C0
1830
2008
4004
4444
8822
800A
800A
8002
47C4
4824
2008
1830
07C0
ENDCHAR
STARTCHAR uniE126
ENCODING 57638
SWIDTH 1000 0
DWIDTH 16 0
BBX 15 14 1 -1
BITMAP
07C0
1830
2008
4004
4C64
8C62
8002
87C2
8822
5014
5FF4
2008
1830
07C0
ENDCHAR
STARTCHAR uniE127
ENCODING 57639
SWIDTH 1000 0
DWIDTH 16 0
BBX 15 14 1 -1
BITMAP
07C0
1830
2448
4824
4C64
8C62
8002
87C2
8822
5014
5FF4
2008
1830
07C0
ENDCHAR
STARTCHAR uniE128
ENCODING 57640
SWIDTH 1000 0
DWIDTH 16 0
BBX 15 14 1 -1
BITMAP
07C0
1830
2008
4C64
5AD4
9292
8C62
8002
8FE2
5014
5FF4
2008
1830
07C0
ENDCHAR
STARTCHAR uniE129
ENCODING 57641
SWIDTH 1000 0
DWIDTH 16 0
BBX 15 14 1 -1
BITMAP
07C0
1830
2448
4824
4284
8442
8002
87C2
8822
5014
5FF4
2008
1830
07C0
ENDCHAR
STARTCHAR uniE12A
ENCODING 57642
SWIDTH 1000 0
DWIDTH 16 0
BBX 15 14 1 -1
BITMAP
07C0
1830
2008
4004
5294
8C62
800A
87CA
8822
5014
5FF4
2008
1830
07C0
ENDCHAR
STARTCHAR uniE12B
ENCODING 57643
SWIDTH 1000 0
DWIDTH 16 0
BBX 15 14 1 -1
BITMAP
07C0
1830
2008
4824
4444
8822
8002
87C2
8822
5014
5FF4
2008
1830
07C0
ENDCHAR
STARTCHAR uniE12C
ENCODING 57644
SWIDTH 1000 0
DWIDTH 16 0
BBX 15 14 1 -1
BITMAP
07C0
1830
2008
4004
4C64
8C62
8002
87C2
8D62
5554
5FF4
2008
1830
07C0
ENDCHAR
STARTCHAR uniE12D
ENCODING 57645
SWIDTH 1000 0
DWIDTH 16 0
BBX 15 14 1 -1
BITMAP
07C0
1830
2008
4824
4446
8822
A00A
A7CA
8D62
5554
5FF4
2008
1830
07C0
ENDCHAR
STARTCHAR uniE12E
ENCODING 57646
SWIDTH 1000 0
DWIDTH 16 0
BBX 15 14 1 -1
BITMAP
07C0
1830
2008
4004
4C64
8C62
8002
8002
8382
4384
4384
2008
1830
07C0
ENDCHAR
STARTCHAR uniE12F
ENCODING 57647
SWIDTH 1000 0
DWIDTH 16 0
BBX 15 14 1 -1
BITMAP
07C0
1830
2448
4824
4C64
8C62
8002
8002
8382
4384
4384
2008
1830
07C0
ENDCHAR
STARTCHAR uniE130
ENCODING 57648
SWIDTH 1000 0
DWIDTH 16 0
BBX 15 14 1 -1
BITMAP
07C0
1830
2448
4824
4C64
8C62
800A
800A
8382
4384
4384
2008
1830
07C0
ENDCHAR
STARTCHAR uniE131
ENCODING 57649
SWIDTH 1000 0
DWIDTH 16 0
BBX 15 14 1 -1
BITMAP
07C0
1830
2448
4824
4C64
8C62
8002
E00E
9392
9392
5394
4824
4824
4FE4
ENDCHAR
STARTCHAR uniE132
ENCODING 57650
SWIDTH 1000 0
DWIDTH 16 0
BBX 15 14 1 -1
BITMAP
07C0
1830
2008
4C64
5AD4
9292
8C62
8002
8382
4384
4384
2008
1830
07C0
ENDCHAR
STARTCHAR uniE133
ENCODING 57651
SWIDTH 1000 0
DWIDTH 16 0
BBX 15 14 1 -1
BITMAP
07C0
1830
2008
4444
4824
AEEA
D016
A82A
D396
6BAC
5394
2828
1830
07C0
ENDCHAR
STARTCHAR uniE134
ENCODING 57652
SWIDTH 625 0
DWIDTH 10 0
BBX 8 12 1 0
BITMAP
01
FF
40
40
40
40
40
40
40
40
40
60
ENDCHAR
STARTCHAR uniE135
ENCODING 57653
SWIDTH 555 0
DWIDTH 9 0
BBX 7 9 1 0
BITMAP
02
FE
40
40
40
40
40
40
E0
ENDCHAR
STARTCHAR uniE136
ENCODING 57654
SWIDTH 1000 0
DWIDTH 16 0
BBX 15 14 1 -1
BITMAP
07C0
1830
2008
4004
5294
8C62
8002
8072
8012
4324
4374
2008
1830
07C0
ENDCHAR
STARTCHAR uniE137
ENCODING 57655
SWIDTH 1000 0
DWIDTH 16 0
BBX 15 14 1 -1
BITMAP
07C0
1830
2008
4AA4
4444
8AA2
8002
8002
8382
4384
4384
2008
1830
07C0
ENDCHAR
STARTCHAR uniE138
ENCODING 57656
SWIDTH 1000 0
DWIDTH 16 0
BBX 15 14 1 -1
BITMAP
07C0
1830
2008
4004
4C64
8C62
8002
8002
8002
4004
4004
2008
1830
07C0
ENDCHAR
STARTCHAR uniE139
ENCODING 57657
SWIDTH 1000 0
DWIDTH 16 0
BBX 15 14 1 -1
BITMAP
07C0
1830
2448
4824
4EE4
A00A
9012
CFE6
A82A
5834
4FE4
2008
1830
07C0
ENDCHAR
STARTCHAR uniE13A
ENCODING 57658
SWIDTH 1000 0
DWIDTH 16 0
BBX 15 12 0 0
BITMAP
1010
2BA8
2448
4004
4444
4AA4
C006
6FEC
CAA6
27C8
1830
07C0
ENDCHAR
STARTCHAR uniE13B
ENCODING 57659
SWIDTH 1000 0
DWIDTH 16 0
BBX 15 12 0 0
BITMAP
1010
2BA8
2448
4004
4C64
5014
C016
6FEC
CAA6
27C8
1830
07C0
ENDCHAR
STARTCHAR uniE13C
ENCODING 57660
SWIDTH 1000 0
DWIDTH 16 0
BBX 15 12 0 0
BITMAP
1010
2BA8
2448
4004
4004
4444
C006
6FEC
C826
27C8
1830
07C0
ENDCHAR
STARTCHAR uniE13D
ENCODING 57661
SWIDTH 1000 0
DWIDTH 16 0
BBX 15 12 0 0
BITMAP
1010
2BA8
2448
4004
4AA4
4EE4
C446
600C
C546
2288
1830
07C0
ENDCHAR
STARTCHAR uniE13E
ENCODING 57662
SWIDTH 1000 0
DWIDTH 16 0
BBX 15 12 0 0
BITMAP
1010
2BA8
2448
4004
4004
4444
C006
600C
C046
2188
1830
07C0
ENDCHAR
STARTCHAR uniE13F
ENCODING 57663
SWIDTH 1000 0
DWIDTH 16 0
BBX 15 12 0 0
BITMAP
1010
2BA8
2448
4004
4AA4
4444
C006
608C
C046
2088
1830
07C0
ENDCHAR
STARTCHAR uniE140
ENCODING 57664
SWIDTH 1000 0
DWIDTH 16 0
BBX 15 12 0 0
BITMAP
1010
2BA8
2448
4004
4004
4444
C006
638C
C446
2108
1830
07C0
ENDCHAR
STARTCHAR uniE141
ENCODING 57665
SWIDTH 1000 0
DWIDTH 16 0
BBX 15 12 0 0
BITMAP
1010
2BA8
2448
4004
4444
4024
C026
628C
C546
2008
1830
07C0
ENDCHAR
STARTCHAR uniE142
ENCODING 57666
SWIDTH 1000 0
DWIDTH 16 0
BBX 15 12 0 0
BITMAP
1010
2BA8
2448
4004
4284
4444
C006
638C
C446
27C8
1830
07C0
ENDCHAR
STARTCHAR uniE143
ENCODING 57667
SWIDTH 1000 0
DWIDTH 16 0
BBX 15 14 1 -1
BITMAP
07C0
1830
2008
4004
4C64
8C62
8002
8002
8002
4384
4444
2008
1830
07C0
ENDCHAR
STARTCHAR uniE144
ENCODING 57668
SWIDTH 1000 0
DWIDTH 16 0
BBX 15 14 1 -1
BITMAP
07C0
1830
2008
4004
4C64
8C62
8002
8002
8002
4444
4384
2008
1830
07C0
ENDCHAR
STARTCHAR uniE145
ENCODING 57669
SWIDTH 1000 0
DWIDTH 16 0
BBX 15 14 1 -1
BITMAP
07C0
1830
2008
47C4
4824
9012
8002
8002
8C62
4C64
4004
2008
1830
07C0
ENDCHAR
STARTCHAR uniE146
ENCODING 57670
SWIDTH 1000 0
DWIDTH 16 0
BBX 15 14 1 -1
BITMAP
07C0
1830
2008
4004
4C64
8422
8002
8002
8012
4024
41C4
2008
1830
07C0
ENDCHAR
STARTCHAR uniE147
ENCODING 57671
SWIDTH 1000 0
DWIDTH 16 0
BBX 14 14 1 -1
BITMAP
0780
1860
2010
4008
4CC8
8CC4
8004
8004
9C34
63C8
5E18
20F0
4FC8
9024
ENDCHAR
STARTCHAR uniE148
ENCODING 57672
SWIDTH 1000 0
DWIDTH 16 0
BBX 15 15 0 -2
BITMAP
1EF0
2108
4EE4
9012
A7CA
A82A
B01A
A44A
A00A
A00A
A7CA
9392
8822
47C4
4004
ENDCHAR
STARTCHAR uniE149
ENCODING 57673
SWIDTH 1000 0
DWIDTH 16 0
BBX 15 13 0 0
BITMAP
1110
0920
0000
07C0
0820
1010
16D0
1830
2928
4444
9FF2
8102
FFFE
ENDCHAR
STARTCHAR uniE14A
ENCODING 57674
SWIDTH 1000 0
DWIDTH 16 0
BBX 15 12 0 0
BITMAP
07C0
6FEC
9BB2
9112
AC6A
729C
3298
2448
2BA8
4824
57D4
5394
ENDCHAR
STARTCHAR uniE14B
ENCODING 57675
SWIDTH 1000 0
DWIDTH 16 0
BBX 15 12 0 0
BITMAP
07C0
6FEC
5BB4
9112
A00A
A44A
A00A
9392
5394
5834
57D4
5394
ENDCHAR
STARTCHAR uniE14C
ENCODING 57676
SWIDTH 1000 0
DWIDTH 16 0
BBX 15 12 0 0
BITMAP
07C0
6FEC
9BB2
9112
A00A
644C
2008
1390
0C60
1050
27C8
4BA4
ENDCHAR
STARTCHAR uniE14D
ENCODING 57677
SWIDTH 1000 0
DWIDTH 16 0
BBX 13 15 1 -2
BITMAP
3000
4800
4800
9000
A780
A840
B020
A010
A490
A010
A790
9320
8850
4788
4008
ENDCHAR
STARTCHAR uniE14E
ENCODING 57678
SWIDTH 1000 0
DWIDTH 16 0
BBX 14 15 1 -2
BITMAP
6018
9024
9024
9864
A014
A794
A854
B034
A014
A494
A014
A794
9324
8844
4788
ENDCHAR
STARTCHAR uniE14F
ENCODING 57679
SWIDTH 1000 0
DWIDTH 16 0
BBX 14 12 1 0
BITMAP
0780
0840
1020
2010
6CD8
A014
A014
9324
8844
97A4
9024
9024
ENDCHAR
STARTCHAR uniE150
ENCODING 57680
SWIDTH 1000 0
DWIDTH 16 0
BBX 14 12 1 0
BITMAP
0780
0840
14A0
2850
2CD0
2010
2010
1320
6858
8784
9024
9024
ENDCHAR
STARTCHAR uniE151
ENCODING 57681
SWIDTH 1000 0
DWIDTH 16 0
BBX 15 10 0 0
BITMAP
07C0
0820
1010
16D0
1830
2BA8
4544
9D72
8102
FFFE
ENDCHAR
STARTCHAR uniE154
ENCODING 57684
SWIDTH 953 0
DWIDTH 16 0
BBX 1 1 15 -2
BITMAP
00
ENDCHAR
STARTCHAR uniE155
ENCODING 57685
SWIDTH 953 0
DWIDTH 16 0
BBX 1 1 15 -2
BITMAP
00
ENDCHAR
STARTCHAR uniE156
ENCODING 57686
SWIDTH 953 0
DWIDTH 16 0
BBX 1 1 15 -2
BITMAP
00
ENDCHAR
STARTCHAR uniE157
ENCODING 57687
SWIDTH 452 0
DWIDTH 16 0
BBX 1 1 15 -2
BITMAP
00
ENDCHAR
STARTCHAR uniE158
ENCODING 57688
SWIDTH 546 0
DWIDTH 16 0
BBX 1 1 15 -2
BITMAP
00
ENDCHAR
STARTCHAR uniE159
ENCODING 57689
SWIDTH 953 0
DWIDTH 16 0
BBX 1 1 15 -2
BITMAP
00
ENDCHAR
STARTCHAR uniE15A
ENCODING 57690
SWIDTH 953 0
DWIDTH 16 0
BBX 1 1 15 -2
BITMAP
00
ENDCHAR
STARTCHAR uniE15B
ENCODING 57691
SWIDTH 540 0
DWIDTH 16 0
BBX 1 1 15 -2
BITMAP
00
ENDCHAR
STARTCHAR uniE1A2
ENCODING 57762
SWIDTH 443 0
DWIDTH 7 0
BBX 6 7 1 2
BITMAP
C0
40
40
7C
7C
48
48
ENDCHAR
STARTCHAR uniE1A3
ENCODING 57763
SWIDTH 175 0
DWIDTH 3 0
BBX 3 4 0 2
BITMAP
E0
E0
40
40
ENDCHAR
STARTCHAR uniE1A4
ENCODING 57764
SWIDTH 351 0
DWIDTH 6 0
BBX 6 4 0 2
BITMAP
FC
FC
48
48
ENDCHAR
STARTCHAR uniE1A5
ENCODING 57765
SWIDTH 261 0
DWIDTH 4 0
BBX 4 7 0 2
BITMAP
40
E0
A0
30
30
20
20
ENDCHAR
STARTCHAR uniE1A6
ENCODING 57766
SWIDTH 494 0
DWIDTH 8 0
BBX 7 11 0 2
BITMAP
02
06
06
0C
0C
08
18
90
F0
60
20
ENDCHAR
STARTCHAR uniE1A7
ENCODING 57767
SWIDTH 267 0
DWIDTH 4 0
BBX 4 8 0 -2
BITMAP
E0
F0
10
10
10
10
20
60
ENDCHAR
STARTCHAR uniE1A8
ENCODING 57768
SWIDTH 443 0
DWIDTH 7 0
BBX 6 8 1 1
BITMAP
C0
40
40
7C
7C
50
08
04
ENDCHAR
STARTCHAR uniE1A9
ENCODING 57769
SWIDTH 337 0
DWIDTH 5 0
BBX 5 9 0 1
BITMAP
30
78
F8
88
80
80
80
C0
60
ENDCHAR
STARTCHAR uniE1AA
ENCODING 57770
SWIDTH 265 0
DWIDTH 4 0
BBX 4 5 0 1
BITMAP
F0
F0
90
60
60
ENDCHAR
STARTCHAR uniE1AB
ENCODING 57771
SWIDTH 511 0
DWIDTH 8 0
BBX 8 5 0 1
BITMAP
FF
FF
4A
4E
44
ENDCHAR
STARTCHAR uniE1AC
ENCODING 57772
SWIDTH 414 0
DWIDTH 7 0
BBX 6 8 0 2
BITMAP
38
7C
44
40
F8
F8
48
30
ENDCHAR
STARTCHAR uniE1AD
ENCODING 57773
SWIDTH 263 0
DWIDTH 4 0
BBX 4 5 0 1
BITMAP
F0
F0
A0
E0
40
ENDCHAR
STARTCHAR uniE1AE
ENCODING 57774
SWIDTH 669 0
DWIDTH 11 0
BBX 11 5 0 1
BITMAP
FFE0
FFE0
4A80
4EC0
4440
ENDCHAR
STARTCHAR uniE1AF
ENCODING 57775
SWIDTH 458 0
DWIDTH 7 0
BBX 7 5 0 1
BITMAP
FC
FE
A2
E2
42
ENDCHAR
STARTCHAR uniE1B0
ENCODING 57776
SWIDTH 449 0
DWIDTH 7 0
BBX 7 6 0 0
BITMAP
FC
FE
82
82
E0
F0
ENDCHAR
STARTCHAR uniE1B1
ENCODING 57777
SWIDTH 175 0
DWIDTH 3 0
BBX 3 7 0 -1
BITMAP
E0
E0
40
40
00
60
40
ENDCHAR
STARTCHAR uniE1B2
ENCODING 57778
SWIDTH 494 0
DWIDTH 8 0
BBX 7 14 0 -1
BITMAP
02
06
06
0C
0C
08
18
90
B0
60
20
00
30
20
ENDCHAR
STARTCHAR uniE1B3
ENCODING 57779
SWIDTH 599 0
DWIDTH 10 0
BBX 9 8 0 -2
BITMAP
FF80
FF80
5080
5880
4C80
0080
0080
0180
ENDCHAR
STARTCHAR uniE1B4
ENCODING 57780
SWIDTH 378 0
DWIDTH 6 0
BBX 6 9 0 1
BITMAP
30
78
FC
84
F4
F0
90
E0
40
ENDCHAR
STARTCHAR uniE1B5
ENCODING 57781
SWIDTH 386 0
DWIDTH 6 0
BBX 6 12 0 -2
BITMAP
30
78
CC
84
F4
F4
94
F4
64
04
08
10
ENDCHAR
STARTCHAR uniE1B6
ENCODING 57782
SWIDTH 378 0
DWIDTH 6 0
BBX 6 9 0 1
BITMAP
30
78
F8
88
E4
F4
10
F0
F0
ENDCHAR
STARTCHAR uniE1B7
ENCODING 57783
SWIDTH 386 0
DWIDTH 6 0
BBX 6 12 0 -2
BITMAP
30
78
8C
84
F4
F4
14
F4
E4
04
0C
18
ENDCHAR
STARTCHAR uniE1B8
ENCODING 57784
SWIDTH 351 0
DWIDTH 6 0
BBX 6 8 0 -2
BITMAP
FC
FC
48
48
00
00
6C
48
ENDCHAR
STARTCHAR uniE1B9
ENCODING 57785
SWIDTH 656 0
DWIDTH 11 0
BBX 10 15 0 -2
BITMAP
00C0
00C0
0180
0180
0100
0300
0200
F600
F400
4C00
4800
0800
0000
6600
4400
ENDCHAR
STARTCHAR uniE1BA
ENCODING 57786
SWIDTH 656 0
DWIDTH 11 0
BBX 10 11 0 2
BITMAP
0080
00C0
0180
0100
0100
0300
0200
F600
F400
4C00
4800
ENDCHAR
STARTCHAR uniE1BB
ENCODING 57787
SWIDTH 175 0
DWIDTH 3 0
BBX 3 8 0 2
BITMAP
60
60
40
40
E0
E0
40
40
ENDCHAR
STARTCHAR uniE1BC
ENCODING 57788
SWIDTH 439 0
DWIDTH 7 0
BBX 7 10 0 1
BITMAP
04
06
7C
F8
98
90
F0
70
20
20
ENDCHAR
STARTCHAR uniE1BD
ENCODING 57789
SWIDTH 175 0
DWIDTH 3 0
BBX 3 8 0 2
BITMAP
E0
E0
20
40
E0
E0
40
40
ENDCHAR
STARTCHAR uniE1BE
ENCODING 57790
SWIDTH 373 0
DWIDTH 6 0
BBX 5 8 0 2
BITMAP
38
18
08
08
90
F0
60
20
ENDCHAR
STARTCHAR uniE1BF
ENCODING 57791
SWIDTH 423 0
DWIDTH 7 0
BBX 7 7 0 2
BITMAP
10
38
28
EE
EE
44
44
ENDCHAR
STARTCHAR uniE1C0
ENCODING 57792
SWIDTH 541 0
DWIDTH 9 0
BBX 8 7 0 2
BITMAP
13
3A
2A
EE
EE
44
44
ENDCHAR
STARTCHAR uniE1C1
ENCODING 57793
SWIDTH 292 0
DWIDTH 5 0
BBX 4 7 0 2
BITMAP
10
30
20
E0
E0
40
40
ENDCHAR
STARTCHAR uniE1C2
ENCODING 57794
SWIDTH 605 0
DWIDTH 10 0
BBX 9 7 0 2
BITMAP
1000
3800
2800
EF80
EF80
4480
4480
ENDCHAR
STARTCHAR uniE1C3
ENCODING 57795
SWIDTH 423 0
DWIDTH 7 0
BBX 7 10 0 2
BITMAP
6C
48
00
10
38
28
EE
EE
44
44
ENDCHAR
STARTCHAR uniE1C4
ENCODING 57796
SWIDTH 539 0
DWIDTH 9 0
BBX 8 10 0 2
BITMAP
36
24
00
11
3B
2A
EE
EE
44
44
ENDCHAR
STARTCHAR uniE1C5
ENCODING 57797
SWIDTH 298 0
DWIDTH 5 0
BBX 5 6 0 0
BITMAP
F8
F8
60
30
28
10
ENDCHAR
STARTCHAR uniE1C6
ENCODING 57798
SWIDTH 437 0
DWIDTH 7 0
BBX 7 8 0 1
BITMAP
20
78
78
8E
FE
7C
04
04
ENDCHAR
STARTCHAR uniE1C7
ENCODING 57799
SWIDTH 625 0
DWIDTH 10 0
BBX 11 7 -1 2
BITMAP
1000
3800
6C00
C7C0
7FC0
3E60
0220
ENDCHAR
STARTCHAR uniE1C8
ENCODING 57800
SWIDTH 451 0
DWIDTH 7 0
BBX 7 5 0 1
BITMAP
FE
FE
A4
E4
40
ENDCHAR
STARTCHAR uniE1C9
ENCODING 57801
SWIDTH 751 0
DWIDTH 12 0
BBX 11 12 0 1
BITMAP
0020
0060
0060
00C0
00C0
0080
0180
F900
9D00
F700
6200
0200
ENDCHAR
STARTCHAR uniE1CA
ENCODING 57802
SWIDTH 474 0
DWIDTH 8 0
BBX 7 6 0 0
BITMAP
FE
FE
82
62
50
20
ENDCHAR
STARTCHAR uniE1CB
ENCODING 57803
SWIDTH 388 0
DWIDTH 6 0
BBX 6 5 0 1
BITMAP
FC
FC
08
38
38
ENDCHAR
STARTCHAR uniE1CC
ENCODING 57804
SWIDTH 513 0
DWIDTH 8 0
BBX 8 5 0 1
BITMAP
FE
FF
11
F1
E0
ENDCHAR
STARTCHAR uniE1CD
ENCODING 57805
SWIDTH 298 0
DWIDTH 5 0
BBX 5 5 0 1
BITMAP
F8
F8
10
E0
C0
ENDCHAR
STARTCHAR uniE1CE
ENCODING 57806
SWIDTH 513 0
DWIDTH 8 0
BBX 8 5 0 1
BITMAP
FE
FF
11
E1
C0
ENDCHAR
STARTCHAR uniE1CF
ENCODING 57807
SWIDTH 164 0
DWIDTH 3 0
BBX 3 6 0 0
BITMAP
E0
E0
80
C0
60
C0
ENDCHAR
STARTCHAR uniE1D0
ENCODING 57808
SWIDTH 164 0
DWIDTH 3 0
BBX 3 5 0 1
BITMAP
E0
E0
80
40
60
ENDCHAR
STARTCHAR uniE1D1
ENCODING 57809
SWIDTH 162 0
DWIDTH 3 0
BBX 4 5 -1 1
BITMAP
70
70
40
60
B0
ENDCHAR
STARTCHAR uniE1D2
ENCODING 57810
SWIDTH 375 0
DWIDTH 6 0
BBX 6 9 -1 1
BITMAP
18
3C
3C
44
C4
C0
20
70
D8
ENDCHAR
STARTCHAR uniE1D3
ENCODING 57811
SWIDTH 238 0
DWIDTH 4 0
BBX 4 6 0 0
BITMAP
F0
F0
80
80
60
60
ENDCHAR
STARTCHAR uniE1D4
ENCODING 57812
SWIDTH 521 0
DWIDTH 8 0
BBX 8 6 0 0
BITMAP
FE
FF
41
41
38
38
ENDCHAR
STARTCHAR uniE1D5
ENCODING 57813
SWIDTH 378 0
DWIDTH 6 0
BBX 7 11 0 -1
BITMAP
30
78
88
8C
E6
F6
90
F0
80
F0
70
ENDCHAR
STARTCHAR uniE1D6
ENCODING 57814
SWIDTH 378 0
DWIDTH 6 0
BBX 6 12 0 -2
BITMAP
30
78
F8
8C
F4
F4
90
E0
E0
80
60
60
ENDCHAR
STARTCHAR uniE1D7
ENCODING 57815
SWIDTH 386 0
DWIDTH 6 0
BBX 6 12 0 -2
BITMAP
30
78
CC
84
F4
F4
94
E4
E4
84
6C
6C
ENDCHAR
STARTCHAR uniE1D8
ENCODING 57816
SWIDTH 453 0
DWIDTH 7 0
BBX 8 9 0 1
BITMAP
18
3C
6C
44
47
43
40
60
B0
ENDCHAR
STARTCHAR uniE1D9
ENCODING 57817
SWIDTH 410 0
DWIDTH 7 0
BBX 8 9 -1 1
BITMAP
18
3C
3C
44
C3
C3
20
70
D8
ENDCHAR
STARTCHAR uniE1DA
ENCODING 57818
SWIDTH 417 0
DWIDTH 7 0
BBX 7 12 -1 -2
BITMAP
18
3C
3C
42
C2
C2
62
22
F2
12
06
0C
ENDCHAR
STARTCHAR uniE1DB
ENCODING 57819
SWIDTH 453 0
DWIDTH 7 0
BBX 7 9 1 1
BITMAP
30
78
88
8C
C6
C6
80
C0
60
ENDCHAR
STARTCHAR uniE1DC
ENCODING 57820
SWIDTH 410 0
DWIDTH 7 0
BBX 7 10 0 0
BITMAP
30
78
78
8C
E6
E6
80
C0
60
20
ENDCHAR
STARTCHAR uniE1DD
ENCODING 57821
SWIDTH 417 0
DWIDTH 7 0
BBX 6 12 0 -2
BITMAP
30
78
7C
84
E4
E4
44
64
24
04
0C
08
ENDCHAR
STARTCHAR uniE1DE
ENCODING 57822
SWIDTH 564 0
DWIDTH 9 0
BBX 9 7 0 -1
BITMAP
FF80
FF80
0400
1C00
1D00
0280
0100
ENDCHAR
STARTCHAR uniE1DF
ENCODING 57823
SWIDTH 634 0
DWIDTH 10 0
BBX 10 7 0 -1
BITMAP
FF80
FF80
1040
7040
6200
0500
0200
ENDCHAR
STARTCHAR uniE1E0
ENCODING 57824
SWIDTH 564 0
DWIDTH 9 0
BBX 9 7 0 -1
BITMAP
FF80
FF80
0400
1C00
1C00
0380
0380
ENDCHAR
STARTCHAR uniE1E1
ENCODING 57825
SWIDTH 634 0
DWIDTH 10 0
BBX 10 7 0 -1
BITMAP
FF80
FFC0
1040
7040
7000
1800
0E00
ENDCHAR
STARTCHAR uniE1E2
ENCODING 57826
SWIDTH 326 0
DWIDTH 5 0
BBX 5 11 0 -2
BITMAP
80
80
80
F0
F8
08
08
08
18
30
60
ENDCHAR
STARTCHAR uniE1E3
ENCODING 57827
SWIDTH 437 0
DWIDTH 7 0
BBX 7 6 0 0
BITMAP
FE
FE
50
58
4E
06
ENDCHAR
STARTCHAR uniE1E4
ENCODING 57828
SWIDTH 566 0
DWIDTH 9 0
BBX 9 9 1 0
BITMAP
C000
C000
4000
7380
7380
4A00
4B00
0F00
0600
ENDCHAR
STARTCHAR uniE1E5
ENCODING 57829
SWIDTH 314 0
DWIDTH 5 0
BBX 6 5 -1 1
BITMAP
DC
DC
50
28
18
ENDCHAR
STARTCHAR uniE1E6
ENCODING 57830
SWIDTH 498 0
DWIDTH 8 0
BBX 8 5 0 1
BITMAP
F7
F7
54
4A
06
ENDCHAR
STARTCHAR uniE1E7
ENCODING 57831
SWIDTH 363 0
DWIDTH 6 0
BBX 5 10 0 0
BITMAP
E0
F0
98
88
88
88
88
98
10
30
ENDCHAR
STARTCHAR uniE1E8
ENCODING 57832
SWIDTH 625 0
DWIDTH 10 0
BBX 9 9 1 0
BITMAP
C000
C000
4000
7F80
7F80
5100
5100
5F00
0E00
ENDCHAR
STARTCHAR uniE1E9
ENCODING 57833
SWIDTH 347 0
DWIDTH 6 0
BBX 6 6 0 0
BITMAP
FC
FC
88
88
F8
70
ENDCHAR
STARTCHAR uniE1EA
ENCODING 57834
SWIDTH 505 0
DWIDTH 8 0
BBX 8 6 0 0
BITMAP
FF
FF
52
52
5E
0C
ENDCHAR
STARTCHAR uniE1EB
ENCODING 57835
SWIDTH 308 0
DWIDTH 5 0
BBX 4 6 0 0
BITMAP
F0
F0
90
90
F0
60
ENDCHAR
STARTCHAR uniE1EC
ENCODING 57836
SWIDTH 541 0
DWIDTH 9 0
BBX 7 11 1 -2
BITMAP
C0
40
40
7E
7E
52
5E
1E
08
06
06
ENDCHAR
STARTCHAR uniE1ED
ENCODING 57837
SWIDTH 582 0
DWIDTH 9 0
BBX 8 11 1 -2
BITMAP
C0
C0
40
7F
7F
52
5E
1E
08
06
06
ENDCHAR
STARTCHAR uniE1EE
ENCODING 57838
SWIDTH 320 0
DWIDTH 5 0
BBX 5 7 0 -1
BITMAP
F8
F8
90
F0
E0
40
30
ENDCHAR
STARTCHAR uniE1EF
ENCODING 57839
SWIDTH 478 0
DWIDTH 8 0
BBX 8 7 0 -1
BITMAP
FF
FF
52
5C
5C
50
0E
ENDCHAR
STARTCHAR uniE1F0
ENCODING 57840
SWIDTH 361 0
DWIDTH 6 0
BBX 5 11 0 -1
BITMAP
30
78
78
88
E0
F0
90
F0
80
C0
70
ENDCHAR
STARTCHAR uniE1F1
ENCODING 57841
SWIDTH 630 0
DWIDTH 10 0
BBX 9 11 1 0
BITMAP
3000
3800
C800
C800
4800
7F80
7F80
5100
5100
1F00
0E00
ENDCHAR
STARTCHAR uniE1F2
ENCODING 57842
SWIDTH 353 0
DWIDTH 6 0
BBX 8 11 -2 0
BITMAP
60
E0
20
20
20
3F
3F
24
24
3C
18
ENDCHAR
STARTCHAR uniE1F3
ENCODING 57843
SWIDTH 537 0
DWIDTH 9 0
BBX 9 11 0 0
BITMAP
1000
3800
0800
0800
0800
FF80
FF80
5100
5100
5F00
0E00
ENDCHAR
STARTCHAR uniE1F4
ENCODING 57844
SWIDTH 308 0
DWIDTH 5 0
BBX 6 11 -2 0
BITMAP
60
A0
20
20
20
3C
3C
24
24
3C
18
ENDCHAR
STARTCHAR uniE1F5
ENCODING 57845
SWIDTH 539 0
DWIDTH 9 0
BBX 8 9 0 1
BITMAP
07
0F
19
11
F1
F0
50
48
08
ENDCHAR
STARTCHAR uniE1F6
ENCODING 57846
SWIDTH 484 0
DWIDTH 8 0
BBX 9 10 -1 0
BITMAP
4600
4F00
5900
5100
F180
F180
5000
4800
7C00
7800
ENDCHAR
STARTCHAR uniE1F7
ENCODING 57847
SWIDTH 513 0
DWIDTH 8 0
BBX 9 12 -1 -2
BITMAP
0600
4F00
5F00
5180
F080
F080
5080
4880
7C80
4880
0180
0300
ENDCHAR
STARTCHAR uniE1F8
ENCODING 57848
SWIDTH 351 0
DWIDTH 6 0
BBX 6 8 0 -2
BITMAP
FC
FC
48
48
00
20
50
20
ENDCHAR
STARTCHAR uniE1F9
ENCODING 57849
SWIDTH 351 0
DWIDTH 6 0
BBX 6 7 0 -1
BITMAP
FC
FC
48
48
00
78
78
ENDCHAR
STARTCHAR uniE1FA
ENCODING 57850
SWIDTH 468 0
DWIDTH 8 0
BBX 7 10 0 -1
BITMAP
02
06
04
FC
F8
48
48
00
F8
F8
ENDCHAR
STARTCHAR uniE1FB
ENCODING 57851
SWIDTH 427 0
DWIDTH 7 0
BBX 8 10 -1 0
BITMAP
08
1C
3E
22
C3
C3
22
3E
1E
04
ENDCHAR
STARTCHAR uniE1FC
ENCODING 57852
SWIDTH 724 0
DWIDTH 12 0
BBX 11 10 0 0
BITMAP
3800
7800
4C00
4400
C7E0
C7E0
4420
6420
3C00
1C00
ENDCHAR
STARTCHAR uniE1FD
ENCODING 57853
SWIDTH 347 0
DWIDTH 6 0
BBX 6 6 0 0
BITMAP
FC
FC
50
50
68
38
ENDCHAR
STARTCHAR uniE1FE
ENCODING 57854
SWIDTH 445 0
DWIDTH 7 0
BBX 7 7 0 -1
BITMAP
FE
FE
04
1C
1C
28
10
ENDCHAR
STARTCHAR uniE1FF
ENCODING 57855
SWIDTH 554 0
DWIDTH 9 0
BBX 8 7 0 -1
BITMAP
FF
FF
11
71
60
A0
40
ENDCHAR
STARTCHAR uniE200
ENCODING 57856
SWIDTH 445 0
DWIDTH 7 0
BBX 7 8 0 -2
BITMAP
FE
FE
04
1C
3C
20
3C
1C
ENDCHAR
STARTCHAR uniE201
ENCODING 57857
SWIDTH 554 0
DWIDTH 9 0
BBX 8 8 0 -2
BITMAP
FF
FF
11
71
F1
80
70
70
ENDCHAR
STARTCHAR uniE202
ENCODING 57858
SWIDTH 445 0
DWIDTH 7 0
BBX 7 6 0 0
BITMAP
FE
FE
04
04
38
38
ENDCHAR
STARTCHAR uniE203
ENCODING 57859
SWIDTH 298 0
DWIDTH 5 0
BBX 8 5 0 1
BITMAP
FF
FF
11
F1
E0
ENDCHAR
STARTCHAR uniE204
ENCODING 57860
SWIDTH 453 0
DWIDTH 7 0
BBX 8 10 0 0
BITMAP
18
3C
64
C4
C7
C3
40
30
30
40
ENDCHAR
STARTCHAR uniE205
ENCODING 57861
SWIDTH 410 0
DWIDTH 7 0
BBX 8 11 -1 -1
BITMAP
18
3C
64
64
E3
E3
20
20
30
30
40
ENDCHAR
STARTCHAR uniE206
ENCODING 57862
SWIDTH 417 0
DWIDTH 7 0
BBX 7 12 -1 -2
BITMAP
18
3C
26
66
C2
C2
62
32
12
62
0E
1C
ENDCHAR
STARTCHAR uniE207
ENCODING 57863
SWIDTH 501 0
DWIDTH 8 0
BBX 8 6 0 0
BITMAP
F7
F7
54
4A
4E
0E
ENDCHAR
STARTCHAR uniE208
ENCODING 57864
SWIDTH 599 0
DWIDTH 10 0
BBX 9 6 0 0
BITMAP
F780
F780
5480
4A80
4E00
0E00
ENDCHAR
STARTCHAR uniE209
ENCODING 57865
SWIDTH 445 0
DWIDTH 7 0
BBX 7 8 0 -2
BITMAP
FE
FE
04
1C
1C
04
1C
1C
ENDCHAR
STARTCHAR uniE20A
ENCODING 57866
SWIDTH 554 0
DWIDTH 9 0
BBX 8 8 0 -2
BITMAP
FF
FF
11
71
70
10
70
70
ENDCHAR
STARTCHAR uniE20B
ENCODING 57867
SWIDTH 175 0
DWIDTH 3 0
BBX 3 9 0 1
BITMAP
60
40
00
00
E0
E0
40
40
40
ENDCHAR
STARTCHAR uniE20C
ENCODING 57868
SWIDTH 378 0
DWIDTH 6 0
BBX 6 5 0 1
BITMAP
FC
FC
58
48
4C
ENDCHAR
STARTCHAR uniE20D
ENCODING 57869
SWIDTH 521 0
DWIDTH 8 0
BBX 8 5 0 1
BITMAP
FE
FF
41
21
30
ENDCHAR
STARTCHAR uniE20E
ENCODING 57870
SWIDTH 277 0
DWIDTH 4 0
BBX 4 4 0 2
BITMAP
E0
F0
10
10
ENDCHAR
STARTCHAR uniE20F
ENCODING 57871
SWIDTH 607 0
DWIDTH 10 0
BBX 9 11 0 2
BITMAP
0180
0180
0100
0300
A200
E600
4400
E400
EC00
1800
1800
ENDCHAR
STARTCHAR uniE210
ENCODING 57872
SWIDTH 544 0
DWIDTH 9 0
BBX 8 8 1 2
BITMAP
0C
C8
C0
40
7F
7F
52
4C
ENDCHAR
STARTCHAR uniE211
ENCODING 57873
SWIDTH 337 0
DWIDTH 5 0
BBX 6 9 0 1
BITMAP
20
60
00
00
FC
FC
48
78
30
ENDCHAR
STARTCHAR uniE212
ENCODING 57874
SWIDTH 414 0
DWIDTH 7 0
BBX 6 10 0 1
BITMAP
C0
98
3C
64
44
F0
F8
48
30
30
ENDCHAR
STARTCHAR uniE213
ENCODING 57875
SWIDTH 175 0
DWIDTH 3 0
BBX 4 9 0 1
BITMAP
50
50
20
20
E0
E0
40
40
40
ENDCHAR
STARTCHAR uniE214
ENCODING 57876
SWIDTH 494 0
DWIDTH 8 0
BBX 8 5 0 1
BITMAP
FF
FF
4A
7A
33
ENDCHAR
STARTCHAR uniE215
ENCODING 57877
SWIDTH 566 0
DWIDTH 9 0
BBX 9 8 0 -2
BITMAP
FF00
FF80
4980
4880
4880
0180
0300
0600
ENDCHAR
STARTCHAR uniE216
ENCODING 57878
SWIDTH 175 0
DWIDTH 3 0
BBX 5 7 -1 -1
BITMAP
70
70
20
20
00
D8
90
ENDCHAR
STARTCHAR uniE217
ENCODING 57879
SWIDTH 566 0
DWIDTH 9 0
BBX 8 16 0 -3
BITMAP
02
03
02
06
04
0C
08
C8
78
30
30
00
0C
08
06
04
ENDCHAR
STARTCHAR uniE218
ENCODING 57880
SWIDTH 351 0
DWIDTH 6 0
BBX 6 8 0 2
BITMAP
0C
08
00
00
FC
FC
48
48
ENDCHAR
STARTCHAR uniE219
ENCODING 57881
SWIDTH 351 0
DWIDTH 6 0
BBX 6 8 0 2
BITMAP
08
14
08
00
FC
FC
48
48
ENDCHAR
STARTCHAR uniE21A
ENCODING 57882
SWIDTH 451 0
DWIDTH 7 0
BBX 8 9 0 1
BITMAP
28
7C
54
42
FB
FB
48
78
30
ENDCHAR
STARTCHAR uniE21B
ENCODING 57883
SWIDTH 423 0
DWIDTH 7 0
BBX 7 10 0 -1
BITMAP
10
38
28
EE
EE
44
44
00
18
10
ENDCHAR
STARTCHAR uniE21C
ENCODING 57884
SWIDTH 583 0
DWIDTH 9 0
BBX 9 13 0 -2
BITMAP
0180
0180
1300
3B00
2A00
EE00
C400
4400
4C00
0800
0000
3000
2000
ENDCHAR
STARTCHAR uniE21D
ENCODING 57885
SWIDTH 298 0
DWIDTH 5 0
BBX 5 7 0 -1
BITMAP
F8
F8
40
50
68
30
18
ENDCHAR
STARTCHAR uniE21E
ENCODING 57886
SWIDTH 484 0
DWIDTH 8 0
BBX 8 11 0 1
BITMAP
03
02
38
6C
44
6C
FF
FF
02
02
02
ENDCHAR
STARTCHAR uniE21F
ENCODING 57887
SWIDTH 298 0
DWIDTH 5 0
BBX 5 11 0 -1
BITMAP
18
10
00
00
F8
F8
40
50
68
30
18
ENDCHAR
STARTCHAR uniE220
ENCODING 57888
SWIDTH 298 0
DWIDTH 5 0
BBX 5 10 0 0
BITMAP
18
10
00
00
F8
F8
40
30
28
10
ENDCHAR
STARTCHAR uniE221
ENCODING 57889
SWIDTH 238 0
DWIDTH 4 0
BBX 4 6 0 0
BITMAP
F0
F0
20
20
30
40
ENDCHAR
STARTCHAR uniE222
ENCODING 57890
SWIDTH 427 0
DWIDTH 7 0
BBX 6 9 1 1
BITMAP
50
F8
A8
88
EC
EC
A0
E0
E0
ENDCHAR
STARTCHAR uniE223
ENCODING 57891
SWIDTH 390 0
DWIDTH 6 0
BBX 6 10 0 0
BITMAP
C0
E0
20
20
FC
FC
20
20
3C
1C
ENDCHAR
STARTCHAR uniE224
ENCODING 57892
SWIDTH 423 0
DWIDTH 7 0
BBX 7 9 0 2
BITMAP
10
10
7C
7C
28
EE
EE
44
44
ENDCHAR
STARTCHAR uniE225
ENCODING 57893
SWIDTH 361 0
DWIDTH 6 0
BBX 5 7 1 2
BITMAP
F0
F0
20
58
D8
80
80
ENDCHAR
STARTCHAR uniE226
ENCODING 57894
SWIDTH 423 0
DWIDTH 7 0
BBX 7 8 0 2
BITMAP
7C
7C
10
28
EE
EE
44
44
ENDCHAR
STARTCHAR uniE227
ENCODING 57895
SWIDTH 382 0
DWIDTH 6 0
BBX 6 8 0 1
BITMAP
7C
7C
28
EC
EC
40
40
40
ENDCHAR
STARTCHAR uniE228
ENCODING 57896
SWIDTH 417 0
DWIDTH 7 0
BBX 6 9 1 1
BITMAP
20
50
20
00
FC
FC
08
78
70
ENDCHAR
STARTCHAR uniE229
ENCODING 57897
SWIDTH 238 0
DWIDTH 4 0
BBX 4 10 0 0
BITMAP
40
A0
40
00
F0
F0
20
20
30
30
ENDCHAR
STARTCHAR uniE22A
ENCODING 57898
SWIDTH 656 0
DWIDTH 11 0
BBX 10 16 0 -3
BITMAP
00C0
00C0
0180
0100
0100
0300
0200
F600
F400
4C00
4800
0000
0000
1800
1300
0200
ENDCHAR
STARTCHAR uniE22B
ENCODING 57899
SWIDTH 427 0
DWIDTH 7 0
BBX 6 6 0 0
BITMAP
FC
FC
44
64
B0
30
ENDCHAR
STARTCHAR uniE22C
ENCODING 57900
SWIDTH 302 0
DWIDTH 5 0
BBX 5 9 0 1
BITMAP
20
50
20
00
F8
F8
10
30
40
ENDCHAR
STARTCHAR uniE22D
ENCODING 57901
SWIDTH 441 0
DWIDTH 7 0
BBX 5 5 1 3
BITMAP
70
F8
88
F8
78
ENDCHAR
STARTCHAR uniE22E
ENCODING 57902
SWIDTH 845 0
DWIDTH 14 0
BBX 12 9 1 3
BITMAP
0030
0030
0010
0010
73F0
FBE0
8420
FBE0
79C0
ENDCHAR
STARTCHAR uniE22F
ENCODING 57903
SWIDTH 533 0
DWIDTH 9 0
BBX 8 7 0 -1
BITMAP
FF
FF
41
73
72
04
06
ENDCHAR
STARTCHAR uniE230
ENCODING 57904
SWIDTH 267 0
DWIDTH 4 0
BBX 4 4 0 2
BITMAP
F0
F0
30
60
ENDCHAR
STARTCHAR uniE231
ENCODING 57905
SWIDTH 412 0
DWIDTH 7 0
BBX 6 4 0 2
BITMAP
FC
FC
4C
58
ENDCHAR
STARTCHAR uniE232
ENCODING 57906
SWIDTH 404 0
DWIDTH 6 0
BBX 6 9 0 1
BITMAP
18
3C
7C
44
C0
C0
40
70
20
ENDCHAR
STARTCHAR uniE233
ENCODING 57907
SWIDTH 658 0
DWIDTH 11 0
BBX 11 11 0 -1
BITMAP
0300
6780
E480
2C80
3860
2860
2800
0400
0600
3300
2000
ENDCHAR
STARTCHAR uniE234
ENCODING 57908
SWIDTH 513 0
DWIDTH 8 0
BBX 8 11 0 -1
BITMAP
03
67
A4
28
3F
3F
28
24
06
30
20
ENDCHAR
STARTCHAR uniE235
ENCODING 57909
SWIDTH 562 0
DWIDTH 9 0
BBX 9 11 0 -1
BITMAP
0400
0F00
1B00
1100
F180
F180
5000
5000
0800
6000
4000
ENDCHAR
STARTCHAR uniE236
ENCODING 57910
SWIDTH 417 0
DWIDTH 7 0
BBX 7 11 0 -1
BITMAP
06
0E
10
10
FE
FE
50
50
08
60
40
ENDCHAR
STARTCHAR uniE237
ENCODING 57911
SWIDTH 519 0
DWIDTH 8 0
BBX 8 9 0 -3
BITMAP
FF
FF
04
1C
1E
02
03
01
02
ENDCHAR
STARTCHAR uniE238
ENCODING 57912
SWIDTH 445 0
DWIDTH 7 0
BBX 7 12 0 -2
BITMAP
18
3C
64
44
C6
C6
44
24
20
00
36
24
ENDCHAR
STARTCHAR uniE239
ENCODING 57913
SWIDTH 445 0
DWIDTH 7 0
BBX 7 8 0 -2
BITMAP
FE
FE
04
1C
1C
04
0C
0C
ENDCHAR
STARTCHAR uniE23A
ENCODING 57914
SWIDTH 351 0
DWIDTH 6 0
BBX 6 8 0 2
BITMAP
0C
D4
88
00
FC
FC
48
48
ENDCHAR
STARTCHAR uniE23B
ENCODING 57915
SWIDTH 406 0
DWIDTH 7 0
BBX 7 5 0 1
BITMAP
FE
40
48
54
08
ENDCHAR
STARTCHAR uniE23C
ENCODING 57916
SWIDTH 423 0
DWIDTH 7 0
BBX 7 11 0 2
BITMAP
10
28
10
38
38
10
28
EE
EE
44
44
ENDCHAR
STARTCHAR uniE23D
ENCODING 57917
SWIDTH 511 0
DWIDTH 8 0
BBX 8 8 0 2
BITMAP
7A
7D
12
28
EF
EF
44
44
ENDCHAR
STARTCHAR uniE23E
ENCODING 57918
SWIDTH 439 0
DWIDTH 7 0
BBX 7 9 0 1
BITMAP
04
2A
24
20
FE
FE
20
E0
C0
ENDCHAR
STARTCHAR uniE23F
ENCODING 57919
SWIDTH 400 0
DWIDTH 6 0
BBX 7 9 0 1
BITMAP
44
AA
44
00
FE
FE
10
E0
C0
ENDCHAR
STARTCHAR uniE240
ENCODING 57920
SWIDTH 298 0
DWIDTH 5 0
BBX 5 10 0 0
BITMAP
D0
A8
10
00
F8
F8
40
50
28
10
ENDCHAR
STARTCHAR uniE241
ENCODING 57921
SWIDTH 333 0
DWIDTH 5 0
BBX 6 8 0 1
BITMAP
10
10
10
FC
FC
10
70
C0
ENDCHAR
STARTCHAR uniE242
ENCODING 57922
SWIDTH 423 0
DWIDTH 7 0
BBX 7 14 0 -1
BITMAP
10
28
10
00
10
38
28
EE
EE
44
44
00
30
20
ENDCHAR
STARTCHAR uniE243
ENCODING 57923
SWIDTH 423 0
DWIDTH 7 0
BBX 7 11 0 2
BITMAP
10
28
10
00
10
38
28
EE
EE
44
44
ENDCHAR
STARTCHAR uniE244
ENCODING 57924
SWIDTH 585 0
DWIDTH 9 0
BBX 10 10 0 0
BITMAP
0600
0F00
0900
1100
F0C0
F0C0
5000
4800
4E00
0600
ENDCHAR
STARTCHAR uniE245
ENCODING 57925
SWIDTH 574 0
DWIDTH 9 0
BBX 8 9 1 1
BITMAP
0C
1E
32
22
E3
E1
A0
90
18
ENDCHAR
STARTCHAR uniE246
ENCODING 57926
SWIDTH 351 0
DWIDTH 6 0
BBX 6 4 0 2
BITMAP
FC
FC
48
48
ENDCHAR
STARTCHAR uniE295
ENCODING 58005
SWIDTH 976 0
DWIDTH 16 0
BBX 15 14 2 -2
BITMAP
0040
0080
20B8
21C8
2150
3220
E458
21A6
26F8
30A0
60F8
8020
0020
0020
ENDCHAR
STARTCHAR uniE37E
ENCODING 58238
SWIDTH 976 0
DWIDTH 16 0
BBX 14 10 1 0
BITMAP
7D10
1094
2178
2090
FC10
25A8
24A4
2480
3C80
257C
ENDCHAR
STARTCHAR uniE396
ENCODING 58262
SWIDTH 1000 0
DWIDTH 16 0
BBX 10 11 4 0
BITMAP
7D00
FA00
2200
7A00
A600
2200
2200
6E00
C600
4100
00C0
ENDCHAR
STARTCHAR uniE397
ENCODING 58263
SWIDTH 1000 0
DWIDTH 16 0
BBX 10 11 3 0
BITMAP
7B00
FA00
2200
7B00
A700
2280
2200
6E00
C600
4100
00C0
ENDCHAR
STARTCHAR uniE398
ENCODING 58264
SWIDTH 1000 0
DWIDTH 16 0
BBX 10 10 2 1
BITMAP
3180
39C0
4A40
39C0
0000
C380
36C0
18C0
0CC0
0780
ENDCHAR
STARTCHAR uniE399
ENCODING 58265
SWIDTH 1000 0
DWIDTH 16 0
BBX 10 13 3 -2
BITMAP
6300
7380
9480
7380
0000
0700
0D80
0180
0180
0300
0300
0100
00C0
ENDCHAR
STARTCHAR uniE39A
ENCODING 58266
SWIDTH 1000 0
DWIDTH 16 0
BBX 10 10 2 1
BITMAP
0F80
1FC0
0600
0600
8D80
58C0
4840
20C0
1980
0F00
ENDCHAR
STARTCHAR uniE39B
ENCODING 58267
SWIDTH 1000 0
DWIDTH 16 0
BBX 13 10 1 1
BITMAP
0F80
1FC0
0600
0600
8D80
58C0
4860
20D0
1998
0F08
ENDCHAR
STARTCHAR uniE39C
ENCODING 58268
SWIDTH 1000 0
DWIDTH 16 0
BBX 8 11 4 0
BITMAP
7C
F0
30
12
7D
14
12
70
30
08
06
ENDCHAR
STARTCHAR uniE39D
ENCODING 58269
SWIDTH 1000 0
DWIDTH 16 0
BBX 9 11 4 0
BITMAP
7E00
EF00
C800
0900
3E80
0A00
0900
3800
1800
0400
0300
ENDCHAR
STARTCHAR uniE39E
ENCODING 58270
SWIDTH 1000 0
DWIDTH 16 0
BBX 9 13 4 -1
BITMAP
3800
4400
4400
C600
6600
0200
0200
0200
0200
0300
0100
0100
0080
ENDCHAR
STARTCHAR uniE39F
ENCODING 58271
SWIDTH 1000 0
DWIDTH 16 0
BBX 10 13 3 -1
BITMAP
3800
4400
4400
C600
6700
0280
02C0
0240
0200
0300
0100
0100
0080
ENDCHAR
STARTCHAR uniE3A0
ENCODING 58272
SWIDTH 1000 0
DWIDTH 16 0
BBX 12 10 2 1
BITMAP
0060
0FF0
1C60
1860
80C0
60C0
70C0
0D80
0380
0080
ENDCHAR
STARTCHAR uniE3A1
ENCODING 58273
SWIDTH 1000 0
DWIDTH 16 0
BBX 12 12 2 1
BITMAP
0380
0600
0160
0FF0
1C60
1860
80C0
60C0
70C0
0D80
0380
0080
ENDCHAR
STARTCHAR uniE3A2
ENCODING 58274
SWIDTH 1000 0
DWIDTH 16 0
BBX 10 10 3 1
BITMAP
3F80
77C0
6400
0600
8D80
58C0
4840
20C0
1980
0F00
ENDCHAR
STARTCHAR uniE3A3
ENCODING 58275
SWIDTH 1000 0
DWIDTH 16 0
BBX 13 10 2 1
BITMAP
3F80
77C0
6600
0600
8D80
58C0
4860
20D0
1998
0F08
ENDCHAR
STARTCHAR uniE3A4
ENCODING 58276
SWIDTH 1000 0
DWIDTH 16 0
BBX 11 13 3 -2
BITMAP
1F00
3F80
1C00
3E00
6D00
4C80
CC80
CC80
0C80
3C80
0840
0040
0020
ENDCHAR
STARTCHAR uniE3A5
ENCODING 58277
SWIDTH 1000 0
DWIDTH 16 0
BBX 14 13 1 -2
BITMAP
3FF8
63FC
1070
30F0
61B0
C130
2330
1330
31B0
20F0
0018
0008
0004
ENDCHAR
STARTCHAR uniE3A6
ENCODING 58278
SWIDTH 1000 0
DWIDTH 16 0
BBX 13 13 1 -2
BITMAP
3FF0
63F8
1060
3060
6060
C060
2060
1060
3020
2020
0030
0010
0008
ENDCHAR
STARTCHAR uniE3A7
ENCODING 58279
SWIDTH 1000 0
DWIDTH 16 0
BBX 12 13 2 -2
BITMAP
0060
04E0
7CC0
F4C0
24C0
24C0
1FC0
06C0
00C0
0040
0060
0020
0010
ENDCHAR
STARTCHAR uniE3A8
ENCODING 58280
SWIDTH 1000 0
DWIDTH 16 0
BBX 13 13 2 -2
BITMAP
03E0
3FF0
7CC0
18C0
1040
2020
6018
C000
3000
0800
0400
0200
0200
ENDCHAR
STARTCHAR uniE3A9
ENCODING 58281
SWIDTH 1000 0
DWIDTH 16 0
BBX 9 12 4 -1
BITMAP
3E00
7F00
0C00
3400
E400
6600
1600
0E00
0200
0200
0100
0080
ENDCHAR
STARTCHAR uniE3AA
ENCODING 58282
SWIDTH 1000 0
DWIDTH 16 0
BBX 10 12 3 -1
BITMAP
3F00
7F80
0C00
7F80
CCC0
DCC0
6F80
0C00
0400
0600
0200
0100
ENDCHAR
STARTCHAR uniE3AB
ENCODING 58283
SWIDTH 1000 0
DWIDTH 16 0
BBX 13 13 2 -2
BITMAP
03E0
3FF0
7CC0
18C0
1440
2220
6118
C080
3080
0800
0400
0200
0200
ENDCHAR
STARTCHAR uniE3AC
ENCODING 58284
SWIDTH 1000 0
DWIDTH 16 0
BBX 8 12 5 -1
BITMAP
7C
F0
30
12
1D
14
12
10
70
30
08
06
ENDCHAR
STARTCHAR uniE3AD
ENCODING 58285
SWIDTH 1000 0
DWIDTH 16 0
BBX 9 11 4 0
BITMAP
7E00
EF00
C800
0900
0E80
0A00
0900
3800
1800
0400
0300
ENDCHAR
STARTCHAR uniE3AE
ENCODING 58286
SWIDTH 1000 0
DWIDTH 16 0
BBX 12 10 2 1
BITMAP
0440
1EE0
3980
6180
6080
C040
C030
C000
6180
3F00
ENDCHAR
STARTCHAR uniE3AF
ENCODING 58287
SWIDTH 1000 0
DWIDTH 16 0
BBX 10 10 3 1
BITMAP
0400
1E00
3B00
6180
6080
C0C0
C0C0
C0C0
6180
3F00
ENDCHAR
STARTCHAR uniE3B0
ENCODING 58288
SWIDTH 1000 0
DWIDTH 16 0
BBX 7 11 5 0
BITMAP
7C
F0
30
50
D0
90
10
70
30
08
06
ENDCHAR
STARTCHAR uniE3B1
ENCODING 58289
SWIDTH 1000 0
DWIDTH 16 0
BBX 8 9 3 2
BITMAP
1F
3C
0C
18
1E
B1
63
10
08
ENDCHAR
STARTCHAR uniE3B2
ENCODING 58290
SWIDTH 1000 0
DWIDTH 16 0
BBX 9 10 4 1
BITMAP
0C00
7600
B200
9200
9200
9200
9300
0100
0100
0080
ENDCHAR
STARTCHAR uniE3B3
ENCODING 58291
SWIDTH 1000 0
DWIDTH 16 0
BBX 6 11 5 0
BITMAP
7C
F0
30
50
D0
90
10
10
30
20
20
ENDCHAR
STARTCHAR uniE3B4
ENCODING 58292
SWIDTH 1000 0
DWIDTH 16 0
BBX 11 12 3 -1
BITMAP
0080
39C0
4D80
DD80
C180
4D80
3380
0180
0080
00C0
0040
0020
ENDCHAR
STARTCHAR uniE3B5
ENCODING 58293
SWIDTH 1000 0
DWIDTH 16 0
BBX 9 13 2 -2
BITMAP
3F00
7F80
1800
1000
2100
6380
C300
3600
0E00
0600
0200
0300
0080
ENDCHAR
STARTCHAR uniE3B6
ENCODING 58294
SWIDTH 1000 0
DWIDTH 16 0
BBX 9 13 5 -1
BITMAP
0200
3700
7E00
C600
C600
C600
C600
6600
3E00
0200
0300
0100
0080
ENDCHAR
STARTCHAR uniE3B7
ENCODING 58295
SWIDTH 1000 0
DWIDTH 16 0
BBX 10 12 3 -1
BITMAP
0FC0
3E00
0E00
0E00
5B00
9B00
7300
0300
0300
0300
0100
0080
ENDCHAR
STARTCHAR uniE3B8
ENCODING 58296
SWIDTH 1000 0
DWIDTH 16 0
BBX 11 13 3 -2
BITMAP
00C0
01C0
7980
F180
6180
2180
3F80
1980
0080
0080
00C0
0040
0020
ENDCHAR
STARTCHAR uniE3B9
ENCODING 58297
SWIDTH 1000 0
DWIDTH 16 0
BBX 8 9 4 2
BITMAP
1F
3C
18
30
6E
D9
7B
18
08
ENDCHAR
STARTCHAR uniE3BA
ENCODING 58298
SWIDTH 1000 0
DWIDTH 16 0
BBX 8 13 4 -2
BITMAP
3F
7C
0C
1C
6C
4C
CC
FC
6C
0C
06
02
01
ENDCHAR
STARTCHAR uniE3BB
ENCODING 58299
SWIDTH 1000 0
DWIDTH 16 0
BBX 9 12 4 -1
BITMAP
3E00
7800
3000
3E00
5B00
9B00
0B00
0300
0300
0300
0100
0080
ENDCHAR
STARTCHAR uniE3BC
ENCODING 58300
SWIDTH 1000 0
DWIDTH 16 0
BBX 11 13 3 -2
BITMAP
78C0
F1C0
6180
2180
1180
1180
3180
7F80
C180
8080
00C0
0040
0020
ENDCHAR
STARTCHAR uniE3BD
ENCODING 58301
SWIDTH 1000 0
DWIDTH 16 0
BBX 12 13 2 -2
BITMAP
3C60
78E0
30C0
10C0
70C0
F0C0
80C0
8EC0
71C0
0040
0060
0020
0010
ENDCHAR
STARTCHAR uniE3BE
ENCODING 58302
SWIDTH 1000 0
DWIDTH 16 0
BBX 7 12 5 -1
BITMAP
7C
F0
30
10
10
10
10
10
70
30
08
06
ENDCHAR
STARTCHAR uniE3BF
ENCODING 58303
SWIDTH 1000 0
DWIDTH 16 0
BBX 13 13 1 -2
BITMAP
07C0
0F00
0300
0100
0100
7100
D900
DF00
C300
7000
1F00
01F0
0018
ENDCHAR
STARTCHAR uniE3C0
ENCODING 58304
SWIDTH 1000 0
DWIDTH 16 0
BBX 8 11 4 0
BITMAP
3E
78
18
68
C8
C8
C8
48
38
04
03
ENDCHAR
STARTCHAR uniE3C1
ENCODING 58305
SWIDTH 1000 0
DWIDTH 16 0
BBX 12 13 2 -2
BITMAP
1C00
3600
2200
2260
23F0
47C0
CCC0
20C0
20C0
4040
0040
0020
0010
ENDCHAR
STARTCHAR uniE3C2
ENCODING 58306
SWIDTH 1000 0
DWIDTH 16 0
BBX 10 10 3 1
BITMAP
7C80
F1C0
3180
3780
1380
0F80
0180
0180
0080
0040
ENDCHAR
STARTCHAR uniE3C3
ENCODING 58307
SWIDTH 1000 0
DWIDTH 16 0
BBX 12 12 2 -1
BITMAP
1C40
78E0
18C0
18C0
30C0
FEC0
11C0
10C0
00C0
0060
0020
0010
ENDCHAR
STARTCHAR uniE3C4
ENCODING 58308
SWIDTH 1000 0
DWIDTH 16 0
BBX 11 12 3 -1
BITMAP
1F00
3C00
1800
3000
6F00
D980
7980
1980
0980
0080
0080
0060
ENDCHAR
STARTCHAR uniE3C5
ENCODING 58309
SWIDTH 0 0
DWIDTH 0 0
BBX 3 10 -3 2
BITMAP
20
40
C0
C0
C0
C0
C0
40
40
20
ENDCHAR
STARTCHAR uniE3C6
ENCODING 58310
SWIDTH 0 0
DWIDTH 0 0
BBX 4 14 -15 0
BITMAP
C0
E0
D0
C0
C0
C0
C0
C0
C0
C0
C0
C0
40
20
ENDCHAR
STARTCHAR uniE3C7
ENCODING 58311
SWIDTH 0 0
DWIDTH 0 0
BBX 6 16 -6 0
BITMAP
70
D0
98
18
18
18
18
18
18
18
18
18
18
18
18
0C
ENDCHAR
STARTCHAR uniE3C8
ENCODING 58312
SWIDTH 0 0
DWIDTH 0 0
BBX 8 5 -12 0
BITMAP
06
8B
E3
3B
0E
ENDCHAR
STARTCHAR uniE3C9
ENCODING 58313
SWIDTH 0 0
DWIDTH 0 0
BBX 11 5 -13 0
BITMAP
0600
0300
F300
1BC0
0E60
ENDCHAR
STARTCHAR uniE3CA
ENCODING 58314
SWIDTH 0 0
DWIDTH 0 0
BBX 6 6 -11 0
BITMAP
30
18
78
C0
F0
1C
ENDCHAR
STARTCHAR uniE3CB
ENCODING 58315
SWIDTH 0 0
DWIDTH 0 0
BBX 6 9 -11 0
BITMAP
10
18
38
E0
C0
7C
C0
E0
7C
ENDCHAR
STARTCHAR uniE3CC
ENCODING 58316
SWIDTH 0 0
DWIDTH 0 0
BBX 4 4 -16 10
BITMAP
70
C0
C0
60
ENDCHAR
STARTCHAR uniE3CD
ENCODING 58317
SWIDTH 0 0
DWIDTH 0 0
BBX 8 5 -16 10
BITMAP
0E
1B
FB
C0
60
ENDCHAR
STARTCHAR uniE3CE
ENCODING 58318
SWIDTH 0 0
DWIDTH 0 0
BBX 14 9 -15 6
BITMAP
F000
C018
C018
0018
0018
0018
0018
0018
0004
ENDCHAR
STARTCHAR uniE3CF
ENCODING 58319
SWIDTH 0 0
DWIDTH 0 0
BBX 15 10 -16 5
BITMAP
0F00
7B00
DB04
C00C
E00C
000C
000C
000C
000C
0002
ENDCHAR
STARTCHAR uniE3D0
ENCODING 58320
SWIDTH 0 0
DWIDTH 0 0
BBX 5 5 -11 11
BITMAP
20
70
20
88
70
ENDCHAR
STARTCHAR uniE3D1
ENCODING 58321
SWIDTH 0 0
DWIDTH 0 0
BBX 2 2 -9 13
BITMAP
C0
C0
ENDCHAR
STARTCHAR uniE3D2
ENCODING 58322
SWIDTH 0 0
DWIDTH 0 0
BBX 2 6 -3 5
BITMAP
C0
C0
00
00
C0
C0
ENDCHAR
STARTCHAR uniE3D3
ENCODING 58323
SWIDTH 0 0
DWIDTH 0 0
BBX 7 3 -12 0
BITMAP
70
FE
0C
ENDCHAR
STARTCHAR uniE3D4
ENCODING 58324
SWIDTH 0 0
DWIDTH 0 0
BBX 2 2 -9 0
BITMAP
C0
C0
ENDCHAR
STARTCHAR uniE3D5
ENCODING 58325
SWIDTH 0 0
DWIDTH 0 0
BBX 14 6 -15 5
BITMAP
0038
0044
0044
F824
0784
0078
ENDCHAR
STARTCHAR uniE3D6
ENCODING 58326
SWIDTH 0 0
DWIDTH 0 0
BBX 4 7 -10 4
BITMAP
40
40
40
40
C0
20
10
ENDCHAR
STARTCHAR uniE3D7
ENCODING 58327
SWIDTH 0 0
DWIDTH 0 0
BBX 6 9 -11 4
BITMAP
40
44
44
88
C8
28
08
08
04
ENDCHAR
STARTCHAR uniE3D8
ENCODING 58328
SWIDTH 0 0
DWIDTH 0 0
BBX 2 2 -9 9
BITMAP
80
40
ENDCHAR
STARTCHAR uniE3D9
ENCODING 58329
SWIDTH 1000 0
DWIDTH 16 0
BBX 3 10 6 1
BITMAP
C0
60
60
60
60
60
60
60
20
20
ENDCHAR
STARTCHAR uniE3DA
ENCODING 58330
SWIDTH 1000 0
DWIDTH 16 0
BBX 7 7 5 2
BITMAP
78
CC
C4
4C
18
7C
C6
ENDCHAR
STARTCHAR uniE3DB
ENCODING 58331
SWIDTH 1000 0
DWIDTH 16 0
BBX 11 13 2 -1
BITMAP
0800
0400
0600
DFC0
7660
7660
2660
27C0
0680
0600
0300
0180
0200
ENDCHAR
STARTCHAR uniE3DC
ENCODING 58332
SWIDTH 1000 0
DWIDTH 16 0
BBX 9 9 4 2
BITMAP
FE00
6300
0300
0600
7E00
C000
C000
E000
3F80
ENDCHAR
STARTCHAR uniE3DD
ENCODING 58333
SWIDTH 1000 0
DWIDTH 16 0
BBX 8 8 4 2
BITMAP
24
24
A5
24
24
A5
24
24
ENDCHAR
STARTCHAR uniE3DE
ENCODING 58334
SWIDTH 1000 0
DWIDTH 16 0
BBX 15 15 0 -2
BITMAP
2548
654C
E54E
1390
0820
E44E
1390
F29E
1390
E44E
0820
1390
E54E
654C
2548
ENDCHAR
STARTCHAR uniE3DF
ENCODING 58335
SWIDTH 1000 0
DWIDTH 16 0
BBX 15 15 0 -2
BITMAP
2008
654C
E44E
1390
0820
644C
1390
5294
1390
644C
0820
1390
E44E
654C
2008
ENDCHAR
STARTCHAR uniE3E0
ENCODING 58336
SWIDTH 1000 0
DWIDTH 16 0
BBX 13 13 1 -1
BITMAP
8A88
4890
2720
1040
C898
2720
A528
2720
C898
1040
2720
4890
8A88
ENDCHAR
STARTCHAR uniE3E1
ENCODING 58337
SWIDTH 1000 0
DWIDTH 16 0
BBX 15 15 0 -2
BITMAP
0100
4444
2388
1450
0BA0
5454
2BA8
AAAA
2BA8
5454
0BA0
1450
2388
4444
0100
ENDCHAR
STARTCHAR uniE3E2
ENCODING 58338
SWIDTH 1000 0
DWIDTH 16 0
BBX 15 15 0 -2
BITMAP
0100
4444
2388
17D0
0FE0
5C74
3BB8
BABA
3BB8
5C74
0FE0
17D0
2388
4444
0100
ENDCHAR
STARTCHAR uniE3E3
ENCODING 58339
SWIDTH 1000 0
DWIDTH 16 0
BBX 9 9 3 1
BITMAP
3E00
4100
9C80
A280
A280
A280
9C80
4100
3E00
ENDCHAR
STARTCHAR uniE3E4
ENCODING 58340
SWIDTH 1000 0
DWIDTH 16 0
BBX 15 15 0 -2
BITMAP
8002
4004
2008
17D0
0820
1390
1450
1450
1450
1390
0820
17D0
2008
4004
8002
ENDCHAR
STARTCHAR uniE3E5
ENCODING 58341
SWIDTH 1000 0
DWIDTH 16 0
BBX 7 13 4 0
BITMAP
10
00
38
82
7C
10
28
10
7C
82
38
00
10
ENDCHAR
STARTCHAR uniE3E6
ENCODING 58342
SWIDTH 1000 0
DWIDTH 16 0
BBX 7 13 4 0
BITMAP
10
00
BA
FE
7C
10
28
10
7C
FE
BA
00
10
ENDCHAR
STARTCHAR uniE3E7
ENCODING 58343
SWIDTH 1000 0
DWIDTH 16 0
BBX 11 13 2 0
BITMAP
0400
0000
2E80
BFA0
7FC0
0400
0A00
0400
7FC0
BFA0
2E80
0000
0400
ENDCHAR
STARTCHAR uniE3E8
ENCODING 58344
SWIDTH 1000 0
DWIDTH 16 0
BBX 11 13 2 0
BITMAP
0400
5140
3F80
BFA0
7FC0
0400
0A00
0400
7FC0
BFA0
3F80
5140
0400
ENDCHAR
STARTCHAR uniE3E9
ENCODING 58345
SWIDTH 1000 0
DWIDTH 16 0
BBX 14 14 1 -2
BITMAP
8304
4488
2490
1320
0840
6318
94A4
94A4
6318
0840
1320
2490
4488
8304
ENDCHAR
STARTCHAR uniE3EA
ENCODING 58346
SWIDTH 1000 0
DWIDTH 16 0
BBX 14 14 1 -2
BITMAP
1320
14A0
14A0
1320
0FC0
6318
94A4
94A4
6318
0FC0
1320
14A0
14A0
1320
ENDCHAR
STARTCHAR uniE3EB
ENCODING 58347
SWIDTH 1000 0
DWIDTH 16 0
BBX 14 14 1 -2
BITMAP
1320
14A0
14A0
F33C
0FC0
6B58
9CE4
9CE4
6B58
0FC0
F33C
14A0
14A0
1320
ENDCHAR
STARTCHAR uniE3EC
ENCODING 58348
SWIDTH 1000 0
DWIDTH 16 0
BBX 10 9 3 1
BITMAP
0C00
1200
1200
0C00
0000
6180
9240
9240
6180
ENDCHAR
STARTCHAR uniE3ED
ENCODING 58349
SWIDTH 1000 0
DWIDTH 16 0
BBX 11 12 2 -2
BITMAP
1F00
0400
64C0
9520
9520
64C0
0400
0E00
9100
4100
2200
1C00
ENDCHAR
STARTCHAR uniE3EE
ENCODING 58350
SWIDTH 1000 0
DWIDTH 16 0
BBX 11 12 2 -2
BITMAP
1F00
0400
64C0
9520
9520
64C0
0400
1400
0C00
0200
0100
0080
ENDCHAR
STARTCHAR uniE3EF
ENCODING 58351
SWIDTH 1000 0
DWIDTH 16 0
BBX 8 12 2 -2
BITMAP
1F
04
04
04
18
20
20
1E
81
41
22
1C
ENDCHAR
STARTCHAR uniE3F0
ENCODING 58352
SWIDTH 0 0
DWIDTH 0 0
BBX 5 4 5 -2
BITMAP
E0
60
20
18
ENDCHAR
STARTCHAR uniE3F1
ENCODING 58353
SWIDTH 0 0
DWIDTH 0 0
BBX 10 4 3 -2
BITMAP
7000
8C00
8300
60C0
ENDCHAR
STARTCHAR uniE3FA
ENCODING 58362
SWIDTH 1000 0
DWIDTH 16 0
BBX 13 16 2 -2
BITMAP
FFF8
8008
8208
8388
8E08
83C8
9E48
9288
8F88
8608
8B08
92C8
A228
8208
8008
FFF8
ENDCHAR
STARTCHAR uniE3FB
ENCODING 58363
SWIDTH 1000 0
DWIDTH 16 0
BBX 13 16 2 -2
BITMAP
FFF8
8008
8208
8288
8F08
8408
84E8
BB28
A628
A428
AF28
A428
8068
8008
8008
FFF8
ENDCHAR
STARTCHAR uniE3FC
ENCODING 58364
SWIDTH 1000 0
DWIDTH 16 0
BBX 13 16 2 -2
BITMAP
FFF8
8008
8188
8F08
8508
8508
87E8
BD28
A528
B8E8
A028
A3E8
BC28
8008
8008
FFF8
ENDCHAR
STARTCHAR uniE3FD
ENCODING 58365
SWIDTH 1000 0
DWIDTH 16 0
BBX 12 16 2 -2
BITMAP
FFF0
8010
8010
8210
8A10
8A10
8AD0
BB10
8A10
8A10
8A10
9A50
A190
8010
8010
FFF0
ENDCHAR
STARTCHAR uniE3FE
ENCODING 58366
SWIDTH 1000 0
DWIDTH 16 0
BBX 13 16 2 -2
BITMAP
FFF8
8008
8208
8208
8208
BFE8
9248
9248
9F88
8208
8208
8208
8208
8208
8008
FFF8
ENDCHAR
STARTCHAR uniE3FF
ENCODING 58367
SWIDTH 1000 0
DWIDTH 16 0
BBX 13 16 2 -2
BITMAP
FFF8
8008
8208
BE88
8908
9088
AFC8
8A88
BA48
A008
BBC8
8948
A888
9348
8008
FFF8
ENDCHAR
STARTCHAR uniE400
ENCODING 58368
SWIDTH 1000 0
DWIDTH 16 0
BBX 13 16 2 -2
BITMAP
FFF8
8008
BFE8
A028
A028
A028
A028
A028
A028
A028
A028
A028
A028
BFE8
8008
FFF8
ENDCHAR
STARTCHAR uniE401
ENCODING 58369
SWIDTH 1000 0
DWIDTH 16 0
BBX 13 16 2 -2
BITMAP
FFF8
8008
8008
8008
8008
8008
8008
87E8
B808
8008
8008
8008
8008
8008
8008
FFF8
ENDCHAR
STARTCHAR uniE402
ENCODING 58370
SWIDTH 1000 0
DWIDTH 16 0
BBX 13 16 2 -2
BITMAP
FFF8
8008
8008
8008
8008
8F88
8008
8008
8008
81E8
BE08
8008
8008
8008
8008
FFF8
ENDCHAR
STARTCHAR uniE403
ENCODING 58371
SWIDTH 1000 0
DWIDTH 16 0
BBX 13 16 2 -2
BITMAP
FFF8
8008
8008
8008
8F88
8008
8008
8F88
8008
8008
83E8
BC08
8008
8008
8008
FFF8
ENDCHAR
STARTCHAR uniE404
ENCODING 58372
SWIDTH 1000 0
DWIDTH 16 0
BBX 13 16 2 -2
BITMAP
FFF8
8008
8008
8008
8008
87E8
BD28
A528
B8E8
A028
A3E8
BC28
8008
8008
8008
FFF8
ENDCHAR
STARTCHAR uniE405
ENCODING 58373
SWIDTH 1000 0
DWIDTH 16 0
BBX 13 16 2 -2
BITMAP
FFF8
8008
8008
8808
89C8
9308
B108
97C8
9248
9248
9FE8
9008
8008
8008
8008
FFF8
ENDCHAR
STARTCHAR uniE406
ENCODING 58374
SWIDTH 1000 0
DWIDTH 16 0
BBX 12 16 2 -2
BITMAP
FFF0
8010
8010
8010
8410
8210
8010
83D0
BC10
8110
8890
9050
8010
8010
8010
FFF0
ENDCHAR
STARTCHAR uniE407
ENCODING 58375
SWIDTH 1000 0
DWIDTH 16 0
BBX 13 16 2 -2
BITMAP
FFF8
8008
8008
8008
8408
8488
8708
9C08
8408
8448
8388
8008
8008
8008
8008
FFF8
ENDCHAR
STARTCHAR uniE408
ENCODING 58376
SWIDTH 1000 0
DWIDTH 16 0
BBX 13 16 2 -2
BITMAP
FFF8
8008
8008
8008
8008
8408
8208
8A08
8908
9088
A068
8008
8008
8008
8008
FFF8
ENDCHAR
STARTCHAR uniE409
ENCODING 58377
SWIDTH 1000 0
DWIDTH 16 0
BBX 13 16 2 -2
BITMAP
FFF8
8008
8008
8008
8408
8588
8E88
B488
8508
8928
B0C8
8008
8008
8008
8008
FFF8
ENDCHAR
STARTCHAR uniE40A
ENCODING 58378
SWIDTH 1000 0
DWIDTH 16 0
BBX 13 16 2 -2
BITMAP
FFF8
8008
8008
8008
8008
8028
8C68
96E8
B1C8
8C48
8388
8708
8088
8008
8008
FFF8
ENDCHAR
STARTCHAR uniE40B
ENCODING 58379
SWIDTH 1000 0
DWIDTH 16 0
BBX 13 16 2 -2
BITMAP
FFF8
8008
8008
8208
8208
8208
8208
8008
8008
8208
8208
8208
8208
8008
8008
FFF8
ENDCHAR
STARTCHAR uniE40C
ENCODING 58380
SWIDTH 1000 0
DWIDTH 16 0
BBX 13 16 2 -2
BITMAP
FFF8
8008
8008
8208
8208
8208
8208
8008
8008
9048
9048
9048
9048
8008
8008
FFF8
ENDCHAR
STARTCHAR uniE40D
ENCODING 58381
SWIDTH 1000 0
DWIDTH 16 0
BBX 12 16 2 -2
BITMAP
FFF0
8010
8010
9090
9090
9090
9090
8010
8010
9090
9090
9090
9090
8010
8010
FFF0
ENDCHAR
STARTCHAR uniE40E
ENCODING 58382
SWIDTH 1000 0
DWIDTH 16 0
BBX 13 16 2 -2
BITMAP
FFF8
8008
8008
9048
9048
9048
9248
8208
8208
9248
9048
9048
9048
8008
8008
FFF8
ENDCHAR
STARTCHAR uniE40F
ENCODING 58383
SWIDTH 1000 0
DWIDTH 16 0
BBX 13 16 2 -2
BITMAP
FFF8
8008
8008
9248
9248
9248
9248
8008
8008
9248
9248
9248
9248
8008
8008
FFF8
ENDCHAR
STARTCHAR uniE410
ENCODING 58384
SWIDTH 1000 0
DWIDTH 16 0
BBX 13 16 2 -2
BITMAP
FFF8
8008
8008
8208
8208
8208
8008
9248
9248
9248
8008
9248
9248
9248
8008
FFF8
ENDCHAR
STARTCHAR uniE411
ENCODING 58385
SWIDTH 1000 0
DWIDTH 16 0
BBX 13 16 2 -2
BITMAP
FFF8
8008
9048
9248
9548
98C8
9048
8008
8008
9048
98C8
9548
9248
9048
8008
FFF8
ENDCHAR
STARTCHAR uniE412
ENCODING 58386
SWIDTH 1000 0
DWIDTH 16 0
BBX 13 16 2 -2
BITMAP
FFF8
8008
8008
9248
9248
9248
8008
9248
9248
9248
8008
9248
9248
9248
8008
FFF8
ENDCHAR
STARTCHAR uniE413
ENCODING 58387
SWIDTH 1000 0
DWIDTH 16 0
BBX 13 16 2 -2
BITMAP
FFF8
8008
8008
8008
8F88
9548
A728
B8E8
AAA8
B8E8
A728
9548
8F88
8008
8008
FFF8
ENDCHAR
STARTCHAR uniE414
ENCODING 58388
SWIDTH 1000 0
DWIDTH 16 0
BBX 13 16 2 -2
BITMAP
FFF8
8008
8708
8A88
9748
9DC8
9748
8A88
8708
8A88
9748
9DC8
9748
8A88
8708
FFF8
ENDCHAR
STARTCHAR uniE415
ENCODING 58389
SWIDTH 1000 0
DWIDTH 16 0
BBX 13 16 2 -2
BITMAP
FFF8
8008
9808
A408
A408
9808
8608
8908
8908
8608
8188
8248
8248
8188
8008
FFF8
ENDCHAR
STARTCHAR uniE416
ENCODING 58390
SWIDTH 1000 0
DWIDTH 16 0
BBX 13 16 2 -2
BITMAP
FFF8
8008
8008
8008
98C8
A528
A528
98C8
8008
98C8
A528
A528
98C8
8008
8008
FFF8
ENDCHAR
STARTCHAR uniE417
ENCODING 58391
SWIDTH 1000 0
DWIDTH 16 0
BBX 13 16 2 -2
BITMAP
FFF8
8008
98C8
A528
A528
98C8
8608
8908
8908
8608
98C8
A528
A528
98C8
8008
FFF8
ENDCHAR
STARTCHAR uniE418
ENCODING 58392
SWIDTH 1000 0
DWIDTH 16 0
BBX 13 16 2 -2
BITMAP
FFF8
8008
98C8
A528
A528
98C8
98C8
A528
A528
98C8
98C8
A528
A528
98C8
8008
FFF8
ENDCHAR
STARTCHAR uniE419
ENCODING 58393
SWIDTH 1000 0
DWIDTH 16 0
BBX 13 16 2 -2
BITMAP
FFF8
9808
A408
A708
9C88
84E8
8398
9998
A668
A648
9988
9988
A648
A648
9988
FFF8
ENDCHAR
STARTCHAR uniE41A
ENCODING 58394
SWIDTH 1000 0
DWIDTH 16 0
BBX 13 16 2 -2
BITMAP
FFF8
98C8
A528
A528
98C8
A528
A528
98C8
A528
A528
98C8
A528
A528
98C8
8008
FFF8
ENDCHAR
STARTCHAR uniE41B
ENCODING 58395
SWIDTH 1000 0
DWIDTH 16 0
BBX 13 16 2 -2
BITMAP
FFF8
8008
B6C8
C928
C928
B6C8
B6C8
C928
C928
B6C8
B6C8
C928
C928
B6C8
8008
FFF8
ENDCHAR
STARTCHAR uniE41C
ENCODING 58396
SWIDTH 1000 0
DWIDTH 16 0
BBX 13 16 2 -2
BITMAP
FFF8
8008
8108
89E8
8A08
89C8
BD28
89F8
9FA8
9968
ABF8
8848
88C8
8008
8008
FFF8
ENDCHAR
STARTCHAR uniE41D
ENCODING 58397
SWIDTH 1000 0
DWIDTH 16 0
BBX 13 16 2 -2
BITMAP
FFF8
8008
8888
BFE8
8508
98E8
AAA8
BAE8
A728
AAA8
AFA8
A328
A6E8
AA48
8008
FFF8
ENDCHAR
STARTCHAR uniE41E
ENCODING 58398
SWIDTH 1000 0
DWIDTH 16 0
BBX 13 16 2 -2
BITMAP
FFF8
8008
8088
8888
8888
91E8
9F48
A948
8A48
8848
8848
8848
88C8
8008
8008
FFF8
ENDCHAR
STARTCHAR uniE41F
ENCODING 58399
SWIDTH 1000 0
DWIDTH 16 0
BBX 13 16 2 -2
BITMAP
FFF8
8008
8008
8888
BFE8
8508
91E8
9E28
AAA8
8728
BFA8
8628
8AC8
B248
8008
FFF8
ENDCHAR
STARTCHAR uniE420
ENCODING 58400
SWIDTH 1000 0
DWIDTH 16 0
BBX 13 16 2 -2
BITMAP
FFF8
8008
8208
82C8
9F08
82C8
8F08
82C8
BF08
8C88
97C8
A4B8
8788
8488
8008
FFF8
ENDCHAR
STARTCHAR uniE421
ENCODING 58401
SWIDTH 1000 0
DWIDTH 16 0
BBX 13 16 2 -2
BITMAP
FFF8
8008
81E8
BE08
8408
8FC8
8888
8E88
8F88
8808
9F88
AD08
C608
99E8
8008
FFF8
ENDCHAR
STARTCHAR uniE422
ENCODING 58402
SWIDTH 1000 0
DWIDTH 16 0
BBX 13 16 2 -2
BITMAP
FFF8
8008
8008
8488
9888
8CA8
BAA8
88C8
9C88
9888
A948
AA48
8C28
8008
8008
FFF8
ENDCHAR
STARTCHAR uniE423
ENCODING 58403
SWIDTH 1000 0
DWIDTH 16 0
BBX 13 16 2 -2
BITMAP
FFF8
8008
8008
8408
8788
8488
8B08
8208
8508
8AC8
B138
8608
8108
8008
8008
FFF8
ENDCHAR
STARTCHAR uniE424
ENCODING 58404
SWIDTH 1000 0
DWIDTH 16 0
BBX 13 16 2 -2
BITMAP
FFF8
8008
9FC8
8208
8F88
8A88
8F88
8008
9148
93E8
B888
91C8
BB68
91C8
8008
FFF8
ENDCHAR
STARTCHAR uniE425
ENCODING 58405
SWIDTH 1000 0
DWIDTH 16 0
BBX 13 16 2 -2
BITMAP
FFF8
AAA8
D558
AAA8
D558
AAA8
D558
AAA8
D558
AAA8
D558
AAA8
D558
AAA8
D558
FFF8
ENDCHAR
STARTCHAR uniE426
ENCODING 58406
SWIDTH 1000 0
DWIDTH 16 0
BBX 10 12 3 0
BITMAP
BC00
8800
BC00
8800
9800
AC00
1080
0440
0F00
0500
0500
0B00
ENDCHAR
STARTCHAR uniE427
ENCODING 58407
SWIDTH 1000 0
DWIDTH 16 0
BBX 14 14 1 -1
BITMAP
FFFC
8004
8004
8004
BCF4
8414
8414
8414
8414
BCF4
8004
8004
8004
FFFC
ENDCHAR
STARTCHAR uniE428
ENCODING 58408
SWIDTH 1000 0
DWIDTH 16 0
BBX 14 14 1 -1
BITMAP
FFFC
8004
8844
8844
9FE4
8844
8844
8844
8044
8084
8384
8604
8004
FFFC
ENDCHAR
STARTCHAR uniE429
ENCODING 58409
SWIDTH 1000 0
DWIDTH 16 0
BBX 16 16 0 -2
BITMAP
FFFF
8001
8001
80F1
9F01
8101
9FF1
8101
8101
BFF9
8101
8101
8301
8001
8001
FFFF
ENDCHAR
STARTCHAR uniE42A
ENCODING 58410
SWIDTH 1000 0
DWIDTH 16 0
BBX 16 16 0 -2
BITMAP
FFFF
8001
8101
BFF9
A009
A7C9
8081
8111
BFF9
8101
8101
8101
8701
8001
8001
FFFF
ENDCHAR
STARTCHAR uniE42B
ENCODING 58411
SWIDTH 1000 0
DWIDTH 16 0
BBX 16 16 0 -2
BITMAP
FFFF
8001
8001
BFF9
8291
9291
8A91
8451
8451
8A21
9161
A091
8109
8001
8001
FFFF
ENDCHAR
STARTCHAR uniE42C
ENCODING 58412
SWIDTH 1000 0
DWIDTH 16 0
BBX 14 14 1 -1
BITMAP
FFFC
8004
8054
8004
87C4
8004
9FE4
8104
8104
8104
8304
8C04
8004
FFFC
ENDCHAR
STARTCHAR uniE42D
ENCODING 58413
SWIDTH 1000 0
DWIDTH 16 0
BBX 16 16 0 -2
BITMAP
FFFF
8001
8001
8021
8FF1
8001
8001
8001
8001
8001
8011
9FF9
8001
8001
8001
FFFF
ENDCHAR
STARTCHAR uniE42E
ENCODING 58414
SWIDTH 1000 0
DWIDTH 16 0
BBX 16 16 0 -2
BITMAP
FFFF
8001
8101
83E1
8421
8A41
8181
8681
99F1
8211
8D21
80C1
9F01
8001
8001
FFFF
ENDCHAR
STARTCHAR uniE42F
ENCODING 58415
SWIDTH 1000 0
DWIDTH 16 0
BBX 16 16 0 -2
BITMAP
FFFF
8001
88F9
9E49
9489
BF31
95A1
9FF9
9521
9FF9
9521
9521
A321
8001
8001
FFFF
ENDCHAR
STARTCHAR uniE430
ENCODING 58416
SWIDTH 1000 0
DWIDTH 16 0
BBX 16 16 0 -2
BITMAP
FFFF
8011
BFF9
8101
8101
8121
9FF1
8101
8281
8281
8441
8821
B019
8001
8001
FFFF
ENDCHAR
STARTCHAR uniE431
ENCODING 58417
SWIDTH 1000 0
DWIDTH 16 0
BBX 16 16 0 -2
BITMAP
FFFF
8001
8101
8111
BFF9
8441
8821
9451
8441
8281
8101
86C1
9839
8001
8001
FFFF
ENDCHAR
STARTCHAR uniE432
ENCODING 58418
SWIDTH 1000 0
DWIDTH 16 0
BBX 16 16 0 -2
BITMAP
FFFF
8001
8041
BD51
A5F9
A551
BD51
A555
A7FD
BC41
A4A1
8111
8209
8001
8001
FFFF
ENDCHAR
STARTCHAR uniE433
ENCODING 58419
SWIDTH 1000 0
DWIDTH 16 0
BBX 16 16 0 -2
BITMAP
FFFF
8001
9001
9FF9
AAA1
8AA1
BFF9
8AA1
8AA1
BFF9
8491
9249
A249
8001
8001
FFFF
ENDCHAR
STARTCHAR uniE434
ENCODING 58420
SWIDTH 1000 0
DWIDTH 16 0
BBX 16 16 0 -2
BITMAP
FFFF
8001
8821
AB21
9CA1
8821
BF21
88A1
8C39
9BE1
A821
8821
8821
8001
8001
FFFF
ENDCHAR
STARTCHAR uniE435
ENCODING 58421
SWIDTH 1000 0
DWIDTH 16 0
BBX 16 16 0 -2
BITMAP
FFFF
8001
8421
8241
9FF9
8001
8F51
8951
8F51
8951
8F51
8911
8B71
8001
8001
FFFF
ENDCHAR
STARTCHAR uniE436
ENCODING 58422
SWIDTH 1000 0
DWIDTH 16 0
BBX 16 16 0 -2
BITMAP
FFFF
8001
8481
8911
90A1
A449
8BF9
9845
A8F1
8911
8AA1
8841
88A1
8B19
8001
FFFF
ENDCHAR
STARTCHAR uniE437
ENCODING 58423
SWIDTH 1000 0
DWIDTH 16 0
BBX 16 16 0 -2
BITMAP
FFFF
8001
BFF9
8101
8FE1
8921
8FE1
8921
8921
BFF9
8821
8821
8861
8001
8001
FFFF
ENDCHAR
STARTCHAR uniE438
ENCODING 58424
SWIDTH 1000 0
DWIDTH 16 0
BBX 16 16 0 -2
BITMAP
FFFF
8001
8419
BF61
8A41
8A41
BF79
8451
BF51
8451
9551
A491
8511
8001
8001
FFFF
ENDCHAR
STARTCHAR uniE439
ENCODING 58425
SWIDTH 1000 0
DWIDTH 16 0
BBX 16 16 0 -2
BITMAP
FFFF
8001
8801
88F9
BE49
8449
8849
9A49
AC49
8A49
8889
8909
8A31
8001
8001
FFFF
ENDCHAR
STARTCHAR uniE43A
ENCODING 58426
SWIDTH 1000 0
DWIDTH 16 0
BBX 16 16 0 -2
BITMAP
FFFF
8001
8441
8879
9089
AA51
8421
8A51
BE8D
8521
8C11
9641
9521
A411
8001
FFFF
ENDCHAR
STARTCHAR uniE43B
ENCODING 58427
SWIDTH 1000 0
DWIDTH 16 0
BBX 16 16 0 -2
BITMAP
FFFF
8001
8081
8881
8881
8FF9
9081
A081
87F1
8081
8081
8081
9FF9
8001
8001
FFFF
ENDCHAR
STARTCHAR uniE43C
ENCODING 58428
SWIDTH 1000 0
DWIDTH 16 0
BBX 16 16 0 -2
BITMAP
FFFF
8001
BC39
A5C1
BD01
A501
BDF9
A509
A591
BD51
8121
AA51
AA89
8001
8001
FFFF
ENDCHAR
STARTCHAR uniE43D
ENCODING 58429
SWIDTH 1000 0
DWIDTH 16 0
BBX 16 16 0 -2
BITMAP
FFFF
8001
8101
BFF9
8101
8FF1
8001
8FF1
8911
8FF1
8801
9001
A001
8001
8001
FFFF
ENDCHAR
STARTCHAR uniE43E
ENCODING 58430
SWIDTH 1000 0
DWIDTH 16 0
BBX 16 16 0 -2
BITMAP
FFFF
8001
8081
BC81
A4F9
A509
A651
A441
A441
BCA1
80A1
8111
8209
8001
8001
FFFF
ENDCHAR
STARTCHAR uniE43F
ENCODING 58431
SWIDTH 1000 0
DWIDTH 16 0
BBX 16 16 0 -2
BITMAP
FFFF
8001
9041
8BF9
8209
A7F9
9441
89F1
8951
B1F1
9151
91F1
9319
8001
8001
FFFF
ENDCHAR
STARTCHAR uniE440
ENCODING 58432
SWIDTH 1000 0
DWIDTH 16 0
BBX 16 16 0 -2
BITMAP
FFFF
8001
8891
8891
BE95
891D
8A01
8DF1
9911
A8A1
8841
88A1
BB19
8001
8001
FFFF
ENDCHAR
STARTCHAR uniE441
ENCODING 58433
SWIDTH 1000 0
DWIDTH 16 0
BBX 16 16 0 -2
BITMAP
FFFF
8001
8851
8849
BFF9
8841
8BF9
8E49
9BF9
AA49
8BF9
8A49
BA59
8001
8001
FFFF
ENDCHAR
STARTCHAR uniE442
ENCODING 58434
SWIDTH 1000 0
DWIDTH 16 0
BBX 16 16 0 -2
BITMAP
FFFF
8001
8001
8001
8001
8001
8011
BFF9
8001
8001
8001
8001
8001
8001
8001
FFFF
ENDCHAR
STARTCHAR uniE443
ENCODING 58435
SWIDTH 1000 0
DWIDTH 16 0
BBX 16 16 0 -2
BITMAP
FFFF
8001
8021
8FF1
8001
8001
8041
87E1
8001
8001
8001
8011
9FF9
8001
8001
FFFF
ENDCHAR
STARTCHAR uniE444
ENCODING 58436
SWIDTH 1000 0
DWIDTH 16 0
BBX 16 16 0 -2
BITMAP
FFFF
8001
9121
8939
8FC1
8239
BB91
8AF9
8A91
8A91
8DB1
9401
A3F9
8001
8001
FFFF
ENDCHAR
STARTCHAR uniE445
ENCODING 58437
SWIDTH 1000 0
DWIDTH 16 0
BBX 16 16 0 -2
BITMAP
FFFF
8001
8601
8211
BFF9
8201
8421
87F1
8881
8881
9081
A091
8FF9
8001
8001
FFFF
ENDCHAR
STARTCHAR uniE446
ENCODING 58438
SWIDTH 1000 0
DWIDTH 16 0
BBX 16 16 0 -2
BITMAP
FFFF
8001
8181
9111
9FF9
9111
9111
9111
9FF1
9111
8101
8101
8101
8001
8001
FFFF
ENDCHAR
STARTCHAR uniE447
ENCODING 58439
SWIDTH 1000 0
DWIDTH 16 0
BBX 16 16 0 -2
BITMAP
FFFF
8001
8101
8111
BFF9
8201
8421
87F1
8C21
9421
A421
87E1
8421
8001
8001
FFFF
ENDCHAR
STARTCHAR uniE448
ENCODING 58440
SWIDTH 1000 0
DWIDTH 16 0
BBX 16 16 0 -2
BITMAP
FFFF
8001
8881
8899
BEE1
8889
8AF9
8C01
98F9
A889
88F9
8889
B8F9
8001
8001
FFFF
ENDCHAR
STARTCHAR uniE449
ENCODING 58441
SWIDTH 1000 0
DWIDTH 16 0
BBX 16 16 0 -2
BITMAP
FFFF
8001
8121
9FF1
8101
8111
BFF9
8101
8D21
89F1
8901
9501
A3F9
8001
8001
FFFF
ENDCHAR
STARTCHAR uniE44A
ENCODING 58442
SWIDTH 1000 0
DWIDTH 16 0
BBX 16 16 0 -2
BITMAP
FFFF
8001
8409
84FD
9F11
8411
8511
8611
8C11
9411
8411
9451
8C31
8001
8001
FFFF
ENDCHAR
STARTCHAR uniE44B
ENCODING 58443
SWIDTH 1000 0
DWIDTH 16 0
BBX 16 16 0 -2
BITMAP
FFFF
8001
8821
BEF9
8821
9C71
AAA9
8001
9FF1
8001
BFF9
8921
9311
8001
8001
FFFF
ENDCHAR
STARTCHAR uniE44C
ENCODING 58444
SWIDTH 1000 0
DWIDTH 16 0
BBX 16 16 0 -2
BITMAP
FFFF
8001
8101
9FF9
9009
A241
8449
9879
8021
8FF1
8101
8111
9FF9
8001
8001
FFFF
ENDCHAR
STARTCHAR uniE44D
ENCODING 58445
SWIDTH 1000 0
DWIDTH 16 0
BBX 16 16 0 -2
BITMAP
FFFF
8001
9F01
8281
8441
88A1
B7D9
8821
8FF1
8821
8821
8FE1
8821
8001
8001
FFFF
ENDCHAR
STARTCHAR uniE44E
ENCODING 58446
SWIDTH 1000 0
DWIDTH 16 0
BBX 16 16 0 -2
BITMAP
FFFF
8001
A121
97F9
8121
A7F9
9081
87F9
9489
B6A9
97E9
9629
9419
8001
8001
FFFF
ENDCHAR
STARTCHAR uniE44F
ENCODING 58447
SWIDTH 1000 0
DWIDTH 16 0
BBX 16 16 0 -2
BITMAP
FFFF
8001
8211
BFF9
8401
87E1
8C21
97E1
A421
87E1
8421
8421
8461
8001
8001
FFFF
ENDCHAR
STARTCHAR uniE450
ENCODING 58448
SWIDTH 1000 0
DWIDTH 16 0
BBX 16 16 0 -2
BITMAP
FFFF
8001
8411
87F9
8411
87F1
8411
8411
87F1
8411
8411
8851
9031
8001
8001
FFFF
ENDCHAR
STARTCHAR uniE451
ENCODING 58449
SWIDTH 1000 0
DWIDTH 16 0
BBX 16 16 0 -2
BITMAP
FFFF
8001
8181
9111
9FF9
9111
9FF1
9111
9111
9FF1
9111
8101
8101
8001
8001
FFFF
ENDCHAR
STARTCHAR uniE452
ENCODING 58450
SWIDTH 1000 0
DWIDTH 16 0
BBX 16 16 0 -2
BITMAP
FFFF
8001
8409
BF89
A4A9
9F29
8429
9F29
8429
BFA9
9109
9109
9F39
8001
8001
FFFF
ENDCHAR
STARTCHAR uniE453
ENCODING 58451
SWIDTH 1000 0
DWIDTH 16 0
BBX 16 16 0 -2
BITMAP
FFFF
8001
8911
84A1
9FF9
9009
97E9
8421
87E1
8101
8FF1
8811
8FF1
8001
8001
FFFF
ENDCHAR
STARTCHAR uniE454
ENCODING 58452
SWIDTH 1000 0
DWIDTH 16 0
BBX 16 16 0 -2
BITMAP
FFFF
8001
BEF9
9409
9409
BE09
AAF9
B681
A281
BE81
A289
BE89
A2F9
8001
8001
FFFF
ENDCHAR
STARTCHAR uniE455
ENCODING 58453
SWIDTH 1000 0
DWIDTH 16 0
BBX 16 16 0 -2
BITMAP
2004
4002
8101
8101
BFF9
8101
8381
8441
8921
9111
A7CD
8101
8101
8101
4002
2004
ENDCHAR
STARTCHAR uniE456
ENCODING 58454
SWIDTH 1000 0
DWIDTH 16 0
BBX 16 16 0 -2
BITMAP
2004
4002
8021
8FF1
8001
8001
8041
87E1
8001
8001
8001
8011
9FF9
8001
4002
2004
ENDCHAR
STARTCHAR uniE457
ENCODING 58455
SWIDTH 1000 0
DWIDTH 16 0
BBX 16 16 0 -2
BITMAP
2004
4002
8001
8021
8FF1
8001
8001
8001
8001
8001
8011
9FF9
8001
8001
4002
2004
ENDCHAR
STARTCHAR uniE458
ENCODING 58456
SWIDTH 1000 0
DWIDTH 16 0
BBX 16 16 0 -2
BITMAP
2004
4002
8101
9FF9
9009
9209
8201
BFF9
8441
8E81
8101
82E1
9C19
8001
4002
2004
ENDCHAR
STARTCHAR uniE459
ENCODING 58457
SWIDTH 1000 0
DWIDTH 16 0
BBX 16 16 0 -2
BITMAP
2004
4102
8181
8121
81F1
8101
8FE1
8821
8821
8FE1
8001
9491
A249
8001
4002
2004
ENDCHAR
STARTCHAR uniE45A
ENCODING 58458
SWIDTH 1000 0
DWIDTH 16 0
BBX 16 16 0 -2
BITMAP
2004
4002
8811
89F9
BE21
8821
8A21
8C21
9821
A821
8821
8821
B8E1
8001
4002
2004
ENDCHAR
STARTCHAR uniE45B
ENCODING 58459
SWIDTH 1000 0
DWIDTH 16 0
BBX 16 16 0 -2
BITMAP
2004
4002
8101
9DF9
8049
8441
88A1
9319
8001
8FF1
8A51
8A51
9FF9
8001
4002
2004
ENDCHAR
STARTCHAR uniE45C
ENCODING 58460
SWIDTH 1000 0
DWIDTH 16 0
BBX 16 16 0 -2
BITMAP
2004
4002
BE49
A551
A7F9
BC81
A7F9
A491
BD49
A7F1
A491
A511
AE71
8001
4002
2004
ENDCHAR
STARTCHAR uniE45D
ENCODING 58461
SWIDTH 1000 0
DWIDTH 16 0
BBX 16 16 0 -2
BITMAP
2004
4002
9F41
9141
9F79
91D1
9F51
9151
9F51
9151
8A21
9151
A089
8001
4002
2004
ENDCHAR
STARTCHAR uniE45E
ENCODING 58462
SWIDTH 1000 0
DWIDTH 16 0
BBX 16 16 0 -2
BITMAP
07E0
1818
29F4
4912
51F2
A511
89F1
9801
A9F9
8821
8BF9
4922
4862
2004
1818
07E0
ENDCHAR
STARTCHAR uniE45F
ENCODING 58463
SWIDTH 1000 0
DWIDTH 16 0
BBX 16 16 0 -2
BITMAP
07E0
1818
2024
5FF2
4022
8F21
8921
8921
8F21
8921
8021
4022
40E2
2004
1818
07E0
ENDCHAR
STARTCHAR uniE460
ENCODING 58464
SWIDTH 1000 0
DWIDTH 16 0
BBX 10 10 3 0
BITMAP
3600
5100
9780
9440
07C0
F540
D7C0
5680
1500
1600
ENDCHAR
STARTCHAR uniE461
ENCODING 58465
SWIDTH 1000 0
DWIDTH 16 0
BBX 10 11 3 -1
BITMAP
1E00
2100
5E80
A940
FFC0
0000
FFC0
8A40
5C80
2900
1E00
ENDCHAR
STARTCHAR uniE462
ENCODING 58466
SWIDTH 1000 0
DWIDTH 16 0
BBX 10 10 3 0
BITMAP
1E00
2500
4A80
BF40
A940
DEC0
8840
5E80
5500
3600
ENDCHAR
STARTCHAR uniE463
ENCODING 58467
SWIDTH 1000 0
DWIDTH 16 0
BBX 10 10 3 0
BITMAP
0C00
2D00
5680
AD80
DF40
FDC0
BF40
5580
5E80
3D00
ENDCHAR
STARTCHAR uniE464
ENCODING 58468
SWIDTH 1000 0
DWIDTH 16 0
BBX 10 10 3 0
BITMAP
1E00
3300
7F80
0C00
FFC0
5280
FFC0
7380
4C80
3F00
ENDCHAR
STARTCHAR uniE465
ENCODING 58469
SWIDTH 1000 0
DWIDTH 16 0
BBX 10 10 3 0
BITMAP
3E00
5500
B680
AAC0
EBC0
8A80
EB40
A280
7B00
2E00
ENDCHAR
STARTCHAR uniE466
ENCODING 58470
SWIDTH 1000 0
DWIDTH 16 0
BBX 16 15 0 -1
BITMAP
0180
0E70
3008
4424
4822
9EFA
92AA
9EA9
90A9
9EAA
92AA
5E22
4024
2008
1FF0
ENDCHAR
STARTCHAR uniE467
ENCODING 58471
SWIDTH 1000 0
DWIDTH 16 0
BBX 16 15 0 -1
BITMAP
0180
0E70
3008
4224
4222
8AFA
8AAA
8AA9
8AA9
82AA
82AA
4422
4824
2008
1FF0
ENDCHAR
STARTCHAR uniE468
ENCODING 58472
SWIDTH 1000 0
DWIDTH 16 0
BBX 16 15 0 -1
BITMAP
0180
0E70
3008
4244
4442
8842
9842
ABF9
8841
8842
8842
4842
49F4
2008
1FF0
ENDCHAR
STARTCHAR uniE469
ENCODING 58473
SWIDTH 1000 0
DWIDTH 16 0
BBX 16 15 0 -1
BITMAP
0180
0E70
3008
4104
4102
8102
8102
9FF9
8101
8102
8102
4FE2
4004
2008
1FF0
ENDCHAR
STARTCHAR uniE46A
ENCODING 58474
SWIDTH 1000 0
DWIDTH 16 0
BBX 16 15 0 -1
BITMAP
0180
0E70
3008
4404
44F2
8492
9F92
84F1
8E91
95F2
8492
4492
44F4
2008
1FF0
ENDCHAR
STARTCHAR uniE46B
ENCODING 58475
SWIDTH 1000 0
DWIDTH 16 0
BBX 16 15 0 -1
BITMAP
0180
0E70
3008
47E4
4222
8422
9FFA
9089
9FF9
8402
8BEA
52B2
452C
2008
1FF0
ENDCHAR
STARTCHAR uniE46C
ENCODING 58476
SWIDTH 1000 0
DWIDTH 16 0
BBX 16 15 0 -1
BITMAP
0180
0E70
3008
4FE4
4882
8FF2
8882
8FF1
8011
8AD2
92B2
4012
4034
2008
1FF0
ENDCHAR
STARTCHAR uniE46D
ENCODING 58477
SWIDTH 1000 0
DWIDTH 16 0
BBX 16 15 0 -1
BITMAP
0180
0E70
3008
4004
45F2
8942
99F2
A941
89F1
8812
8952
4AB2
4834
2008
1FF0
ENDCHAR
STARTCHAR uniE46E
ENCODING 58478
SWIDTH 1000 0
DWIDTH 16 0
BBX 16 15 0 -1
BITMAP
0180
0E70
3008
4004
4FE2
8222
8222
8221
8221
83F2
8012
4F92
4034
2008
1FF0
ENDCHAR
STARTCHAR uniE46F
ENCODING 58479
SWIDTH 1000 0
DWIDTH 16 0
BBX 16 15 0 -1
BITMAP
0180
0E70
3108
4104
5FF2
8522
87E2
8521
87E1
8102
9FFA
4102
4104
2008
1FF0
ENDCHAR
STARTCHAR uniE470
ENCODING 58480
SWIDTH 1000 0
DWIDTH 16 0
BBX 16 15 0 -1
BITMAP
0180
0E70
3008
4244
4442
8BFA
9952
A9F1
8951
89F2
8842
4BFA
4844
2008
1FF0
ENDCHAR
STARTCHAR uniE471
ENCODING 58481
SWIDTH 1000 0
DWIDTH 16 0
BBX 16 15 0 -1
BITMAP
0180
0E70
3008
4104
4102
9FF2
8282
8481
9FF9
8082
BFFE
4082
4084
2008
1FF0
ENDCHAR
STARTCHAR uniE472
ENCODING 58482
SWIDTH 1000 0
DWIDTH 16 0
BBX 16 15 0 -1
BITMAP
0180
0E70
3008
4004
4042
9E82
897A
9009
AEE9
8A22
8EE2
4082
40F4
2008
1FF0
ENDCHAR
STARTCHAR uniE473
ENCODING 58483
SWIDTH 1000 0
DWIDTH 16 0
BBX 16 15 0 -1
BITMAP
0180
0E70
3008
43D4
7E92
93FE
9295
A3E7
DC55
96CA
9556
56D2
5C6C
2008
1FF0
ENDCHAR
STARTCHAR uniE474
ENCODING 58484
SWIDTH 1000 0
DWIDTH 16 0
BBX 16 15 0 -1
BITMAP
0180
0E70
3008
4044
4442
8482
96FA
9509
9469
8422
8AE2
4882
50F4
2008
1FF0
ENDCHAR
STARTCHAR uniE475
ENCODING 58485
SWIDTH 1000 0
DWIDTH 16 0
BBX 16 15 0 -1
BITMAP
0180
0E70
3008
4204
4402
8BF2
9012
A791
8091
8792
8402
4412
47F4
2008
1FF0
ENDCHAR
STARTCHAR uniE476
ENCODING 58486
SWIDTH 1000 0
DWIDTH 16 0
BBX 16 15 0 -1
BITMAP
0180
0E70
3008
4FF4
4802
8FE2
8882
8881
BFF9
8002
8442
4822
4004
2008
1FF0
ENDCHAR
STARTCHAR uniE477
ENCODING 58487
SWIDTH 1000 0
DWIDTH 16 0
BBX 16 15 0 -1
BITMAP
0180
0E70
3008
4104
4FF2
8442
8442
8AA1
8101
9FFA
8102
4102
4004
2008
1FF0
ENDCHAR
STARTCHAR uniE478
ENCODING 58488
SWIDTH 1000 0
DWIDTH 16 0
BBX 16 15 0 -1
BITMAP
07E0
0FF0
1DB8
3D7C
7406
F577
F1AF
FD1F
F0EF
F507
F5EF
756E
35CC
1FF8
0FF0
ENDCHAR
STARTCHAR uniE479
ENCODING 58489
SWIDTH 1000 0
DWIDTH 16 0
BBX 16 15 0 -1
BITMAP
0180
0FF0
1BE8
3B9C
6A56
70DA
7B66
FBEF
F203
6BEE
7AEE
7B6E
3BCC
1BE8
0FF0
ENDCHAR
STARTCHAR uniE47A
ENCODING 58490
SWIDTH 1000 0
DWIDTH 16 0
BBX 16 15 0 -1
BITMAP
0180
0FF0
1FF8
3F7C
7F7E
7F7E
7F7E
E007
FF7F
7F7E
7F7E
7C0E
3FFC
1FF8
0FF0
ENDCHAR
STARTCHAR uniE47B
ENCODING 58491
SWIDTH 1000 0
DWIDTH 16 0
BBX 16 15 0 -1
BITMAP
0180
0FF0
1FF8
300C
7DEE
7BEE
7006
F777
F007
7B6E
765E
693E
365C
1968
0E70
ENDCHAR
STARTCHAR uniE47C
ENCODING 58492
SWIDTH 1000 0
DWIDTH 16 0
BBX 16 15 0 -1
BITMAP
0180
0FF0
1818
3B7C
781E
7B7E
781E
FB7F
F80F
7FEE
754E
756E
3FCC
1FF8
0FF0
ENDCHAR
STARTCHAR uniE47D
ENCODING 58493
SWIDTH 1000 0
DWIDTH 16 0
BBX 16 15 0 -1
BITMAP
0180
0FF0
1FF8
301C
7BDE
7BDE
7BDE
FBDF
F807
7BF6
7FF6
7006
3FF4
1FF8
0FF0
ENDCHAR
STARTCHAR uniE47E
ENCODING 58494
SWIDTH 1000 0
DWIDTH 16 0
BBX 16 15 0 -1
BITMAP
0180
0FF0
1EF8
200C
76DE
701E
76DE
F01F
FEFF
4006
7EFE
7EFE
3EFC
1FF8
0FF0
ENDCHAR
STARTCHAR uniE47F
ENCODING 58495
SWIDTH 1000 0
DWIDTH 16 0
BBX 16 16 0 -2
BITMAP
0180
0FF0
1FF8
3F7C
6006
7D7E
7B7E
F77F
E00F
7F7E
4002
7F7E
3F7C
1F78
0F70
07E0
ENDCHAR
STARTCHAR uniE480
ENCODING 58496
SWIDTH 1000 0
DWIDTH 16 0
BBX 16 15 0 -1
BITMAP
0180
0FF0
1FF8
3FDC
61BE
7702
6EFA
D18B
F5EF
718E
7FBE
7F82
3FFC
1FF8
0FF0
ENDCHAR
STARTCHAR uniE481
ENCODING 58497
SWIDTH 1000 0
DWIDTH 16 0
BBX 16 15 0 -1
BITMAP
0180
0FF0
1FF8
3BDC
7BDE
6AC2
6ABA
EABF
EAC3
7AFA
7BC2
75DE
35C4
1FF8
0FF0
ENDCHAR
STARTCHAR uniE482
ENCODING 58498
SWIDTH 1000 0
DWIDTH 16 0
BBX 16 15 0 -1
BITMAP
0180
0FF0
1EF8
3EFC
4006
7BDE
7BDE
F5AF
FF7F
4006
7F7E
7F7E
3F7C
1FF8
0FF0
ENDCHAR
STARTCHAR uniE483
ENCODING 58499
SWIDTH 1000 0
DWIDTH 16 0
BBX 16 15 0 -1
BITMAP
0180
0FF0
1FF8
381C
7BFE
781E
7B7E
FB7F
C003
7FFE
7BBE
67CE
3FFC
1FF8
0FF0
ENDCHAR
STARTCHAR uniE4DD
ENCODING 58589
SWIDTH 0 0
DWIDTH 0 0
BBX 4 3 -5 10
BITMAP
20
90
40
ENDCHAR
STARTCHAR uniE4DE
ENCODING 58590
SWIDTH 0 0
DWIDTH 0 0
BBX 3 3 -4 10
BITMAP
40
A0
40
ENDCHAR
STARTCHAR uniE4DF
ENCODING 58591
SWIDTH 1000 0
DWIDTH 16 0
BBX 12 14 2 -1
BITMAP
1000
0980
8E40
B8C0
4800
17C0
1A20
3610
5610
9A10
B210
4A20
0440
0180
ENDCHAR
STARTCHAR uniE4E0
ENCODING 58592
SWIDTH 1000 0
DWIDTH 16 0
BBX 13 14 2 -1
BITMAP
0600
0100
0200
2000
2C00
1400
0700
0100
0200
1C00
60E0
9910
E608
0008
ENDCHAR
STARTCHAR uniE4E1
ENCODING 58593
SWIDTH 1000 0
DWIDTH 16 0
BBX 12 14 2 -1
BITMAP
0600
0280
1F00
0260
4790
9A10
B220
CE40
0380
0400
0400
0200
0400
0380
ENDCHAR
STARTCHAR uniE4E2
ENCODING 58594
SWIDTH 1000 0
DWIDTH 16 0
BBX 12 14 2 -1
BITMAP
0200
8100
70E0
1000
2000
4000
47E0
4910
4910
4610
4010
4020
40C0
0300
ENDCHAR
STARTCHAR uniE4E3
ENCODING 58595
SWIDTH 1000 0
DWIDTH 16 0
BBX 13 11 1 0
BITMAP
00E0
0120
0120
4220
8420
B440
5478
0808
0018
00E0
0100
ENDCHAR
STARTCHAR uniE4E4
ENCODING 58596
SWIDTH 1000 0
DWIDTH 16 0
BBX 12 14 2 -1
BITMAP
00E0
2120
2240
2080
4740
8080
8120
4250
53E0
5040
6080
4080
4100
0200
ENDCHAR
STARTCHAR uniE4E5
ENCODING 58597
SWIDTH 1000 0
DWIDTH 16 0
BBX 9 15 4 -1
BITMAP
2000
1C00
0400
9900
CE00
3000
2400
3800
1000
0C00
0200
7C00
8000
8080
7F00
ENDCHAR
STARTCHAR uniE4E6
ENCODING 58598
SWIDTH 1000 0
DWIDTH 16 0
BBX 14 14 1 -1
BITMAP
2000
1060
10A0
1120
1240
1430
5888
B144
93C4
B6A4
5908
1710
10E0
1000
ENDCHAR
STARTCHAR uniE4E7
ENCODING 58599
SWIDTH 1000 0
DWIDTH 16 0
BBX 11 14 2 -1
BITMAP
1800
0400
09C0
8220
BCC0
4300
0600
0200
0200
0200
0F80
1240
0E00
0200
ENDCHAR
STARTCHAR uniE4E8
ENCODING 58600
SWIDTH 1000 0
DWIDTH 16 0
BBX 10 14 3 -1
BITMAP
1E00
0400
0980
8640
B840
4380
0400
0800
0400
0800
0400
0200
0400
1800
ENDCHAR
STARTCHAR uniE4E9
ENCODING 58601
SWIDTH 1000 0
DWIDTH 16 0
BBX 12 14 2 -1
BITMAP
1000
0F00
0600
0800
08C0
0F20
3810
4810
4910
8AA0
B1C0
4080
0100
00F0
ENDCHAR
STARTCHAR uniE4EA
ENCODING 58602
SWIDTH 1000 0
DWIDTH 16 0
BBX 10 14 3 -1
BITMAP
0200
5D00
2100
0200
3400
4800
9400
6580
0240
0040
0380
0C00
1000
0F00
ENDCHAR
STARTCHAR uniE4EB
ENCODING 58603
SWIDTH 1000 0
DWIDTH 16 0
BBX 14 14 1 -1
BITMAP
0E00
0180
0638
02C4
8F04
7438
0300
0080
0700
0800
0700
0100
0600
03C0
ENDCHAR
STARTCHAR uniE4EC
ENCODING 58604
SWIDTH 1000 0
DWIDTH 16 0
BBX 12 12 2 0
BITMAP
4000
2000
2040
43A0
8420
4840
5040
9080
A100
A100
A3E0
4010
ENDCHAR
STARTCHAR uniE4ED
ENCODING 58605
SWIDTH 1000 0
DWIDTH 16 0
BBX 13 14 1 -1
BITMAP
11C0
0E40
0480
0A40
0F20
1AA0
2540
1B90
0668
9B88
7C70
0380
0400
03C0
ENDCHAR
STARTCHAR uniE4EE
ENCODING 58606
SWIDTH 1000 0
DWIDTH 16 0
BBX 14 14 1 -1
BITMAP
0060
1890
A910
4AF0
14C0
2858
11A8
2B48
2DB0
4AA8
4928
8924
92C4
6000
ENDCHAR
STARTCHAR uniE4EF
ENCODING 58607
SWIDTH 1000 0
DWIDTH 16 0
BBX 12 14 2 -1
BITMAP
0C00
0300
0400
2100
1F00
0100
0600
0800
1000
30E0
4910
8A10
0C60
0400
ENDCHAR
STARTCHAR uniE4F0
ENCODING 58608
SWIDTH 1000 0
DWIDTH 16 0
BBX 8 13 5 0
BITMAP
80
40
20
40
80
40
40
40
40
40
20
10
0F
ENDCHAR
STARTCHAR uniE4F1
ENCODING 58609
SWIDTH 1000 0
DWIDTH 16 0
BBX 12 14 2 -1
BITMAP
1F00
0100
1200
8980
7E40
08C0
0A00
0FC0
3220
D510
8910
5720
6040
0380
ENDCHAR
STARTCHAR uniE4F2
ENCODING 58610
SWIDTH 1000 0
DWIDTH 16 0
BBX 14 14 1 -1
BITMAP
1080
0940
0840
4C80
39FC
0800
0C40
0880
1860
A820
4840
2880
1860
0810
ENDCHAR
STARTCHAR uniE4F3
ENCODING 58611
SWIDTH 1000 0
DWIDTH 16 0
BBX 12 13 2 0
BITMAP
2000
1000
1000
94E0
7810
1020
1000
3000
5000
5100
5200
B100
90F0
ENDCHAR
STARTCHAR uniE4F4
ENCODING 58612
SWIDTH 1000 0
DWIDTH 16 0
BBX 12 14 2 -1
BITMAP
00C0
BB40
5080
13C0
2080
13E0
D410
B310
84A0
83C0
8100
8200
8210
81E0
ENDCHAR
STARTCHAR uniE4F5
ENCODING 58613
SWIDTH 1000 0
DWIDTH 16 0
BBX 14 14 1 -1
BITMAP
0080
2040
2078
23C0
4450
8048
81E4
4244
414C
50C0
5150
6210
4130
00C0
ENDCHAR
STARTCHAR uniE4F6
ENCODING 58614
SWIDTH 1000 0
DWIDTH 16 0
BBX 15 12 0 0
BITMAP
0800
0400
0400
8E40
752C
0532
0922
1104
1108
0210
1400
0800
ENDCHAR
STARTCHAR uniE4F7
ENCODING 58615
SWIDTH 1000 0
DWIDTH 16 0
BBX 10 14 3 -1
BITMAP
2000
1000
0F00
0000
0000
0700
3880
4840
9040
A040
4080
0100
0600
0800
ENDCHAR
STARTCHAR uniE4F8
ENCODING 58616
SWIDTH 1000 0
DWIDTH 16 0
BBX 9 14 4 -1
BITMAP
3000
0800
1000
1000
3E00
C100
8080
0080
0080
0100
0200
0400
1800
E000
ENDCHAR
STARTCHAR uniE4F9
ENCODING 58617
SWIDTH 1000 0
DWIDTH 16 0
BBX 14 14 1 -1
BITMAP
0200
0130
11C0
0F00
0100
00C0
1700
0800
BC98
52A4
1244
2218
5460
0880
ENDCHAR
STARTCHAR uniE4FA
ENCODING 58618
SWIDTH 1000 0
DWIDTH 16 0
BBX 13 13 2 0
BITMAP
0C00
04C0
0720
7DC0
0800
0800
0860
0620
0140
4940
B140
D238
8E00
ENDCHAR
STARTCHAR uniE4FB
ENCODING 58619
SWIDTH 1000 0
DWIDTH 16 0
BBX 13 14 2 -1
BITMAP
0400
0200
1C00
2100
4E00
3240
05A0
8A20
4440
4A38
5208
6230
54C0
0800
ENDCHAR
STARTCHAR uniE4FC
ENCODING 58620
SWIDTH 1000 0
DWIDTH 16 0
BBX 15 13 0 0
BITMAP
0460
0A10
1120
1E2C
1072
1144
1A28
0430
0A20
9220
A270
5488
4906
ENDCHAR
STARTCHAR uniE4FD
ENCODING 58621
SWIDTH 1000 0
DWIDTH 16 0
BBX 12 15 2 -1
BITMAP
2000
1000
9960
6590
2510
4460
5980
0200
0F80
0400
1F80
0200
1F80
3060
4010
ENDCHAR
STARTCHAR uniE4FE
ENCODING 58622
SWIDTH 1000 0
DWIDTH 16 0
BBX 12 13 2 -1
BITMAP
07C0
9820
60C0
0700
0480
2580
1E00
0400
0480
9460
A410
5C10
0400
ENDCHAR
STARTCHAR uniE4FF
ENCODING 58623
SWIDTH 1000 0
DWIDTH 16 0
BBX 14 14 1 -1
BITMAP
0100
0080
0100
2180
1F80
0500
0B00
10F8
2F04
73C0
8C20
13A0
1440
03A0
ENDCHAR
STARTCHAR uniE500
ENCODING 58624
SWIDTH 1000 0
DWIDTH 16 0
BBX 13 14 1 -1
BITMAP
1000
94B0
7A48
1210
3460
4980
0200
0180
0080
01E0
0010
0E10
1120
0FC0
ENDCHAR
STARTCHAR uniE501
ENCODING 58625
SWIDTH 1000 0
DWIDTH 16 0
BBX 13 14 1 -1
BITMAP
0600
0260
1F80
0200
03C0
0100
0A60
1490
9290
7CA0
10C0
1380
1478
0800
ENDCHAR
STARTCHAR uniE502
ENCODING 58626
SWIDTH 1000 0
DWIDTH 16 0
BBX 12 14 2 -1
BITMAP
1180
2280
2940
7080
2B00
5100
2300
8D00
7140
1B20
3510
1910
1700
2100
ENDCHAR
STARTCHAR uniE503
ENCODING 58627
SWIDTH 1000 0
DWIDTH 16 0
BBX 12 14 2 -1
BITMAP
3600
0900
5500
2240
0EE0
1100
3EC0
61A0
86C0
2940
3220
2520
0890
1070
ENDCHAR
STARTCHAR uniE504
ENCODING 58628
SWIDTH 1000 0
DWIDTH 16 0
BBX 8 12 4 0
BITMAP
08
54
38
10
10
10
10
08
7C
8A
91
61
ENDCHAR
STARTCHAR uniE505
ENCODING 58629
SWIDTH 1000 0
DWIDTH 16 0
BBX 14 14 1 -1
BITMAP
0600
0100
0100
2170
1F80
0100
0900
0500
0900
1780
2970
4508
8504
0200
ENDCHAR
STARTCHAR uniE506
ENCODING 58630
SWIDTH 1000 0
DWIDTH 16 0
BBX 12 14 2 -1
BITMAP
2000
1C00
0400
1860
4090
9120
6A50
0C10
1810
2810
4820
2840
1180
0200
ENDCHAR
STARTCHAR uniE507
ENCODING 58631
SWIDTH 1000 0
DWIDTH 16 0
BBX 11 13 2 0
BITMAP
0400
0400
2480
4500
36C0
04E0
0700
FC00
0700
0200
0200
0400
07C0
ENDCHAR
STARTCHAR uniE508
ENCODING 58632
SWIDTH 1000 0
DWIDTH 16 0
BBX 13 13 2 0
BITMAP
1000
2800
A400
7800
20E0
4310
7410
18E0
1100
2100
2100
4108
40F0
ENDCHAR
STARTCHAR uniE509
ENCODING 58633
SWIDTH 1000 0
DWIDTH 16 0
BBX 14 13 1 0
BITMAP
0400
0200
0400
0980
0E80
0080
0100
0200
0600
09C0
1020
A010
400C
ENDCHAR
STARTCHAR uniE50A
ENCODING 58634
SWIDTH 1000 0
DWIDTH 16 0
BBX 8 14 4 -1
BITMAP
10
08
10
24
3A
02
04
08
10
20
C0
38
06
01
ENDCHAR
STARTCHAR uniE50B
ENCODING 58635
SWIDTH 1000 0
DWIDTH 16 0
BBX 14 12 1 0
BITMAP
0800
0400
0580
0E40
3440
4480
8880
0880
1080
A100
40CC
0030
ENDCHAR
STARTCHAR uniE50C
ENCODING 58636
SWIDTH 1000 0
DWIDTH 16 0
BBX 13 14 2 -1
BITMAP
8220
4450
4510
4220
4040
47F0
8888
8100
93C0
A040
A080
A100
40E0
4010
ENDCHAR
STARTCHAR uniE50D
ENCODING 58637
SWIDTH 1000 0
DWIDTH 16 0
BBX 15 14 1 -1
BITMAP
1100
0880
08B0
1148
2188
4268
8090
4068
2008
4810
5020
5010
2020
001E
ENDCHAR
STARTCHAR uniE50E
ENCODING 58638
SWIDTH 1000 0
DWIDTH 16 0
BBX 8 13 4 0
BITMAP
40
20
2E
51
61
91
AA
1C
10
10
08
10
0E
ENDCHAR
STARTCHAR uniE50F
ENCODING 58639
SWIDTH 1000 0
DWIDTH 16 0
BBX 14 14 1 -1
BITMAP
0100
1080
2B30
4C08
3804
08E0
4910
2A10
2A10
4C10
59D0
6A20
99DC
0800
ENDCHAR
STARTCHAR uniE510
ENCODING 58640
SWIDTH 1000 0
DWIDTH 16 0
BBX 10 13 2 0
BITMAP
0800
0400
0800
0B80
0C40
1040
2040
4080
8100
0380
0440
0040
0380
ENDCHAR
STARTCHAR uniE511
ENCODING 58641
SWIDTH 1000 0
DWIDTH 16 0
BBX 12 14 2 -1
BITMAP
0800
0400
09C0
1E20
2810
53E0
5400
A480
4940
0A40
0480
0080
0100
0600
ENDCHAR
STARTCHAR uniE512
ENCODING 58642
SWIDTH 1000 0
DWIDTH 16 0
BBX 10 14 3 -1
BITMAP
1800
0600
7C00
0280
0140
0680
1C00
2780
7C40
8440
8780
0400
0400
0800
ENDCHAR
STARTCHAR uniE513
ENCODING 58643
SWIDTH 1000 0
DWIDTH 16 0
BBX 12 14 2 -1
BITMAP
0800
0700
2000
3C00
0BE0
1C10
E1A0
0A40
1FE0
0200
0F80
1300
0A80
0660
ENDCHAR
STARTCHAR uniE514
ENCODING 58644
SWIDTH 1000 0
DWIDTH 16 0
BBX 14 14 1 -1
BITMAP
1020
0830
0828
0024
007C
F1A0
1220
2020
2820
2820
2840
2840
1040
0040
ENDCHAR
STARTCHAR uniE515
ENCODING 58645
SWIDTH 1000 0
DWIDTH 16 0
BBX 11 15 3 -1
BITMAP
1000
2000
2C00
9200
B400
4800
1B40
2C20
77C0
0400
1A00
2300
4000
2000
1F00
ENDCHAR
STARTCHAR uniE516
ENCODING 58646
SWIDTH 1000 0
DWIDTH 16 0
BBX 13 13 1 0
BITMAP
0400
0200
1200
0FC0
0200
0200
3A00
4620
8010
8008
8408
4838
3000
ENDCHAR
STARTCHAR uniE517
ENCODING 58647
SWIDTH 1000 0
DWIDTH 16 0
BBX 12 14 2 -1
BITMAP
2000
1000
1400
F800
2000
21C0
2E20
5640
6A40
5260
5210
5210
8C20
01C0
ENDCHAR
STARTCHAR uniE518
ENCODING 58648
SWIDTH 1000 0
DWIDTH 16 0
BBX 13 13 1 -1
BITMAP
2040
10A0
0C20
1040
0070
8808
7008
1208
1410
1820
1040
1040
0038
ENDCHAR
STARTCHAR uniE519
ENCODING 58649
SWIDTH 1000 0
DWIDTH 16 0
BBX 12 14 2 -1
BITMAP
0100
8120
41C0
4240
4080
4080
8080
9080
A3E0
A490
A480
4280
4180
0080
ENDCHAR
STARTCHAR uniE51A
ENCODING 58650
SWIDTH 1000 0
DWIDTH 16 0
BBX 8 12 4 0
BITMAP
06
41
21
46
41
46
58
42
82
82
81
7F
ENDCHAR
STARTCHAR uniE51B
ENCODING 58651
SWIDTH 1000 0
DWIDTH 16 0
BBX 13 14 1 -1
BITMAP
2040
10A0
1080
27F8
4080
8060
4010
2020
2080
2100
20E0
4900
50F8
2000
ENDCHAR
STARTCHAR uniE51C
ENCODING 58652
SWIDTH 1000 0
DWIDTH 16 0
BBX 12 14 2 -1
BITMAP
0200
8100
5120
4FC0
4100
4100
8100
9260
A390
A210
A210
4020
40C0
0300
ENDCHAR
STARTCHAR uniE51D
ENCODING 58653
SWIDTH 1000 0
DWIDTH 16 0
BBX 11 14 2 -1
BITMAP
0200
0500
8460
7F80
0400
0200
0100
0600
1000
2000
1E00
0400
0800
07C0
ENDCHAR
STARTCHAR uniE51E
ENCODING 58654
SWIDTH 1000 0
DWIDTH 16 0
BBX 10 14 3 -1
BITMAP
4600
5200
2400
1E00
7200
0A00
1580
1E40
F1C0
0200
3800
0800
1000
0F80
ENDCHAR
STARTCHAR uniE51F
ENCODING 58655
SWIDTH 1000 0
DWIDTH 16 0
BBX 13 13 2 0
BITMAP
0600
5A00
2280
0700
7A00
0380
1E40
2420
4820
8820
93A0
A440
43B8
ENDCHAR
STARTCHAR uniE520
ENCODING 58656
SWIDTH 1000 0
DWIDTH 16 0
BBX 13 14 1 -1
BITMAP
2020
1050
2040
4828
7828
0B28
2D38
5960
69A0
4820
A820
1820
0840
0040
ENDCHAR
STARTCHAR uniE521
ENCODING 58657
SWIDTH 1000 0
DWIDTH 16 0
BBX 12 14 2 -1
BITMAP
0600
8100
4100
41E0
4310
8510
8910
A510
A310
A120
A040
4080
0100
0E00
ENDCHAR
STARTCHAR uniE522
ENCODING 58658
SWIDTH 1000 0
DWIDTH 16 0
BBX 10 14 4 -1
BITMAP
4000
3800
0400
3800
4000
3C00
0200
1C00
6000
8000
7000
0E00
0180
0040
ENDCHAR
STARTCHAR uniE523
ENCODING 58659
SWIDTH 1000 0
DWIDTH 16 0
BBX 3 14 6 -1
BITMAP
80
40
40
40
40
40
40
80
80
80
80
40
40
20
ENDCHAR
STARTCHAR uniE524
ENCODING 58660
SWIDTH 1000 0
DWIDTH 16 0
BBX 8 14 4 -1
BITMAP
38
04
08
10
0E
01
11
29
4A
8C
78
08
08
30
ENDCHAR
STARTCHAR uniE525
ENCODING 58661
SWIDTH 1000 0
DWIDTH 16 0
BBX 12 10 2 1
BITMAP
01E0
2E10
9010
8020
82C0
8100
8080
4300
4400
03C0
ENDCHAR
STARTCHAR uniE526
ENCODING 58662
SWIDTH 1000 0
DWIDTH 16 0
BBX 13 13 2 0
BITMAP
0400
0200
2400
1F80
0400
0800
1F80
0300
0C00
3040
58A0
6510
8208
ENDCHAR
STARTCHAR uniE527
ENCODING 58663
SWIDTH 1000 0
DWIDTH 16 0
BBX 13 14 1 -1
BITMAP
0020
3050
0888
1090
01E0
B280
4CB0
18C8
2808
4808
2808
1810
0820
01C0
ENDCHAR
STARTCHAR uniE528
ENCODING 58664
SWIDTH 1000 0
DWIDTH 16 0
BBX 13 14 2 -1
BITMAP
1000
0800
1040
2020
4820
8420
4440
2440
2440
2440
2440
4020
8010
0008
ENDCHAR
STARTCHAR uniE529
ENCODING 58665
SWIDTH 1000 0
DWIDTH 16 0
BBX 10 15 3 -2
BITMAP
0800
2500
1E00
0400
0E00
1500
0E00
15C0
3E80
DD00
2200
2D00
1080
0700
1800
ENDCHAR
STARTCHAR uniE52A
ENCODING 58666
SWIDTH 1000 0
DWIDTH 16 0
BBX 14 14 1 -1
BITMAP
2000
1C40
5220
3C20
1240
9D40
7260
1410
1820
34F0
5528
94C4
5404
2804
ENDCHAR
STARTCHAR uniE52B
ENCODING 58667
SWIDTH 1000 0
DWIDTH 16 0
BBX 13 13 1 -1
BITMAP
4600
3C00
0800
0940
0FA0
1910
3120
5220
5430
8808
5808
2470
0080
ENDCHAR
STARTCHAR uniE52C
ENCODING 58668
SWIDTH 1000 0
DWIDTH 16 0
BBX 12 14 2 -1
BITMAP
0400
1280
0F00
0200
0700
0A80
0700
1A40
60A0
8FF0
F100
0280
0440
0980
ENDCHAR
STARTCHAR uniE52D
ENCODING 58669
SWIDTH 1000 0
DWIDTH 16 0
BBX 10 14 3 -1
BITMAP
0800
0400
4580
3E00
0400
2400
5400
8CC0
8100
8200
7C00
0800
0800
0780
ENDCHAR
STARTCHAR uniE52E
ENCODING 58670
SWIDTH 1000 0
DWIDTH 16 0
BBX 12 12 2 0
BITMAP
41C0
2240
4080
4140
41A0
4220
84A0
84C0
A080
A100
A2E0
4410
ENDCHAR
STARTCHAR uniE52F
ENCODING 58671
SWIDTH 1000 0
DWIDTH 16 0
BBX 12 13 2 0
BITMAP
8000
40C0
2140
4240
4480
4880
4900
9080
9040
A080
A100
A200
41F0
ENDCHAR
STARTCHAR uniE530
ENCODING 58672
SWIDTH 1000 0
DWIDTH 16 0
BBX 12 13 2 0
BITMAP
0800
1700
1080
0B20
FC10
04E0
0500
0200
0500
0880
1000
1000
0FC0
ENDCHAR
STARTCHAR uniE531
ENCODING 58673
SWIDTH 1000 0
DWIDTH 16 0
BBX 10 14 3 -1
BITMAP
3000
0800
0880
0900
8E00
7480
0480
0300
0200
0500
1900
2080
C080
0040
ENDCHAR
STARTCHAR uniE532
ENCODING 58674
SWIDTH 1000 0
DWIDTH 16 0
BBX 14 14 1 -1
BITMAP
0200
0120
0150
1110
1120
93FC
7D20
1120
1520
0840
0080
0300
0400
03E0
ENDCHAR
STARTCHAR uniE533
ENCODING 58675
SWIDTH 1000 0
DWIDTH 16 0
BBX 13 14 1 -1
BITMAP
1000
4860
3EA0
0830
0A08
6A30
9CC0
2880
4BE0
9920
6220
0420
1940
0080
ENDCHAR
STARTCHAR uniE534
ENCODING 58676
SWIDTH 1000 0
DWIDTH 16 0
BBX 13 14 1 -2
BITMAP
3E60
00A0
8EB0
7208
0410
1920
2240
54E0
8820
1440
08A0
0020
0040
0080
ENDCHAR
STARTCHAR uniE535
ENCODING 58677
SWIDTH 1000 0
DWIDTH 16 0
BBX 14 12 1 0
BITMAP
2300
1D00
0100
0200
0258
02A4
4224
9204
A208
4230
0A40
0600
ENDCHAR
STARTCHAR uniE536
ENCODING 58678
SWIDTH 1000 0
DWIDTH 16 0
BBX 13 13 2 0
BITMAP
8000
4000
4470
4390
4020
8040
8080
8100
9200
A570
AA88
AC10
4060
ENDCHAR
STARTCHAR uniE537
ENCODING 58679
SWIDTH 1000 0
DWIDTH 16 0
BBX 10 14 3 -1
BITMAP
4600
5900
2200
0C00
1380
6040
8980
1E00
0800
1600
1900
1100
2500
2200
ENDCHAR
STARTCHAR uniE538
ENCODING 58680
SWIDTH 1000 0
DWIDTH 16 0
BBX 8 14 4 -1
BITMAP
84
7C
08
10
20
7C
42
01
01
02
02
04
08
30
ENDCHAR
STARTCHAR uniE539
ENCODING 58681
SWIDTH 1000 0
DWIDTH 16 0
BBX 12 14 2 -1
BITMAP
2180
1540
F980
1330
1D50
70A0
93A0
5460
3420
1200
0400
0400
0400
0300
ENDCHAR
STARTCHAR uniE53A
ENCODING 58682
SWIDTH 1000 0
DWIDTH 16 0
BBX 12 14 2 -1
BITMAP
2380
2C80
1100
8260
7F80
1000
27E0
2950
32E0
6540
A540
A2C0
4160
00D0
ENDCHAR
STARTCHAR uniE53B
ENCODING 58683
SWIDTH 1000 0
DWIDTH 16 0
BBX 13 14 2 -1
BITMAP
1800
0780
1100
0BF0
9C08
E848
0A30
0D00
0080
3D00
4300
86C0
7820
0010
ENDCHAR
STARTCHAR uniE53C
ENCODING 58684
SWIDTH 1000 0
DWIDTH 16 0
BBX 12 14 2 -1
BITMAP
0400
2280
2240
1480
03E0
BC10
41E0
0200
0E00
1200
1200
0C00
1080
0F00
ENDCHAR
STARTCHAR uniE53D
ENCODING 58685
SWIDTH 1000 0
DWIDTH 16 0
BBX 13 15 2 -1
BITMAP
0800
0400
0400
0900
1E00
0400
0980
1E40
6440
4A40
1640
7BC0
9460
8890
7708
ENDCHAR
STARTCHAR uniE53E
ENCODING 58686
SWIDTH 1000 0
DWIDTH 16 0
BBX 7 14 4 -1
BITMAP
10
20
20
20
10
10
08
04
02
7A
86
80
60
1C
ENDCHAR
STARTCHAR uniE53F
ENCODING 58687
SWIDTH 1000 0
DWIDTH 16 0
BBX 11 13 2 -1
BITMAP
03C0
8C40
B080
4300
0400
0FC0
3420
0220
4FA0
2220
3A20
4440
0380
ENDCHAR
STARTCHAR uniE540
ENCODING 58688
SWIDTH 1000 0
DWIDTH 16 0
BBX 10 14 3 -1
BITMAP
0400
0200
0400
0800
1000
0800
0800
0400
3F80
4440
8400
6400
1400
0800
ENDCHAR
STARTCHAR uniE541
ENCODING 58689
SWIDTH 1000 0
DWIDTH 16 0
BBX 13 12 1 0
BITMAP
0100
1080
28B0
24C8
A988
7288
24F0
2880
4880
5080
2088
2070
ENDCHAR
STARTCHAR uniE542
ENCODING 58690
SWIDTH 1000 0
DWIDTH 16 0
BBX 13 14 1 -1
BITMAP
0C00
1200
FE10
10A8
1D48
0510
0A60
1480
1960
0210
0510
0A90
1220
01C0
ENDCHAR
STARTCHAR uniE543
ENCODING 58691
SWIDTH 1000 0
DWIDTH 16 0
BBX 14 13 1 0
BITMAP
1000
0800
9200
7C00
2000
3000
2830
4848
1244
1588
2410
2860
1000
ENDCHAR
STARTCHAR uniE544
ENCODING 58692
SWIDTH 1000 0
DWIDTH 16 0
BBX 10 14 3 -1
BITMAP
2000
1000
9400
7800
2000
4000
2000
1380
2440
3840
0040
0080
0700
1800
ENDCHAR
STARTCHAR uniE545
ENCODING 58693
SWIDTH 1000 0
DWIDTH 16 0
BBX 12 13 2 0
BITMAP
4000
4060
38A0
1120
2140
1220
1420
7420
99A0
9240
61A0
4010
8010
ENDCHAR
STARTCHAR uniE546
ENCODING 58694
SWIDTH 1000 0
DWIDTH 16 0
BBX 12 14 2 -1
BITMAP
1300
0D00
0200
0C80
1140
1F80
0100
0780
0B00
45E0
8300
8100
7830
07C0
ENDCHAR
STARTCHAR uniE547
ENCODING 58695
SWIDTH 1000 0
DWIDTH 16 0
BBX 12 14 2 -2
BITMAP
4040
24A0
2A10
4210
4210
8210
9290
A110
A010
A010
4010
0010
0020
0040
ENDCHAR
STARTCHAR uniE548
ENCODING 58696
SWIDTH 1000 0
DWIDTH 16 0
BBX 13 9 1 0
BITMAP
8C70
9288
A108
4008
0008
0010
0020
00C0
0100
ENDCHAR
STARTCHAR uniE549
ENCODING 58697
SWIDTH 1000 0
DWIDTH 16 0
BBX 12 14 2 -1
BITMAP
0100
8080
4520
43C0
4100
4220
42E0
8720
9040
A080
A080
4080
4040
0030
ENDCHAR
STARTCHAR uniE54A
ENCODING 58698
SWIDTH 1000 0
DWIDTH 16 0
BBX 12 14 2 -1
BITMAP
0200
8100
4160
4B90
4510
41E0
8100
8380
9500
A580
A560
A300
4100
4100
ENDCHAR
STARTCHAR uniE54B
ENCODING 58699
SWIDTH 1000 0
DWIDTH 16 0
BBX 12 14 2 -1
BITMAP
2000
1000
5400
3800
1000
3CE0
E920
1240
2420
4810
5060
6080
4080
0070
ENDCHAR
STARTCHAR uniE54C
ENCODING 58700
SWIDTH 1000 0
DWIDTH 16 0
BBX 14 15 1 -2
BITMAP
0780
0100
8FF8
7004
0700
0200
05C0
0020
0620
0940
0F80
0100
0100
0200
0400
ENDCHAR
STARTCHAR uniE54D
ENCODING 58701
SWIDTH 1000 0
DWIDTH 16 0
BBX 12 14 2 -1
BITMAP
2000
2040
17C0
2080
4100
82C0
8520
4620
4020
50C0
6100
6200
4200
41F0
ENDCHAR
STARTCHAR uniE54E
ENCODING 58702
SWIDTH 1000 0
DWIDTH 16 0
BBX 12 14 2 -1
BITMAP
4200
2100
2780
2180
4310
85F0
8740
41A0
5010
6010
4310
44A0
42A0
01C0
ENDCHAR
STARTCHAR uniE54F
ENCODING 58703
SWIDTH 1000 0
DWIDTH 16 0
BBX 12 13 2 0
BITMAP
2180
1E40
0080
0800
2400
47E0
3C00
0800
0F00
10C0
2020
4010
8010
ENDCHAR
STARTCHAR uniE550
ENCODING 58704
SWIDTH 1000 0
DWIDTH 16 0
BBX 12 12 2 0
BITMAP
0070
8F80
7100
0200
0400
0200
0100
0200
0400
0400
0400
0380
ENDCHAR
STARTCHAR uniE551
ENCODING 58705
SWIDTH 1000 0
DWIDTH 16 0
BBX 8 14 4 -1
BITMAP
8C
72
04
18
06
08
10
60
80
70
08
06
01
01
ENDCHAR
STARTCHAR uniE552
ENCODING 58706
SWIDTH 1000 0
DWIDTH 16 0
BBX 11 14 2 -1
BITMAP
0F00
0200
81E0
7E20
00C0
0020
0CC0
1220
1F20
32A0
4CC0
5380
2080
0700
ENDCHAR
STARTCHAR uniE553
ENCODING 58707
SWIDTH 1000 0
DWIDTH 16 0
BBX 8 13 4 -1
BITMAP
BE
44
18
20
7C
02
04
08
10
20
40
81
7E
ENDCHAR
STARTCHAR uniE554
ENCODING 58708
SWIDTH 1000 0
DWIDTH 16 0
BBX 14 14 1 -1
BITMAP
0880
1040
10E0
2340
24C8
2958
32E0
2358
5064
9004
90C4
9128
5110
20E0
ENDCHAR
STARTCHAR uniE555
ENCODING 58709
SWIDTH 1000 0
DWIDTH 16 0
BBX 10 12 3 0
BITMAP
0800
0400
0400
4980
3E00
0800
1000
1000
2000
4E00
B180
8040
ENDCHAR
STARTCHAR uniE556
ENCODING 58710
SWIDTH 1000 0
DWIDTH 16 0
BBX 12 14 2 -1
BITMAP
0600
0100
0200
4F00
3200
0500
0BE0
1D00
2080
4080
8680
8900
92E0
0C10
ENDCHAR
STARTCHAR uniE557
ENCODING 58711
SWIDTH 1000 0
DWIDTH 16 0
BBX 12 14 2 -1
BITMAP
0400
0200
2480
1F00
0800
0800
1200
1F00
0200
02E0
9A10
A230
4E00
0200
ENDCHAR
STARTCHAR uniE558
ENCODING 58712
SWIDTH 1000 0
DWIDTH 16 0
BBX 12 15 2 -1
BITMAP
0800
0400
0800
1300
2C80
1080
3060
5010
93E0
6400
0300
0400
0200
0400
03C0
ENDCHAR
STARTCHAR uniE559
ENCODING 58713
SWIDTH 1000 0
DWIDTH 16 0
BBX 12 14 2 -1
BITMAP
1000
0800
0EE0
5910
A820
A8C0
5900
0200
0400
0380
0400
0300
0400
03C0
ENDCHAR
STARTCHAR uniE55A
ENCODING 58714
SWIDTH 1000 0
DWIDTH 16 0
BBX 13 12 1 0
BITMAP
44B0
3850
0810
1020
2250
2210
4A10
9430
E440
A480
A100
01F8
ENDCHAR
STARTCHAR uniE55B
ENCODING 58715
SWIDTH 1000 0
DWIDTH 16 0
BBX 13 14 2 -1
BITMAP
0800
0400
0490
2508
1E10
0220
0240
8200
8200
9100
A100
4480
4280
0100
ENDCHAR
STARTCHAR uniE55C
ENCODING 58716
SWIDTH 1000 0
DWIDTH 16 0
BBX 10 14 4 -1
BITMAP
2000
9000
7E00
2000
3F00
2080
0080
F040
2840
7040
A040
7880
2100
2E00
ENDCHAR
STARTCHAR uniE55D
ENCODING 58717
SWIDTH 1000 0
DWIDTH 16 0
BBX 12 14 1 -1
BITMAP
0400
0200
04C0
0940
1E40
0080
1100
2A00
0460
0A90
9290
A110
4020
00C0
ENDCHAR
STARTCHAR uniE55E
ENCODING 58718
SWIDTH 1000 0
DWIDTH 16 0
BBX 12 14 2 -1
BITMAP
0100
0280
2440
1F80
1000
2380
2060
4380
8400
8300
0460
9210
A210
4C00
ENDCHAR
STARTCHAR uniE55F
ENCODING 58719
SWIDTH 1000 0
DWIDTH 16 0
BBX 13 14 2 -1
BITMAP
0400
2280
1F00
0400
0800
1E00
0100
0140
0120
1110
9108
A100
5A00
0400
ENDCHAR
STARTCHAR uniE560
ENCODING 58720
SWIDTH 1000 0
DWIDTH 16 0
BBX 11 13 3 -1
BITMAP
4200
3C00
0800
1000
2800
5400
87C0
9C20
2420
4440
4840
5080
2000
ENDCHAR
STARTCHAR uniE561
ENCODING 58721
SWIDTH 1000 0
DWIDTH 16 0
BBX 12 14 2 -1
BITMAP
1300
1170
BF80
5500
0640
2040
3680
0400
3F80
1400
1F00
24C0
5C20
0400
ENDCHAR
STARTCHAR uniE562
ENCODING 58722
SWIDTH 1000 0
DWIDTH 16 0
BBX 13 13 1 -1
BITMAP
2C40
35A0
0220
2E40
1270
3208
5208
9210
5410
2420
0440
1480
0870
ENDCHAR
STARTCHAR uniE563
ENCODING 58723
SWIDTH 1000 0
DWIDTH 16 0
BBX 13 12 2 0
BITMAP
10C0
2140
5A40
4440
8C40
9440
9440
A440
A440
A440
1840
0038
ENDCHAR
STARTCHAR uniE564
ENCODING 58724
SWIDTH 1000 0
DWIDTH 16 0
BBX 13 14 2 -1
BITMAP
9800
6400
0840
30C0
4940
92A0
22E0
5420
74F0
1920
50E0
7120
D080
2078
ENDCHAR
STARTCHAR uniE565
ENCODING 58725
SWIDTH 1000 0
DWIDTH 16 0
BBX 13 12 2 0
BITMAP
1700
0880
0080
0080
1840
2440
25E0
3E50
6488
9480
8880
7700
ENDCHAR
STARTCHAR uniE566
ENCODING 58726
SWIDTH 1000 0
DWIDTH 16 0
BBX 10 10 3 1
BITMAP
4380
3C80
0100
0200
0000
0000
0000
4000
9F80
6040
ENDCHAR
STARTCHAR uniE567
ENCODING 58727
SWIDTH 1000 0
DWIDTH 16 0
BBX 13 13 1 0
BITMAP
1000
0800
0800
1000
20F0
4110
A000
2000
2000
2200
2900
30F8
2000
ENDCHAR
STARTCHAR uniE568
ENCODING 58728
SWIDTH 1000 0
DWIDTH 16 0
BBX 12 13 2 0
BITMAP
0300
0100
5980
8F40
AA40
4780
0400
0800
1400
2400
2200
4200
81F0
ENDCHAR
STARTCHAR uniE569
ENCODING 58729
SWIDTH 1000 0
DWIDTH 16 0
BBX 13 14 1 -1
BITMAP
0200
0200
0200
0400
0700
0100
0100
0100
0130
4908
9108
6508
0300
0100
ENDCHAR
STARTCHAR uniE56A
ENCODING 58730
SWIDTH 1000 0
DWIDTH 16 0
BBX 8 13 4 -1
BITMAP
90
68
48
08
08
08
08
08
3C
4A
89
50
20
ENDCHAR
STARTCHAR uniE56B
ENCODING 58731
SWIDTH 1000 0
DWIDTH 16 0
BBX 12 13 2 -1
BITMAP
4700
3900
0200
0400
19C0
2620
4010
A410
AA10
2A20
13C0
0400
0800
ENDCHAR
STARTCHAR uniE56C
ENCODING 58732
SWIDTH 1000 0
DWIDTH 16 0
BBX 7 15 4 -2
BITMAP
8E
72
04
08
14
22
22
22
02
04
04
04
08
10
10
ENDCHAR
STARTCHAR uniE56D
ENCODING 58733
SWIDTH 1000 0
DWIDTH 16 0
BBX 13 14 1 -1
BITMAP
0400
03F0
2E08
3268
5490
9468
4908
3510
01C0
1E20
0220
0C20
1220
21C0
ENDCHAR
STARTCHAR uniE56E
ENCODING 58734
SWIDTH 1000 0
DWIDTH 16 0
BBX 12 14 2 -1
BITMAP
0400
0200
8200
4FC0
7220
4210
A410
A810
9010
91D0
AA20
41D0
0010
0060
ENDCHAR
STARTCHAR uniE56F
ENCODING 58735
SWIDTH 1000 0
DWIDTH 16 0
BBX 14 13 1 0
BITMAP
0400
22C0
3F20
2210
5208
5408
88D0
5520
20C0
0700
1870
2488
C304
ENDCHAR
STARTCHAR uniE570
ENCODING 58736
SWIDTH 1000 0
DWIDTH 16 0
BBX 11 12 2 0
BITMAP
2F00
1100
0200
0400
0200
0200
1FE0
6100
8100
6200
1A00
0400
ENDCHAR
STARTCHAR uniE571
ENCODING 58737
SWIDTH 1000 0
DWIDTH 16 0
BBX 11 15 2 -1
BITMAP
0200
0100
0200
0200
0180
1F00
2280
4280
8180
8240
8240
4140
4080
20E0
1F00
ENDCHAR
STARTCHAR uniE572
ENCODING 58738
SWIDTH 1000 0
DWIDTH 16 0
BBX 10 14 2 -1
BITMAP
0200
0100
0200
0400
0380
3E40
4280
8280
8100
4300
21C0
2100
1200
0C00
ENDCHAR
STARTCHAR uniE573
ENCODING 58739
SWIDTH 1000 0
DWIDTH 16 0
BBX 12 14 2 -1
BITMAP
0080
0100
0100
3900
4500
8500
8500
8480
8480
8280
8100
42F0
2200
1C00
ENDCHAR
STARTCHAR uniE574
ENCODING 58740
SWIDTH 1000 0
DWIDTH 16 0
BBX 13 14 1 -1
BITMAP
2000
1000
1060
9490
7910
1210
14D0
1920
1100
3130
5148
5148
3080
1000
ENDCHAR
STARTCHAR uniE575
ENCODING 58741
SWIDTH 1000 0
DWIDTH 16 0
BBX 12 13 2 0
BITMAP
0080
A140
5140
1240
1480
1460
1810
30E0
5100
9200
5400
B3C0
9030
ENDCHAR
STARTCHAR uniE576
ENCODING 58742
SWIDTH 1000 0
DWIDTH 16 0
BBX 13 14 2 -1
BITMAP
2100
1080
2080
0100
B240
51A0
1420
3840
5450
B548
D248
9040
71C0
1040
ENDCHAR
STARTCHAR uniE577
ENCODING 58743
SWIDTH 1000 0
DWIDTH 16 0
BBX 11 13 2 -1
BITMAP
4080
3F80
0480
0500
08C0
0820
1020
1020
2020
A020
A040
4080
0300
ENDCHAR
STARTCHAR uniE578
ENCODING 58744
SWIDTH 1000 0
DWIDTH 16 0
BBX 12 14 2 -1
BITMAP
8460
4520
4270
4380
8D00
9200
8380
8080
A100
A300
A560
A990
4110
0060
ENDCHAR
STARTCHAR uniE579
ENCODING 58745
SWIDTH 1000 0
DWIDTH 16 0
BBX 12 12 2 0
BITMAP
B840
4860
11C0
2240
1C40
1080
2880
4840
8830
8810
9020
60C0
ENDCHAR
STARTCHAR uniE57A
ENCODING 58746
SWIDTH 1000 0
DWIDTH 16 0
BBX 14 12 1 0
BITMAP
2000
1020
1050
11E0
0A40
0C40
1840
2840
4840
8840
5020
201C
ENDCHAR
STARTCHAR uniE57B
ENCODING 58747
SWIDTH 1000 0
DWIDTH 16 0
BBX 11 14 2 -1
BITMAP
0300
1480
0900
0200
0400
0900
1E00
0200
0C00
1000
29C0
AA20
4A20
0440
ENDCHAR
STARTCHAR uniE57C
ENCODING 58748
SWIDTH 1000 0
DWIDTH 16 0
BBX 12 8 2 2
BITMAP
8000
47C0
4820
5010
6010
4010
8010
8010
ENDCHAR
STARTCHAR uniE57D
ENCODING 58749
SWIDTH 1000 0
DWIDTH 16 0
BBX 10 14 3 -1
BITMAP
0800
0480
0440
9580
6400
0400
1E00
2400
4C00
4C00
2700
1400
0C00
0400
ENDCHAR
STARTCHAR uniE57E
ENCODING 58750
SWIDTH 1000 0
DWIDTH 16 0
BBX 12 15 2 -2
BITMAP
8200
42C0
4F20
8140
A700
A8C0
A730
5100
1FC0
7220
9420
8820
74C0
0100
0600
ENDCHAR
STARTCHAR uniE57F
ENCODING 58751
SWIDTH 1000 0
DWIDTH 16 0
BBX 13 13 2 0
BITMAP
8100
4080
40E0
4990
4A90
8CE0
8880
8880
8840
A3E0
A450
A488
4308
ENDCHAR
STARTCHAR uniE580
ENCODING 58752
SWIDTH 1000 0
DWIDTH 16 0
BBX 14 16 1 -2
BITMAP
0400
0200
0C00
1180
0E40
1470
2410
19E0
0678
9984
7E78
0080
0700
00C0
0708
00F0
ENDCHAR
STARTCHAR uniE581
ENCODING 58753
SWIDTH 1000 0
DWIDTH 16 0
BBX 12 14 2 -1
BITMAP
0400
0200
0300
0680
0A80
1300
0E00
12E0
2310
4C20
91C0
E600
0400
0380
ENDCHAR
STARTCHAR uniE582
ENCODING 58754
SWIDTH 1000 0
DWIDTH 16 0
BBX 14 13 1 0
BITMAP
0080
0040
B870
4848
12F0
2540
2540
4920
6A20
5210
9270
8488
0074
ENDCHAR
STARTCHAR uniE583
ENCODING 58755
SWIDTH 1000 0
DWIDTH 16 0
BBX 12 14 2 -1
BITMAP
0400
0200
1380
0E00
0240
8780
7900
0200
0440
0820
1410
2550
C520
0200
ENDCHAR
STARTCHAR uniE584
ENCODING 58756
SWIDTH 1000 0
DWIDTH 16 0
BBX 9 14 4 -1
BITMAP
1000
0800
9000
7E00
2000
2000
4000
A000
A000
2000
2000
2000
1800
0780
ENDCHAR
STARTCHAR uniE585
ENCODING 58757
SWIDTH 1000 0
DWIDTH 16 0
BBX 11 14 3 -1
BITMAP
2200
1400
8100
7E00
0840
3680
4B40
F540
18E0
2400
1800
8980
A840
5800
ENDCHAR
STARTCHAR uniE586
ENCODING 58758
SWIDTH 1000 0
DWIDTH 16 0
BBX 13 13 2 0
BITMAP
1000
0860
5C90
6A20
4C40
5280
9460
8810
9460
9480
A500
A500
98F8
ENDCHAR
STARTCHAR uniE587
ENCODING 58759
SWIDTH 1000 0
DWIDTH 16 0
BBX 12 13 2 0
BITMAP
0800
0800
0800
8E20
9950
A890
C820
A8C0
5900
0200
0C00
1180
3E60
ENDCHAR
STARTCHAR uniE588
ENCODING 58760
SWIDTH 1000 0
DWIDTH 16 0
BBX 8 10 4 1
BITMAP
86
99
A1
A1
C1
99
A5
A1
A2
9C
ENDCHAR
STARTCHAR uniE589
ENCODING 58761
SWIDTH 1000 0
DWIDTH 16 0
BBX 13 12 2 0
BITMAP
4200
4100
8900
8520
B9C0
8300
8500
8900
9100
A100
A108
40F0
ENDCHAR
STARTCHAR uniE58A
ENCODING 58762
SWIDTH 1000 0
DWIDTH 16 0
BBX 13 14 2 -1
BITMAP
4840
34A0
0520
1A60
24B0
3920
4D60
5560
A538
18A0
4060
8000
7010
0FE0
ENDCHAR
STARTCHAR uniE58B
ENCODING 58763
SWIDTH 1000 0
DWIDTH 16 0
BBX 13 14 2 -1
BITMAP
0830
1048
1008
1030
1308
5510
9530
9950
9210
B210
5210
1120
10C0
1000
ENDCHAR
STARTCHAR uniE58C
ENCODING 58764
SWIDTH 1000 0
DWIDTH 16 0
BBX 13 13 2 -1
BITMAP
26C0
1B20
0240
0780
1A00
2020
2E50
1150
7120
9250
9208
6108
00F0
ENDCHAR
STARTCHAR uniE58D
ENCODING 58765
SWIDTH 1000 0
DWIDTH 16 0
BBX 13 14 2 -1
BITMAP
1000
0C00
0000
2020
1850
0808
7010
8C80
B240
4440
0840
1020
1020
0FC0
ENDCHAR
STARTCHAR uniE58E
ENCODING 58766
SWIDTH 1000 0
DWIDTH 16 0
BBX 12 13 2 0
BITMAP
1100
0E00
0200
0400
0800
1000
2000
49E0
BA10
8A10
0A20
0A40
0400
ENDCHAR
STARTCHAR uniE58F
ENCODING 58767
SWIDTH 1000 0
DWIDTH 16 0
BBX 14 13 1 0
BITMAP
0800
0800
09C0
2A20
4C40
5830
6808
4888
4948
A9C8
AB68
9550
6AAC
ENDCHAR
STARTCHAR uniE590
ENCODING 58768
SWIDTH 1000 0
DWIDTH 16 0
BBX 10 15 3 -1
BITMAP
0800
0400
0400
7800
9400
6400
0800
1700
3C80
4440
8440
0780
0400
0400
0800
ENDCHAR
STARTCHAR uniE591
ENCODING 58769
SWIDTH 1000 0
DWIDTH 16 0
BBX 14 14 1 -1
BITMAP
1100
1080
17E0
2100
21C0
4020
A040
2818
27E4
2008
2420
2510
2620
0040
ENDCHAR
STARTCHAR uniE592
ENCODING 58770
SWIDTH 1000 0
DWIDTH 16 0
BBX 13 14 2 -1
BITMAP
0800
90C0
B520
5A40
3430
4A08
9270
0D00
0440
29C0
1E00
1080
2140
2020
ENDCHAR
STARTCHAR uniE593
ENCODING 58771
SWIDTH 1000 0
DWIDTH 16 0
BBX 14 14 1 -1
BITMAP
0400
2920
4B50
6C58
1984
2698
1860
25A0
183C
53C0
9C50
6848
0C80
0100
ENDCHAR
STARTCHAR uniE594
ENCODING 58772
SWIDTH 1000 0
DWIDTH 16 0
BBX 12 14 2 -1
BITMAP
1100
0F00
0200
0C00
1100
26C0
4920
5510
AFD0
D510
81E0
2600
2020
1FC0
ENDCHAR
STARTCHAR uniE595
ENCODING 58773
SWIDTH 1000 0
DWIDTH 16 0
BBX 12 15 2 -1
BITMAP
0800
0400
0A00
1400
0780
0840
1580
0400
0780
0840
1440
4840
B780
8000
7FF0
ENDCHAR
STARTCHAR uniE596
ENCODING 58774
SWIDTH 1000 0
DWIDTH 16 0
BBX 14 13 1 0
BITMAP
4000
2000
1070
0788
8888
4888
4888
8908
8A08
8C50
8020
8000
7FFC
ENDCHAR
STARTCHAR uniE597
ENCODING 58775
SWIDTH 1000 0
DWIDTH 16 0
BBX 14 9 1 1
BITMAP
0600
0900
1100
9100
6080
0078
0004
0008
0010
ENDCHAR
STARTCHAR uniE598
ENCODING 58776
SWIDTH 1000 0
DWIDTH 16 0
BBX 14 14 1 -1
BITMAP
1000
0920
0A10
1290
2120
20C0
4140
8258
41E0
4040
5558
5544
52C4
2040
ENDCHAR
STARTCHAR uniE599
ENCODING 58777
SWIDTH 1000 0
DWIDTH 16 0
BBX 13 14 2 -1
BITMAP
8000
43C0
2440
4840
4840
5140
92C0
A540
A540
A4F8
A440
A240
4140
4080
ENDCHAR
STARTCHAR uniE59A
ENCODING 58778
SWIDTH 1000 0
DWIDTH 16 0
BBX 13 14 1 -1
BITMAP
1000
1000
1070
9488
7908
1288
14B0
1880
B080
5080
10A0
5090
3108
1208
ENDCHAR
STARTCHAR uniE59B
ENCODING 58779
SWIDTH 1000 0
DWIDTH 16 0
BBX 8 14 4 -1
BITMAP
0E
91
7E
20
4C
8A
FC
08
7C
8A
9C
4B
38
08
ENDCHAR
STARTCHAR uniE59C
ENCODING 58780
SWIDTH 1000 0
DWIDTH 16 0
BBX 12 14 2 -1
BITMAP
0E00
0100
01E0
BE10
40A0
3940
2A80
1C60
1180
2E00
1500
0E00
1180
6060
ENDCHAR
STARTCHAR uniE59D
ENCODING 58781
SWIDTH 1000 0
DWIDTH 16 0
BBX 12 14 3 -1
BITMAP
1000
0800
0E00
1A40
6C20
8920
38A0
4890
4890
9F00
6800
2800
1800
0800
ENDCHAR
STARTCHAR uniE59E
ENCODING 58782
SWIDTH 1000 0
DWIDTH 16 0
BBX 12 13 2 -1
BITMAP
8C00
5200
3C00
1040
2620
4910
4910
3E00
0800
0800
0800
0800
0800
ENDCHAR
STARTCHAR uniE59F
ENCODING 58783
SWIDTH 1000 0
DWIDTH 16 0
BBX 11 15 2 -1
BITMAP
0400
0200
0300
2600
4B00
8A60
87A0
9820
61C0
0E00
0180
0E00
0180
0E00
01E0
ENDCHAR
STARTCHAR uniE5A0
ENCODING 58784
SWIDTH 1000 0
DWIDTH 16 0
BBX 10 11 3 0
BITMAP
83C0
7C40
0080
1100
0900
0880
0880
1080
2880
4700
8000
ENDCHAR
STARTCHAR uniE5A1
ENCODING 58785
SWIDTH 1000 0
DWIDTH 16 0
BBX 14 14 1 -1
BITMAP
0400
0200
0200
2FE0
1220
0200
0A40
1240
0F80
0220
1258
9204
6604
0200
ENDCHAR
STARTCHAR uniE5A2
ENCODING 58786
SWIDTH 1000 0
DWIDTH 16 0
BBX 10 13 3 0
BITMAP
0800
0400
0400
0780
BC40
4440
0440
0780
0400
7C00
8700
8480
7840
ENDCHAR
STARTCHAR uniE5A3
ENCODING 58787
SWIDTH 1000 0
DWIDTH 16 0
BBX 12 13 2 0
BITMAP
8180
4240
4220
47C0
8A00
83C0
8020
8210
8510
A790
AD50
B520
4BD0
ENDCHAR
STARTCHAR uniE5A4
ENCODING 58788
SWIDTH 1000 0
DWIDTH 16 0
BBX 14 14 1 -1
BITMAP
1000
0800
0800
0BC0
1C20
1320
2520
4920
5FE0
A930
2E28
1844
0980
0600
ENDCHAR
STARTCHAR uniE5A5
ENCODING 58789
SWIDTH 1000 0
DWIDTH 16 0
BBX 12 14 2 -1
BITMAP
2180
2C40
1180
0600
1980
0200
0C00
1000
0E00
03E0
9E10
A210
4220
02C0
ENDCHAR
STARTCHAR uniE5A6
ENCODING 58790
SWIDTH 1000 0
DWIDTH 16 0
BBX 14 14 1 -1
BITMAP
0600
0180
0630
00C0
7F40
0A70
13D0
2E60
23C0
4640
9BF8
A244
83C0
0240
ENDCHAR
STARTCHAR uniE5A7
ENCODING 58791
SWIDTH 1000 0
DWIDTH 16 0
BBX 8 12 4 0
BITMAP
60
1E
00
80
60
18
20
40
80
80
40
3F
ENDCHAR
STARTCHAR uniE5A8
ENCODING 58792
SWIDTH 1000 0
DWIDTH 16 0
BBX 12 14 2 -1
BITMAP
0400
8400
4420
5750
0C10
4410
8620
8E90
9490
AF10
A410
AC20
5440
0180
ENDCHAR
STARTCHAR uniE5A9
ENCODING 58793
SWIDTH 1000 0
DWIDTH 16 0
BBX 10 14 3 -1
BITMAP
2300
2880
1100
0200
0E00
1200
1400
0800
3180
4600
F800
1E00
2180
4040
ENDCHAR
STARTCHAR uniE5AA
ENCODING 58794
SWIDTH 1000 0
DWIDTH 16 0
BBX 12 14 2 -1
BITMAP
2100
2880
1100
0600
0800
0600
0200
0420
3FF0
4820
8840
9040
6180
0600
ENDCHAR
STARTCHAR uniE5AB
ENCODING 58795
SWIDTH 1000 0
DWIDTH 16 0
BBX 13 14 1 -1
BITMAP
1000
0F80
0080
0100
0200
03E0
3E10
4408
8808
8808
7010
0010
0060
0180
ENDCHAR
STARTCHAR uniE5AC
ENCODING 58796
SWIDTH 1000 0
DWIDTH 16 0
BBX 11 13 2 0
BITMAP
0300
2C80
1040
0040
0840
0480
0700
0800
1000
2C00
2200
4200
81E0
ENDCHAR
STARTCHAR uniE5AD
ENCODING 58797
SWIDTH 1000 0
DWIDTH 16 0
BBX 11 14 2 -1
BITMAP
0800
0640
0820
0040
2680
4900
3280
0280
0480
1880
2080
4880
8500
0200
ENDCHAR
STARTCHAR uniE5AE
ENCODING 58798
SWIDTH 1000 0
DWIDTH 16 0
BBX 13 14 2 -1
BITMAP
2000
1000
9240
7C20
1010
1008
7878
A408
A440
4840
1040
2020
2020
1FC0
ENDCHAR
STARTCHAR uniE5AF
ENCODING 58799
SWIDTH 1000 0
DWIDTH 16 0
BBX 14 14 1 -1
BITMAP
0940
12A0
0820
81FC
7E40
0080
0780
0880
0780
0100
0200
0180
0200
01E0
ENDCHAR
STARTCHAR uniE5B0
ENCODING 58800
SWIDTH 1000 0
DWIDTH 16 0
BBX 9 14 3 -1
BITMAP
4000
2300
4C80
F180
0A00
1C00
2800
1E00
2800
1F80
0800
0800
0800
1000
ENDCHAR
STARTCHAR uniE5B1
ENCODING 58801
SWIDTH 1000 0
DWIDTH 16 0
BBX 13 14 2 -1
BITMAP
1300
1500
09F0
BF00
4480
09C0
12D0
0D90
0AA0
39C0
4890
8888
9188
6080
ENDCHAR
STARTCHAR uniE5B2
ENCODING 58802
SWIDTH 1000 0
DWIDTH 16 0
BBX 12 13 2 0
BITMAP
1200
0900
1100
69C0
1220
1C20
6420
07C0
0800
1200
1500
A100
C0F0
ENDCHAR
STARTCHAR uniE5B3
ENCODING 58803
SWIDTH 1000 0
DWIDTH 16 0
BBX 12 13 2 0
BITMAP
0400
3E00
0800
13E0
2410
4A10
5110
A110
D510
9A10
2520
0940
1E80
ENDCHAR
STARTCHAR uniE5B4
ENCODING 58804
SWIDTH 1000 0
DWIDTH 16 0
BBX 12 12 2 0
BITMAP
BFF0
4000
0000
0480
0300
0100
0200
01C0
0020
1820
2440
1F80
ENDCHAR
STARTCHAR uniE5B5
ENCODING 58805
SWIDTH 1000 0
DWIDTH 16 0
BBX 14 14 1 -1
BITMAP
01C0
0220
0820
1320
1120
1220
3FF8
5424
9420
1920
7F20
0020
08C0
0700
ENDCHAR
STARTCHAR uniE5B6
ENCODING 58806
SWIDTH 1000 0
DWIDTH 16 0
BBX 9 14 4 -1
BITMAP
1000
0C00
1000
2000
9000
9200
5100
A080
A080
7C80
2080
2080
2100
1E00
ENDCHAR
STARTCHAR uniE5B7
ENCODING 58807
SWIDTH 1000 0
DWIDTH 16 0
BBX 11 13 3 0
BITMAP
2000
1C00
0000
4000
3800
2000
4C00
9200
7C00
1020
1040
1080
0F00
ENDCHAR
STARTCHAR uniE5B8
ENCODING 58808
SWIDTH 1000 0
DWIDTH 16 0
BBX 7 15 4 -2
BITMAP
10
08
88
88
48
28
10
28
24
22
22
16
0A
02
02
ENDCHAR
STARTCHAR uniE5B9
ENCODING 58809
SWIDTH 1000 0
DWIDTH 16 0
BBX 13 14 2 -1
BITMAP
0400
0A10
8928
7E08
1000
2300
4C00
5280
6100
0100
1290
1490
0850
0020
ENDCHAR
STARTCHAR uniE5BA
ENCODING 58810
SWIDTH 1000 0
DWIDTH 16 0
BBX 11 14 3 -1
BITMAP
0B00
4C80
5B00
2C80
1840
6380
8C00
0300
0C00
1000
29C0
4A20
8C40
0980
ENDCHAR
STARTCHAR uniE5BB
ENCODING 58811
SWIDTH 1000 0
DWIDTH 16 0
BBX 13 13 1 -1
BITMAP
0200
0570
0588
0688
B888
4488
03F0
0080
0080
0080
0080
0100
0100
ENDCHAR
STARTCHAR uniE5BC
ENCODING 58812
SWIDTH 1000 0
DWIDTH 16 0
BBX 14 12 1 0
BITMAP
1000
2800
21F8
1204
BC04
4804
0888
0470
0400
0200
0200
0100
ENDCHAR
STARTCHAR uniE5BD
ENCODING 58813
SWIDTH 1000 0
DWIDTH 16 0
BBX 14 14 1 -1
BITMAP
2400
1200
1400
5800
31E0
1610
5990
3250
5220
51C0
9E00
11E0
7018
1004
ENDCHAR
STARTCHAR uniE5BE
ENCODING 58814
SWIDTH 1000 0
DWIDTH 16 0
BBX 13 14 2 -1
BITMAP
0300
1C00
0400
0900
1290
1CA8
2108
2600
4100
4320
8520
8320
8C20
03C0
ENDCHAR
STARTCHAR uniE5BF
ENCODING 58815
SWIDTH 1000 0
DWIDTH 16 0
BBX 12 14 2 -1
BITMAP
1000
0800
0980
4240
5C40
2080
5160
5010
9020
90C0
A100
4080
0040
0020
ENDCHAR
STARTCHAR uniE5C0
ENCODING 58816
SWIDTH 1000 0
DWIDTH 16 0
BBX 12 14 2 -1
BITMAP
4000
3820
00D0
4310
2C20
1120
12A0
1290
6A90
8A90
89F0
9080
6080
0100
ENDCHAR
STARTCHAR uniE5C1
ENCODING 58817
SWIDTH 1000 0
DWIDTH 16 0
BBX 14 14 1 -1
BITMAP
0400
4200
2210
22A8
4F28
4248
4290
4310
827C
9690
AA90
AA50
4620
0200
ENDCHAR
STARTCHAR uniE5C2
ENCODING 58818
SWIDTH 1000 0
DWIDTH 16 0
BBX 12 14 2 -1
BITMAP
0400
0200
8200
47C0
4A20
9210
E210
8790
9A10
A220
9240
0F80
0400
0400
ENDCHAR
STARTCHAR uniE5C3
ENCODING 58819
SWIDTH 1000 0
DWIDTH 16 0
BBX 13 12 1 0
BITMAP
0700
0880
11E0
2690
2888
B108
5108
10C8
1008
1010
0C20
03C0
ENDCHAR
STARTCHAR uniE5C4
ENCODING 58820
SWIDTH 1000 0
DWIDTH 16 0
BBX 12 14 2 -1
BITMAP
1000
1000
10C0
7920
1240
1480
1870
B3C0
5440
5340
3080
9000
8000
7FE0
ENDCHAR
STARTCHAR uniE5C5
ENCODING 58821
SWIDTH 1000 0
DWIDTH 16 0
BBX 14 14 1 -1
BITMAP
0080
1148
0924
1144
2188
4680
A880
2880
3080
2048
2048
2028
2018
0008
ENDCHAR
STARTCHAR uniE5C6
ENCODING 58822
SWIDTH 1000 0
DWIDTH 16 0
BBX 7 14 4 -1
BITMAP
40
20
4E
90
E8
08
38
48
98
A8
5E
28
18
08
ENDCHAR
STARTCHAR uniE5C7
ENCODING 58823
SWIDTH 1000 0
DWIDTH 16 0
BBX 13 14 2 -1
BITMAP
0400
0200
0400
0640
0580
0800
0600
0100
83F8
7C80
2100
2100
1200
0C00
ENDCHAR
STARTCHAR uniE5C8
ENCODING 58824
SWIDTH 1000 0
DWIDTH 16 0
BBX 7 12 5 0
BITMAP
40
40
50
4E
40
58
E4
02
02
62
94
78
ENDCHAR
STARTCHAR uniE5C9
ENCODING 58825
SWIDTH 1000 0
DWIDTH 16 0
BBX 8 13 4 0
BITMAP
40
20
20
48
47
40
80
B0
48
10
20
20
1F
ENDCHAR
STARTCHAR uniE5CA
ENCODING 58826
SWIDTH 1000 0
DWIDTH 16 0
BBX 14 14 1 -1
BITMAP
1100
1080
20A0
20D0
4110
F820
01A0
2260
2AA0
2AAC
2A70
2920
10E0
0020
ENDCHAR
STARTCHAR uniE5CB
ENCODING 58827
SWIDTH 1000 0
DWIDTH 16 0
BBX 12 14 2 -1
BITMAP
01C0
9E20
6020
03C0
0000
1300
2540
3AE0
2140
50E0
9140
90C0
6100
00F0
ENDCHAR
STARTCHAR uniE5CC
ENCODING 58828
SWIDTH 1000 0
DWIDTH 16 0
BBX 10 14 4 -1
BITMAP
4000
3C00
2000
4800
3400
0400
F800
8200
8D00
9100
A200
A200
4180
0040
ENDCHAR
STARTCHAR uniE5CD
ENCODING 58829
SWIDTH 1000 0
DWIDTH 16 0
BBX 9 13 4 0
BITMAP
7800
0400
0800
1000
0C00
4400
7800
4000
4000
4E00
5100
9080
6100
ENDCHAR
STARTCHAR uniE5CE
ENCODING 58830
SWIDTH 1000 0
DWIDTH 16 0
BBX 8 14 5 -1
BITMAP
40
20
20
40
40
40
4C
F2
01
01
02
04
18
E0
ENDCHAR
STARTCHAR uniE5CF
ENCODING 58831
SWIDTH 1000 0
DWIDTH 16 0
BBX 13 14 1 -1
BITMAP
1000
0800
1020
2050
1350
3488
5488
8888
1808
2808
4810
A820
1020
0040
ENDCHAR
STARTCHAR uniE5D0
ENCODING 58832
SWIDTH 1000 0
DWIDTH 16 0
BBX 13 14 1 -1
BITMAP
0800
0400
0800
0800
3CF0
4908
7A08
4C08
3808
6808
A810
1820
0840
0180
ENDCHAR
STARTCHAR uniE5D1
ENCODING 58833
SWIDTH 1000 0
DWIDTH 16 0
BBX 11 14 3 -1
BITMAP
0800
2500
1E00
4400
2FC0
3420
4DC0
8800
1E00
0200
3F80
4240
3200
0C00
ENDCHAR
STARTCHAR uniE5D2
ENCODING 58834
SWIDTH 1000 0
DWIDTH 16 0
BBX 10 14 3 -1
BITMAP
2000
1000
2080
E540
5A40
B040
D180
9600
6480
2F00
0400
A480
AC40
4440
ENDCHAR
STARTCHAR uniE5D3
ENCODING 58835
SWIDTH 1000 0
DWIDTH 16 0
BBX 13 12 1 0
BITMAP
10F0
7108
1208
1250
30E0
5040
5440
35E0
4A40
51C0
E200
01F8
ENDCHAR
STARTCHAR uniE5D4
ENCODING 58836
SWIDTH 1000 0
DWIDTH 16 0
BBX 10 12 3 0
BITMAP
0F80
B040
4040
0880
1500
0E00
0400
1E00
2400
1C00
2000
1F00
ENDCHAR
STARTCHAR uniE5D5
ENCODING 58837
SWIDTH 1000 0
DWIDTH 16 0
BBX 12 13 2 0
BITMAP
4100
2080
78A0
1130
29E0
5520
7860
20A0
5CE0
66A0
9C60
A480
99F0
ENDCHAR
STARTCHAR uniE5D6
ENCODING 58838
SWIDTH 1000 0
DWIDTH 16 0
BBX 13 13 2 0
BITMAP
8000
40C0
4120
4920
87C0
8200
8380
8040
A050
A848
B248
AC40
4380
ENDCHAR
STARTCHAR uniE5D7
ENCODING 58839
SWIDTH 1000 0
DWIDTH 16 0
BBX 11 13 3 -1
BITMAP
8B80
A440
4180
0600
0800
3F00
C080
1840
2440
7F40
A880
9140
6E20
ENDCHAR
STARTCHAR uniE5D8
ENCODING 58840
SWIDTH 1000 0
DWIDTH 16 0
BBX 10 12 3 0
BITMAP
8B80
A440
4180
0200
0C00
1000
3F80
C040
8040
1C40
2240
1F80
ENDCHAR
STARTCHAR uniE5D9
ENCODING 58841
SWIDTH 1000 0
DWIDTH 16 0
BBX 10 11 3 0
BITMAP
1F00
A080
4080
0040
0040
0040
0040
0040
1880
2500
1E00
ENDCHAR
STARTCHAR uniE5DA
ENCODING 58842
SWIDTH 1000 0
DWIDTH 16 0
BBX 14 14 1 -1
BITMAP
01C0
1620
0820
0120
03C0
0100
0200
0180
0050
4C48
9044
A044
4880
0700
ENDCHAR
STARTCHAR uniE5DB
ENCODING 58843
SWIDTH 1000 0
DWIDTH 16 0
BBX 13 13 1 0
BITMAP
0800
8C30
7850
0890
1D20
2920
1A10
2C10
1020
2840
4840
4840
3038
ENDCHAR
STARTCHAR uniE5DC
ENCODING 58844
SWIDTH 1000 0
DWIDTH 16 0
BBX 14 14 1 -1
BITMAP
2130
1950
2090
007C
B090
5320
1478
5988
5030
70C0
5038
D0C0
3020
101C
ENDCHAR
STARTCHAR uniE5DD
ENCODING 58845
SWIDTH 1000 0
DWIDTH 16 0
BBX 13 14 2 -1
BITMAP
1000
0C00
3000
0180
B240
5440
1840
5040
5040
7048
5048
5030
B000
1000
ENDCHAR
STARTCHAR uniE5DE
ENCODING 58846
SWIDTH 1000 0
DWIDTH 16 0
BBX 10 14 3 -1
BITMAP
0200
4500
3400
0400
2500
4500
3480
4480
3F00
0400
7C00
8400
4040
3F80
ENDCHAR
STARTCHAR uniE5DF
ENCODING 58847
SWIDTH 1000 0
DWIDTH 16 0
BBX 13 15 1 -1
BITMAP
0080
0F00
0200
0540
07A0
3D20
0540
05E0
2700
1900
0640
08A0
1A30
AA08
C4F0
ENDCHAR
STARTCHAR uniE5E0
ENCODING 58848
SWIDTH 1000 0
DWIDTH 16 0
BBX 8 13 4 -1
BITMAP
9C
A2
A2
4C
10
20
4E
91
A1
A2
44
08
07
ENDCHAR
STARTCHAR uniE5E1
ENCODING 58849
SWIDTH 1000 0
DWIDTH 16 0
BBX 12 13 2 -1
BITMAP
2F00
1080
0300
0400
0980
1640
2840
7080
8100
8100
0200
0210
01E0
ENDCHAR
STARTCHAR uniE5E2
ENCODING 58850
SWIDTH 1000 0
DWIDTH 16 0
BBX 13 15 1 -2
BITMAP
0400
0280
1240
0B80
0220
23C0
1E80
03E0
1E90
6308
8608
4A90
3110
0060
0180
ENDCHAR
STARTCHAR uniE5E3
ENCODING 58851
SWIDTH 1000 0
DWIDTH 16 0
BBX 14 14 1 -1
BITMAP
20A0
2090
22A0
2BC0
F0F0
2780
60A0
A8F0
B3A8
64C4
2884
2588
6290
20A0
ENDCHAR
STARTCHAR uniE5E4
ENCODING 58852
SWIDTH 1000 0
DWIDTH 16 0
BBX 14 14 1 -1
BITMAP
0080
2040
1880
21E0
0020
9040
71F0
1250
2490
2328
2804
2808
1030
01C0
ENDCHAR
STARTCHAR uniE5E5
ENCODING 58853
SWIDTH 1000 0
DWIDTH 16 0
BBX 13 14 1 -1
BITMAP
0F00
0070
4F88
3430
0200
0480
3100
11C0
E060
23D0
4490
5538
2208
0070
ENDCHAR
STARTCHAR uniE5E6
ENCODING 58854
SWIDTH 1000 0
DWIDTH 16 0
BBX 13 14 1 -1
BITMAP
2080
1040
1180
20C0
47A0
8AC0
8180
40E0
4140
5370
5688
5948
2690
0020
ENDCHAR
STARTCHAR uniE5E7
ENCODING 58855
SWIDTH 1000 0
DWIDTH 16 0
BBX 14 14 1 -1
BITMAP
0400
0200
0400
0800
1C00
2C00
49B8
1E44
2444
4C04
5418
A420
1800
0800
ENDCHAR
STARTCHAR uniE5E8
ENCODING 58856
SWIDTH 1000 0
DWIDTH 16 0
BBX 12 14 2 -1
BITMAP
2000
1000
1000
11C0
A620
7810
2010
2010
2010
2020
2020
1040
1180
1000
ENDCHAR
STARTCHAR uniE5E9
ENCODING 58857
SWIDTH 1000 0
DWIDTH 16 0
BBX 6 11 4 0
BITMAP
58
24
04
04
64
94
88
50
20
40
3C
ENDCHAR
STARTCHAR uniE5EA
ENCODING 58858
SWIDTH 1000 0
DWIDTH 16 0
BBX 9 12 3 0
BITMAP
0F00
B080
4080
0080
0080
0080
1B00
1C00
0800
1000
1000
0F00
ENDCHAR
STARTCHAR uniE5EB
ENCODING 58859
SWIDTH 1000 0
DWIDTH 16 0
BBX 12 14 2 -1
BITMAP
0180
1080
10C0
91A0
7FA0
2080
2090
60E0
AF80
7080
2080
1080
1100
0100
ENDCHAR
STARTCHAR uniE5EC
ENCODING 58860
SWIDTH 1000 0
DWIDTH 16 0
BBX 13 13 1 -1
BITMAP
0660
1290
1490
5888
28F8
0F40
3840
4840
8840
4840
3040
0040
0080
ENDCHAR
STARTCHAR uniE5ED
ENCODING 58861
SWIDTH 1000 0
DWIDTH 16 0
BBX 11 14 2 -1
BITMAP
0100
2F00
1100
0200
0480
0900
13E0
3D00
2100
43C0
8020
8020
80C0
0700
ENDCHAR
STARTCHAR uniE5EE
ENCODING 58862
SWIDTH 1000 0
DWIDTH 16 0
BBX 12 14 2 -1
BITMAP
2300
1D00
0100
0E80
3480
4500
8880
B300
44E0
0810
0010
1E10
2160
1F80
ENDCHAR
STARTCHAR uniE5EF
ENCODING 58863
SWIDTH 1000 0
DWIDTH 16 0
BBX 10 14 3 -1
BITMAP
0800
0500
2500
3E00
0480
1C40
2780
7C00
0200
4300
9080
8F00
4000
3FC0
ENDCHAR
STARTCHAR uniE5F0
ENCODING 58864
SWIDTH 1000 0
DWIDTH 16 0
BBX 13 14 2 -1
BITMAP
0200
0380
3C00
0980
1640
2840
1640
3D40
5640
2F80
0800
30E0
4D10
8208
ENDCHAR
STARTCHAR uniE5F1
ENCODING 58865
SWIDTH 1000 0
DWIDTH 16 0
BBX 13 14 2 -1
BITMAP
0200
8210
8A88
4708
4218
8200
8700
8A60
AB90
A608
AA08
CA08
8090
0060
ENDCHAR
STARTCHAR uniE5F2
ENCODING 58866
SWIDTH 1000 0
DWIDTH 16 0
BBX 13 14 2 -1
BITMAP
0800
4400
2400
1400
45F0
7608
2408
4FF0
9400
E770
1C88
A408
D4F0
0C00
ENDCHAR
STARTCHAR uniE5F3
ENCODING 58867
SWIDTH 1000 0
DWIDTH 16 0
BBX 13 15 2 -2
BITMAP
0400
2480
1F00
0400
0E00
1620
0C50
7710
9CA0
9710
A408
4410
0420
00C0
0300
ENDCHAR
STARTCHAR uniE5F4
ENCODING 58868
SWIDTH 1000 0
DWIDTH 16 0
BBX 10 14 3 -1
BITMAP
0400
0200
1C00
0180
4E40
9040
A780
4400
0400
1F00
2480
2400
1C00
0400
ENDCHAR
STARTCHAR uniE5F5
ENCODING 58869
SWIDTH 1000 0
DWIDTH 16 0
BBX 7 16 4 -2
BITMAP
10
08
04
20
20
1C
20
48
8E
78
08
08
08
08
10
20
ENDCHAR
STARTCHAR uniE5F6
ENCODING 58870
SWIDTH 1000 0
DWIDTH 16 0
BBX 13 12 1 0
BITMAP
0F00
0100
0200
0480
0500
0A80
13C0
1480
2928
A7C8
4108
40F0
ENDCHAR
STARTCHAR uniE5F7
ENCODING 58871
SWIDTH 1000 0
DWIDTH 16 0
BBX 13 14 1 -1
BITMAP
20C0
2020
1020
08F8
1340
0C50
18F8
2B20
4840
8980
8A70
8A48
5208
2030
ENDCHAR
STARTCHAR uniE5F8
ENCODING 58872
SWIDTH 1000 0
DWIDTH 16 0
BBX 13 13 1 0
BITMAP
2180
1140
1520
F940
2180
4280
2480
1490
2450
4C20
5468
54A8
2318
ENDCHAR
STARTCHAR uniE5F9
ENCODING 58873
SWIDTH 1000 0
DWIDTH 16 0
BBX 13 14 1 -1
BITMAP
0400
0280
1F00
0400
09E0
1240
9C90
6108
0670
0180
0280
0480
0410
03E0
ENDCHAR
STARTCHAR uniE5FA
ENCODING 58874
SWIDTH 1000 0
DWIDTH 16 0
BBX 13 12 1 0
BITMAP
9000
7818
1008
0810
0420
02C0
0100
0280
0400
0800
0800
07C0
ENDCHAR
STARTCHAR uniE5FB
ENCODING 58875
SWIDTH 1000 0
DWIDTH 16 0
BBX 13 13 2 0
BITMAP
1000
0F80
0200
0400
0380
0100
0600
0800
1000
2808
4410
8220
81C0
ENDCHAR
STARTCHAR uniE5FC
ENCODING 58876
SWIDTH 1000 0
DWIDTH 16 0
BBX 12 13 2 0
BITMAP
0800
0780
0000
1180
2240
1440
2580
1E00
0800
1C00
2200
4200
81F0
ENDCHAR
STARTCHAR uniE5FD
ENCODING 58877
SWIDTH 1000 0
DWIDTH 16 0
BBX 11 14 4 -1
BITMAP
1000
0800
9200
7C00
2080
2240
4120
A080
A000
2000
2000
2000
1000
0F80
ENDCHAR
STARTCHAR uniE5FE
ENCODING 58878
SWIDTH 1000 0
DWIDTH 16 0
BBX 15 13 1 0
BITMAP
0804
0812
09E8
2A20
4C40
4830
5808
6888
4948
A9C8
A968
9290
696C
ENDCHAR
STARTCHAR uniE5FF
ENCODING 58879
SWIDTH 1000 0
DWIDTH 16 0
BBX 15 13 1 0
BITMAP
0804
080A
09E4
2A20
4C40
4830
5808
6888
4948
A9C8
A968
9290
696C
ENDCHAR
STARTCHAR uniE600
ENCODING 58880
SWIDTH 1000 0
DWIDTH 16 0
BBX 15 15 1 0
BITMAP
2320
1590
26A0
1594
8302
44C4
8B42
4820
0AA0
1450
0920
13A0
14A0
14A0
0840
ENDCHAR
STARTCHAR uniE601
ENCODING 58881
SWIDTH 1000 0
DWIDTH 16 0
BBX 14 14 1 0
BITMAP
0FF0
1FF8
1FFC
3CCC
3AAC
3D5C
52AC
588C
759C
B26C
B58C
B878
4554
4224
ENDCHAR
STARTCHAR uniE602
ENCODING 58882
SWIDTH 1000 0
DWIDTH 16 0
BBX 16 16 0 0
BITMAP
0180
0E70
1408
3404
4FE2
8422
87E1
8521
87E1
8561
86A2
4572
46AC
27E4
1818
07E0
ENDCHAR
STARTCHAR uniE603
ENCODING 58883
SWIDTH 1000 0
DWIDTH 16 0
BBX 14 16 1 0
BITMAP
FFFC
C00C
BFF4
A314
A494
B7F4
AC94
AB94
B4F4
ABF4
BB54
AAB4
B554
BFF4
C00C
FFFC
ENDCHAR
STARTCHAR uniE604
ENCODING 58884
SWIDTH 1000 0
DWIDTH 16 0
BBX 16 11 0 2
BITMAP
FFFF
8A01
8BFF
8A95
FFFF
AAAB
EAAB
AAAB
BAAB
A801
FFFF
ENDCHAR
STARTCHAR uniE605
ENCODING 58885
SWIDTH 1000 0
DWIDTH 16 0
BBX 11 15 3 0
BITMAP
03E0
0220
0220
0220
0220
0220
0220
03E0
0420
0B60
14A0
2B40
7E80
8300
FE00
ENDCHAR
STARTCHAR uniE606
ENCODING 58886
SWIDTH 1000 0
DWIDTH 16 0
BBX 10 15 5 0
BITMAP
1DC0
D500
DDC0
C100
FD00
8400
FDC0
8500
85C0
FD00
AD00
D400
AC00
D400
FC00
ENDCHAR
STARTCHAR uniE607
ENCODING 58887
SWIDTH 1000 0
DWIDTH 16 0
BBX 6 14 5 0
BITMAP
C0
C0
C0
FC
84
FC
84
84
FC
AC
D4
AC
D4
FC
ENDCHAR
STARTCHAR uniE608
ENCODING 58888
SWIDTH 1000 0
DWIDTH 16 0
BBX 12 14 1 0
BITMAP
0300
0300
0300
03F0
2210
33F0
FA10
FA10
33F0
22B0
0350
02B0
0350
03F0
ENDCHAR
STARTCHAR uniE609
ENCODING 58889
SWIDTH 1000 0
DWIDTH 16 0
BBX 14 14 1 0
BITMAP
0C00
3C78
4C84
8FC4
8844
8FC4
4844
2848
1FD0
1AE0
0D40
0AC0
0D40
0FC0
ENDCHAR
STARTCHAR uniE60A
ENCODING 58890
SWIDTH 909 0
DWIDTH 16 0
BBX 13 13 1 0
BITMAP
38E0
4510
8208
8008
8F88
8888
4890
28A0
18C0
0D80
0A80
0880
0F80
ENDCHAR
STARTCHAR uniE60B
ENCODING 58891
SWIDTH 1000 0
DWIDTH 16 0
BBX 14 12 1 0
BITMAP
0F80
0880
0F80
0000
0F80
2010
4008
F87C
8844
FB7C
0000
F87C
ENDCHAR
STARTCHAR uniE60C
ENCODING 58892
SWIDTH 1000 0
DWIDTH 16 0
BBX 16 15 0 0
BITMAP
DBA7
93A4
DAB7
1FF8
F008
B008
BFF8
1558
1AA8
1558
1AA8
1558
1AA8
1558
1FF8
ENDCHAR
STARTCHAR uniE60D
ENCODING 58893
SWIDTH 1000 0
DWIDTH 16 0
BBX 16 15 0 0
BITMAP
FFFF
8801
8801
F801
A801
8981
FA41
8241
8181
8001
8FF1
8851
8FF2
8004
FFF8
ENDCHAR
STARTCHAR uniE60E
ENCODING 58894
SWIDTH 1000 0
DWIDTH 16 0
BBX 16 15 0 0
BITMAP
FFFF
A005
AAD5
AED5
AE55
A005
A7E5
A005
A005
BFFD
8B89
8A89
4A89
2B89
1FFF
ENDCHAR
STARTCHAR uniE60F
ENCODING 58895
SWIDTH 1000 0
DWIDTH 16 0
BBX 16 16 0 0
BITMAP
FFFF
8011
8017
8014
8014
FFF7
8001
8181
8241
8181
8001
81C1
8141
8141
8141
FFFF
ENDCHAR
STARTCHAR uniE610
ENCODING 58896
SWIDTH 1000 0
DWIDTH 16 0
BBX 16 10 0 2
BITMAP
FFFF
8001
FFFF
A6EB
96A5
FFFF
F3A9
FF91
BF01
FFFF
ENDCHAR
STARTCHAR uniE611
ENCODING 58897
SWIDTH 1000 0
DWIDTH 16 0
BBX 16 11 0 3
BITMAP
0001
001E
03E0
3C00
4000
FFFF
AAB5
FFDF
8071
805F
FFFF
ENDCHAR
STARTCHAR uniE612
ENCODING 58898
SWIDTH 1000 0
DWIDTH 16 0
BBX 14 13 1 0
BITMAP
7FF8
FFEC
AA34
BFAC
A0B4
AAAC
A0B4
BFAC
803C
FFF4
E7B4
AAA8
FFF0
ENDCHAR
STARTCHAR uniE613
ENCODING 58899
SWIDTH 1000 0
DWIDTH 16 0
BBX 15 15 1 0
BITMAP
2320
1590
26A0
1594
8302
44C4
8B42
4820
0AA0
1450
0920
13A0
14A0
14A0
0840
ENDCHAR
STARTCHAR uniE614
ENCODING 58900
SWIDTH 1000 0
DWIDTH 16 0
BBX 14 14 1 0
BITMAP
0FF0
1FF8
1FFC
3CCC
3AAC
3D5C
52AC
588C
759C
B26C
B58C
B878
4554
4224
ENDCHAR
STARTCHAR uniE615
ENCODING 58901
SWIDTH 1000 0
DWIDTH 16 0
BBX 16 16 0 0
BITMAP
0180
0E70
1408
3404
4FE2
8422
87E1
8521
87E1
8561
86A2
4572
46AC
27E4
1818
07E0
ENDCHAR
STARTCHAR uniE616
ENCODING 58902
SWIDTH 1000 0
DWIDTH 16 0
BBX 14 16 1 0
BITMAP
FFFC
C00C
BFF4
A314
A494
B7F4
AC94
AB94
B4F4
ABF4
BB54
AAB4
B554
BFF4
C00C
FFFC
ENDCHAR
STARTCHAR uniE617
ENCODING 58903
SWIDTH 1000 0
DWIDTH 16 0
BBX 15 15 1 0
BITMAP
2320
1590
26A0
1594
8302
44C4
8B42
4820
0AA0
1450
0920
13A0
14A0
14A0
0840
ENDCHAR
STARTCHAR uniE618
ENCODING 58904
SWIDTH 1000 0
DWIDTH 16 0
BBX 14 14 1 0
BITMAP
0FF0
1FF8
1FFC
3CCC
3AAC
3D5C
52AC
588C
759C
B26C
B58C
B878
4554
4224
ENDCHAR
STARTCHAR uniE619
ENCODING 58905
SWIDTH 1000 0
DWIDTH 16 0
BBX 16 16 0 0
BITMAP
0180
0E70
1408
3404
4FE2
8422
87E1
8521
87E1
8561
86A2
4572
46AC
27E4
1818
07E0
ENDCHAR
STARTCHAR uniE61A
ENCODING 58906
SWIDTH 1000 0
DWIDTH 16 0
BBX 14 16 1 0
BITMAP
FFFC
C00C
BFF4
A314
A494
B7F4
AC94
AB94
B4F4
ABF4
BB54
AAB4
B554
BFF4
C00C
FFFC
ENDCHAR
STARTCHAR uniE61B
ENCODING 58907
SWIDTH 1000 0
DWIDTH 16 0
BBX 16 11 0 2
BITMAP
FFFF
8A01
8BFF
8A95
FFFF
AAAB
EAAB
AAAB
BAAB
A801
FFFF
ENDCHAR
STARTCHAR uniE61C
ENCODING 58908
SWIDTH 1000 0
DWIDTH 16 0
BBX 11 15 3 0
BITMAP
03E0
0220
0220
0220
0220
0220
0220
03E0
0420
0B60
14A0
2B40
7E80
8300
FE00
ENDCHAR
STARTCHAR uniE61D
ENCODING 58909
SWIDTH 1000 0
DWIDTH 16 0
BBX 10 15 5 0
BITMAP
1DC0
D500
DDC0
C100
FD00
8400
FDC0
8500
85C0
FD00
AD00
D400
AC00
D400
FC00
ENDCHAR
STARTCHAR uniE61E
ENCODING 58910
SWIDTH 1000 0
DWIDTH 16 0
BBX 6 14 5 0
BITMAP
C0
C0
C0
FC
84
FC
84
84
FC
AC
D4
AC
D4
FC
ENDCHAR
STARTCHAR uniE61F
ENCODING 58911
SWIDTH 1000 0
DWIDTH 16 0
BBX 12 14 1 0
BITMAP
0300
0300
0300
03F0
2210
33F0
FA10
FA10
33F0
22B0
0350
02B0
0350
03F0
ENDCHAR
STARTCHAR uniE620
ENCODING 58912
SWIDTH 1000 0
DWIDTH 16 0
BBX 14 14 1 0
BITMAP
0C00
3C78
4C84
8FC4
8844
8FC4
4844
2848
1FD0
1AE0
0D40
0AC0
0D40
0FC0
ENDCHAR
STARTCHAR uniE621
ENCODING 58913
SWIDTH 909 0
DWIDTH 16 0
BBX 13 13 1 0
BITMAP
38E0
4510
8208
8008
8F88
8888
4890
28A0
18C0
0D80
0A80
0880
0F80
ENDCHAR
STARTCHAR uniE622
ENCODING 58914
SWIDTH 1000 0
DWIDTH 16 0
BBX 14 12 1 0
BITMAP
0F80
0880
0F80
0000
0F80
2010
4008
F87C
8844
FB7C
0000
F87C
ENDCHAR
STARTCHAR uniE623
ENCODING 58915
SWIDTH 1000 0
DWIDTH 16 0
BBX 16 15 0 0
BITMAP
DBA7
93A4
DAB7
1FF8
F008
B008
BFF8
1558
1AA8
1558
1AA8
1558
1AA8
1558
1FF8
ENDCHAR
STARTCHAR uniE624
ENCODING 58916
SWIDTH 1000 0
DWIDTH 16 0
BBX 16 15 0 0
BITMAP
FFFF
8801
8801
F801
A801
8981
FA41
8241
8181
8001
8FF1
8851
8FF2
8004
FFF8
ENDCHAR
STARTCHAR uniE625
ENCODING 58917
SWIDTH 1000 0
DWIDTH 16 0
BBX 16 15 0 0
BITMAP
FFFF
A005
AAD5
AED5
AE55
A005
A7E5
A005
A005
BFFD
8B89
8A89
4A89
2B89
1FFF
ENDCHAR
STARTCHAR uniE626
ENCODING 58918
SWIDTH 1000 0
DWIDTH 16 0
BBX 16 16 0 0
BITMAP
FFFF
8011
8017
8014
8014
FFF7
8001
8181
8241
8181
8001
81C1
8141
8141
8141
FFFF
ENDCHAR
STARTCHAR uniE627
ENCODING 58919
SWIDTH 1000 0
DWIDTH 16 0
BBX 16 10 0 2
BITMAP
FFFF
8001
FFFF
A6EB
96A5
FFFF
F3A9
FF91
BF01
FFFF
ENDCHAR
STARTCHAR uniE628
ENCODING 58920
SWIDTH 1000 0
DWIDTH 16 0
BBX 16 11 0 3
BITMAP
0001
001E
03E0
3C00
4000
FFFF
AAB5
FFDF
8071
805F
FFFF
ENDCHAR
STARTCHAR uniE629
ENCODING 58921
SWIDTH 1000 0
DWIDTH 16 0
BBX 14 13 1 0
BITMAP
7FF8
FFEC
AA34
BFAC
A0B4
AAAC
A0B4
BFAC
803C
FFF4
E7B4
AAA8
FFF0
ENDCHAR
STARTCHAR uniE6CF
ENCODING 59087
SWIDTH 292 0
DWIDTH 5 0
BBX 7 13 -1 -5
BITMAP
44
44
C6
28
6C
00
00
6C
28
C6
44
44
44
ENDCHAR
STARTCHAR uniE6D6
ENCODING 59094
SWIDTH 500 0
DWIDTH 8 0
BBX 1 1 0 0
BITMAP
00
ENDCHAR
STARTCHAR uniE6D7
ENCODING 59095
SWIDTH 500 0
DWIDTH 8 0
BBX 1 1 0 0
BITMAP
00
ENDCHAR
STARTCHAR uniE6D8
ENCODING 59096
SWIDTH 224 0
DWIDTH 4 0
BBX 3 1 0 0
BITMAP
E0
ENDCHAR
STARTCHAR uniE6D9
ENCODING 59097
SWIDTH 429 0
DWIDTH 7 0
BBX 7 2 0 0
BITMAP
C6
38
ENDCHAR
STARTCHAR uniE6DA
ENCODING 59098
SWIDTH 224 0
DWIDTH 4 0
BBX 3 1 0 0
BITMAP
E0
ENDCHAR
STARTCHAR uniE6DB
ENCODING 59099
SWIDTH 541 0
DWIDTH 9 0
BBX 10 17 -1 -7
BITMAP
0140
0140
0140
0140
0140
0140
0280
0500
0A00
1400
2800
5000
A000
A000
A000
A000
A000
ENDCHAR
STARTCHAR uniE6DC
ENCODING 59100
SWIDTH 439 0
DWIDTH 7 0
BBX 7 3 0 1
BITMAP
38
00
FE
ENDCHAR
STARTCHAR uniE6DD
ENCODING 59101
SWIDTH 439 0
DWIDTH 7 0
BBX 7 7 0 1
BITMAP
38
28
28
28
28
28
EE
ENDCHAR
STARTCHAR uniE6DE
ENCODING 59102
SWIDTH 439 0
DWIDTH 7 0
BBX 7 14 0 -6
BITMAP
70
50
50
50
50
50
D6
14
14
14
14
14
14
1C
ENDCHAR
STARTCHAR uniE6DF
ENCODING 59103
SWIDTH 439 0
DWIDTH 7 0
BBX 9 14 0 -6
BITMAP
7700
5500
5500
5500
5500
5500
D580
1400
1400
1400
1400
1400
1400
1C00
ENDCHAR
STARTCHAR uniE6E0
ENCODING 59104
SWIDTH 439 0
DWIDTH 11 0
BBX 11 14 0 -6
BITMAP
7700
5500
5500
5500
5500
5500
D560
1540
1540
1540
1540
1540
1540
1DC0
ENDCHAR
STARTCHAR uniE6E1
ENCODING 59105
SWIDTH 439 0
DWIDTH 7 0
BBX 7 10 0 -3
BITMAP
02
00
18
18
00
FE
00
00
18
18
ENDCHAR
STARTCHAR uniE6E2
ENCODING 59106
SWIDTH 500 0
DWIDTH 8 0
BBX 8 11 0 -3
BITMAP
1C
14
14
D4
D4
14
F7
00
00
C0
C0
ENDCHAR
STARTCHAR uniE6E3
ENCODING 59107
SWIDTH 500 0
DWIDTH 8 0
BBX 9 14 0 -6
BITMAP
1C00
1400
1400
D400
D400
1400
F580
0500
0500
C500
C500
0500
0500
0700
ENDCHAR
STARTCHAR uniE6E4
ENCODING 59108
SWIDTH 500 0
DWIDTH 10 0
BBX 10 14 0 -6
BITMAP
3B80
2A80
2A80
AA80
AA80
2A80
EAC0
0A00
0A00
CA00
CA00
0A00
0A00
0E00
ENDCHAR
STARTCHAR uniE6E5
ENCODING 59109
SWIDTH 500 0
DWIDTH 13 0
BBX 13 14 0 -6
BITMAP
1DC0
1540
1540
D540
D540
1540
F558
0550
0550
C550
C550
0550
0550
0770
ENDCHAR
STARTCHAR uniE6E6
ENCODING 59110
SWIDTH 97 0
DWIDTH 2 0
BBX 2 11 0 -4
BITMAP
C0
00
00
00
00
00
00
00
00
00
C0
ENDCHAR
STARTCHAR uniE6E8
ENCODING 59112
SWIDTH 273 0
DWIDTH 4 0
BBX 6 11 0 -3
BITMAP
04
04
18
20
40
F8
08
08
08
08
04
ENDCHAR
STARTCHAR uniE6E9
ENCODING 59113
SWIDTH 429 0
DWIDTH 7 0
BBX 7 3 0 0
BITMAP
FE
9E
FE
ENDCHAR
STARTCHAR uniE6EA
ENCODING 59114
SWIDTH 273 0
DWIDTH 4 0
BBX 6 11 -2 -3
BITMAP
80
C0
20
10
08
7C
40
40
40
40
80
ENDCHAR
STARTCHAR uniE6ED
ENCODING 59117
SWIDTH 390 0
DWIDTH 6 0
BBX 8 12 -2 -4
BITMAP
31
CA
34
0A
0A
24
77
24
04
08
10
E0
ENDCHAR
STARTCHAR uniE6EE
ENCODING 59118
SWIDTH 585 0
DWIDTH 9 0
BBX 10 10 0 -4
BITMAP
FF80
0000
FF80
0880
FCC0
0880
8080
FF80
0000
FF80
ENDCHAR
STARTCHAR uniE6EF
ENCODING 59119
SWIDTH 585 0
DWIDTH 9 0
BBX 13 18 -1 -7
BITMAP
2000
2000
2000
2100
2A00
1400
6A00
1400
4A00
EFE0
4000
07E0
0480
0640
0520
0480
0440
0400
ENDCHAR
STARTCHAR uniE6F0
ENCODING 59120
SWIDTH 566 0
DWIDTH 9 0
BBX 13 21 -4 -7
BITMAP
01C0
0A20
1490
15D0
1490
1220
09C0
0400
0200
0100
3F00
0000
0C18
0220
0560
0680
0800
1000
2000
4000
8000
ENDCHAR
STARTCHAR uniE6F1
ENCODING 59121
SWIDTH 458 0
DWIDTH 7 0
BBX 10 9 -2 -3
BITMAP
0600
0900
D380
2900
D440
E880
1700
2000
1E00
ENDCHAR
STARTCHAR uniE6F2
ENCODING 59122
SWIDTH 322 0
DWIDTH 5 0
BBX 12 11 -6 -5
BITMAP
00F0
0080
1880
3D00
3D00
1A80
0500
1B00
E480
0040
0020
ENDCHAR
STARTCHAR uniE6F3
ENCODING 59123
SWIDTH 781 0
DWIDTH 13 0
BBX 16 13 -4 -5
BITMAP
E000
1800
2400
123C
0A5A
4AA5
EA93
4AC9
0ABA
0A44
1438
0800
F000
ENDCHAR
STARTCHAR uniE6F4
ENCODING 59124
SWIDTH 605 0
DWIDTH 10 0
BBX 9 14 0 -3
BITMAP
3C00
4000
8900
9D00
8900
4100
3E00
4000
3F80
0080
7F00
4000
3800
0800
ENDCHAR
STARTCHAR uniE6F5
ENCODING 59125
SWIDTH 488 0
DWIDTH 8 0
BBX 10 14 0 -9
BITMAP
2800
2800
2800
E700
1000
1800
3C00
1800
0BC0
0A00
0600
0600
0200
0200
ENDCHAR
STARTCHAR uniE6F6
ENCODING 59126
SWIDTH 849 0
DWIDTH 14 0
BBX 15 19 -1 -3
BITMAP
0100
0100
0100
0100
2100
51C0
8820
9590
A848
A928
ABA8
A928
A828
A440
9302
4802
2004
1FC8
0070
ENDCHAR
STARTCHAR uniE6F7
ENCODING 59127
SWIDTH 634 0
DWIDTH 10 0
BBX 10 11 0 -3
BITMAP
FE00
0000
7E00
0000
3E00
0000
F040
3880
1080
C680
3900
ENDCHAR
STARTCHAR uniE6F8
ENCODING 59128
SWIDTH 302 0
DWIDTH 5 0
BBX 6 13 -1 -5
BITMAP
40
50
50
48
24
54
B4
54
14
28
50
40
40
ENDCHAR
STARTCHAR uniE6F9
ENCODING 59129
SWIDTH 478 0
DWIDTH 8 0
BBX 8 9 0 -2
BITMAP
08
08
34
4A
95
BD
94
48
30
ENDCHAR
STARTCHAR uniE6FA
ENCODING 59130
SWIDTH 322 0
DWIDTH 5 0
BBX 9 7 -3 2
BITMAP
0880
F500
0A00
6500
F200
F200
6000
ENDCHAR
STARTCHAR uniE6FB
ENCODING 59131
SWIDTH 683 0
DWIDTH 11 0
BBX 11 11 0 -2
BITMAP
1F00
2080
5F80
9020
8E20
8E20
8E20
0140
3E40
4080
3F00
ENDCHAR
STARTCHAR uniE6FC
ENCODING 59132
SWIDTH 439 0
DWIDTH 7 0
BBX 7 11 0 -3
BITMAP
20
38
08
F8
82
FA
14
32
20
70
20
ENDCHAR
STARTCHAR uniE6FD
ENCODING 59133
SWIDTH 292 0
DWIDTH 5 0
BBX 9 13 -1 -3
BITMAP
0600
0800
1000
1300
0780
7780
5780
4B00
2800
5000
E800
5000
0F80
ENDCHAR
STARTCHAR uniE6FE
ENCODING 59134
SWIDTH 585 0
DWIDTH 9 0
BBX 9 10 0 1
BITMAP
B000
5E00
A100
CE80
6D80
5E80
4E80
A100
5E00
E000
ENDCHAR
STARTCHAR uniE6FF
ENCODING 59135
SWIDTH 500 0
DWIDTH 8 0
BBX 8 10 0 -4
BITMAP
08
9C
48
20
E7
04
22
2A
22
1C
ENDCHAR
STARTCHAR uniE700
ENCODING 59136
SWIDTH 507 0
DWIDTH 9 0
BBX 9 11 0 -3
BITMAP
0800
0800
1C00
FF80
1C00
0800
0800
8080
7700
1000
1000
ENDCHAR
STARTCHAR uniE701
ENCODING 59137
SWIDTH 283 0
DWIDTH 5 0
BBX 9 8 -2 -1
BITMAP
3C00
4500
9880
2200
1900
0900
1C00
0800
ENDCHAR
STARTCHAR uniE702
ENCODING 59138
SWIDTH 537 0
DWIDTH 9 0
BBX 10 9 0 -3
BITMAP
0200
0700
0200
0080
9D00
9140
4C80
2400
1C00
ENDCHAR
STARTCHAR uniE703
ENCODING 59139
SWIDTH 683 0
DWIDTH 11 0
BBX 11 12 0 -4
BITMAP
0E00
1100
2880
5140
AEA0
94A0
BFA0
A520
A220
5120
2640
0180
ENDCHAR
STARTCHAR uniE704
ENCODING 59140
SWIDTH 458 0
DWIDTH 7 0
BBX 11 13 -3 -2
BITMAP
0020
0140
0680
4940
E280
5F80
0280
0940
0680
0140
07A0
0400
0400
ENDCHAR
STARTCHAR uniE705
ENCODING 59141
SWIDTH 683 0
DWIDTH 11 0
BBX 11 9 -1 -4
BITMAP
0100
0280
E140
9540
0AA0
6BA0
F420
F3E0
6000
ENDCHAR
STARTCHAR uniE706
ENCODING 59142
SWIDTH 537 0
DWIDTH 9 0
BBX 10 10 -1 -4
BITMAP
0040
0680
0900
0C00
0E00
0600
1200
2C00
4000
8000
ENDCHAR
STARTCHAR uniE70D
ENCODING 59149
SWIDTH 390 0
DWIDTH 6 0
BBX 8 12 -2 -4
BITMAP
31
CA
34
0A
0A
04
07
04
04
08
10
E0
ENDCHAR
STARTCHAR uniE70E
ENCODING 59150
SWIDTH 585 0
DWIDTH 9 0
BBX 10 10 0 -4
BITMAP
FF80
0000
FF80
0080
F8C0
0080
8080
FF80
0000
FF80
ENDCHAR
STARTCHAR uniE70F
ENCODING 59151
SWIDTH 585 0
DWIDTH 9 0
BBX 10 18 0 -7
BITMAP
4000
4000
4000
4200
5400
2800
D400
2800
1400
1FC0
0000
0FC0
0900
0C80
0A40
0900
0880
0800
ENDCHAR
STARTCHAR uniE710
ENCODING 59152
SWIDTH 566 0
DWIDTH 9 0
BBX 13 21 -4 -7
BITMAP
01C0
0A20
1410
1410
1410
1220
09C0
0400
0200
0100
3F00
0000
0C18
0220
0560
0680
0800
1000
2000
4000
8000
ENDCHAR
STARTCHAR uniE711
ENCODING 59153
SWIDTH 458 0
DWIDTH 7 0
BBX 10 9 -2 -3
BITMAP
0600
0800
D000
2800
D440
E880
1700
2000
1E00
ENDCHAR
STARTCHAR uniE712
ENCODING 59154
SWIDTH 322 0
DWIDTH 5 0
BBX 12 11 -6 -5
BITMAP
00F0
0080
0080
0100
0100
0280
0500
1B00
E480
0040
0020
ENDCHAR
STARTCHAR uniE713
ENCODING 59155
SWIDTH 781 0
DWIDTH 13 0
BBX 16 13 -4 -5
BITMAP
E000
1800
2400
123C
0A5A
0AA5
0A93
0AC9
0ABA
0A44
1438
0800
F000
ENDCHAR
STARTCHAR uniE714
ENCODING 59156
SWIDTH 605 0
DWIDTH 10 0
BBX 9 14 0 -3
BITMAP
3C00
4000
8100
8100
8100
4100
3E00
4000
3F80
0080
7F00
4000
3800
0800
ENDCHAR
STARTCHAR uniE715
ENCODING 59157
SWIDTH 507 0
DWIDTH 8 0
BBX 10 14 0 -9
BITMAP
2800
2800
2800
E700
1000
1000
1000
0800
0BC0
0A00
0600
0600
0200
0200
ENDCHAR
STARTCHAR uniE716
ENCODING 59158
SWIDTH 849 0
DWIDTH 14 0
BBX 15 19 -1 -3
BITMAP
0100
0100
0100
0100
2100
51C0
8820
9590
A848
A828
A828
A828
A828
A440
9302
4802
2004
1FC8
0070
ENDCHAR
STARTCHAR uniE717
ENCODING 59159
SWIDTH 634 0
DWIDTH 10 0
BBX 10 11 0 -3
BITMAP
FE00
0000
7E00
0000
3E00
0000
FC40
0080
0080
C680
3900
ENDCHAR
STARTCHAR uniE718
ENCODING 59160
SWIDTH 302 0
DWIDTH 5 0
BBX 5 13 0 -5
BITMAP
80
A0
A0
90
48
28
A8
28
28
50
A0
80
80
ENDCHAR
STARTCHAR uniE719
ENCODING 59161
SWIDTH 478 0
DWIDTH 8 0
BBX 8 9 0 -2
BITMAP
08
08
34
4A
85
85
84
48
30
ENDCHAR
STARTCHAR uniE71A
ENCODING 59162
SWIDTH 322 0
DWIDTH 5 0
BBX 9 6 -3 3
BITMAP
0880
F500
0A00
0500
0200
0200
ENDCHAR
STARTCHAR uniE71B
ENCODING 59163
SWIDTH 683 0
DWIDTH 11 0
BBX 11 11 0 -2
BITMAP
1F00
2080
5F80
9020
8820
8420
8220
0140
3E40
4080
3F00
ENDCHAR
STARTCHAR uniE71C
ENCODING 59164
SWIDTH 439 0
DWIDTH 7 0
BBX 7 11 0 -3
BITMAP
20
38
08
F8
82
FA
14
32
20
20
20
ENDCHAR
STARTCHAR uniE71D
ENCODING 59165
SWIDTH 292 0
DWIDTH 5 0
BBX 9 13 -1 -3
BITMAP
0600
0800
1000
1000
0000
7000
5000
4800
2800
5000
E800
5000
0F80
ENDCHAR
STARTCHAR uniE71E
ENCODING 59166
SWIDTH 585 0
DWIDTH 9 0
BBX 9 10 0 1
BITMAP
B000
5E00
A100
CE80
6980
5280
4E80
A100
5E00
E000
ENDCHAR
STARTCHAR uniE71F
ENCODING 59167
SWIDTH 500 0
DWIDTH 8 0
BBX 8 9 0 -4
BITMAP
80
40
20
E7
04
22
2A
22
1C
ENDCHAR
STARTCHAR uniE720
ENCODING 59168
SWIDTH 507 0
DWIDTH 9 0
BBX 9 11 0 -3
BITMAP
0800
0800
0000
EB80
0000
0800
0800
8080
7700
1000
1000
ENDCHAR
STARTCHAR uniE721
ENCODING 59169
SWIDTH 283 0
DWIDTH 5 0
BBX 9 8 -2 -1
BITMAP
3C00
4500
9880
2200
1900
0900
0800
0800
ENDCHAR
STARTCHAR uniE722
ENCODING 59170
SWIDTH 537 0
DWIDTH 9 0
BBX 10 6 0 -3
BITMAP
0080
9D00
9140
4C80
2400
1C00
ENDCHAR
STARTCHAR uniE723
ENCODING 59171
SWIDTH 683 0
DWIDTH 11 0
BBX 11 12 0 -4
BITMAP
0E00
1100
2880
5140
AEA0
90A0
B1A0
A120
A220
5120
2640
0180
ENDCHAR
STARTCHAR uniE724
ENCODING 59172
SWIDTH 458 0
DWIDTH 7 0
BBX 10 13 -2 -2
BITMAP
0040
0280
0D00
1280
0500
FF00
0500
1280
0D00
0280
0F40
0800
0800
ENDCHAR
STARTCHAR uniE725
ENCODING 59173
SWIDTH 683 0
DWIDTH 11 0
BBX 11 8 -1 -3
BITMAP
0100
0280
E140
9540
0AA0
0BA0
0420
03E0
ENDCHAR
STARTCHAR uniE726
ENCODING 59174
SWIDTH 537 0
DWIDTH 9 0
BBX 10 10 -1 -4
BITMAP
0040
0680
0900
0800
0400
0200
1200
2C00
4000
8000
ENDCHAR
STARTCHAR uniE72A
ENCODING 59178
SWIDTH 500 0
DWIDTH 8 0
BBX 2 2 3 6
BITMAP
C0
C0
ENDCHAR
STARTCHAR uniE72D
ENCODING 59181
SWIDTH 1 0
DWIDTH 0 0
BBX 1 1 0 4
BITMAP
80
ENDCHAR
STARTCHAR uniE72F
ENCODING 59183
SWIDTH 1 0
DWIDTH 0 0
BBX 1 1 0 4
BITMAP
80
ENDCHAR
STARTCHAR uniE730
ENCODING 59184
SWIDTH 1 0
DWIDTH 0 0
BBX 1 4 0 4
BITMAP
80
00
00
80
ENDCHAR
STARTCHAR uniE731
ENCODING 59185
SWIDTH 1 0
DWIDTH 0 0
BBX 1 5 0 4
BITMAP
80
80
80
80
80
ENDCHAR
STARTCHAR uniE732
ENCODING 59186
SWIDTH 1 0
DWIDTH 0 0
BBX 4 7 0 -8
BITMAP
70
80
F0
00
80
00
80
ENDCHAR
STARTCHAR uniE734
ENCODING 59188
SWIDTH 1 0
DWIDTH 0 0
BBX 4 3 0 -4
BITMAP
F0
00
40
ENDCHAR
STARTCHAR uniE735
ENCODING 59189
SWIDTH 1000 0
DWIDTH 16 0
BBX 1 1 0 0
BITMAP
00
ENDCHAR
STARTCHAR uniE736
ENCODING 59190
SWIDTH 1000 0
DWIDTH 16 0
BBX 1 1 0 0
BITMAP
00
ENDCHAR
STARTCHAR uniE737
ENCODING 59191
SWIDTH 1000 0
DWIDTH 16 0
BBX 1 1 0 0
BITMAP
00
ENDCHAR
STARTCHAR uniE738
ENCODING 59192
SWIDTH 1000 0
DWIDTH 16 0
BBX 15 16 0 0
BITMAP
0620
0E70
0EF0
0EF0
6660
F00C
F01E
F79E
07DE
0FE0
1FF0
3FF8
7FFC
7FFC
3FF8
3EF8
ENDCHAR
STARTCHAR uniE739
ENCODING 59193
SWIDTH 1000 0
DWIDTH 16 0
BBX 15 15 0 1
BITMAP
FE60
FE7E
C67E
FE7E
FE60
C660
FE60
FEFE
C6FE
FEC6
FEC6
00C6
6CC6
EEFE
C6FE
ENDCHAR
STARTCHAR uniE73A
ENCODING 59194
SWIDTH 1085 0
DWIDTH 17 0
BBX 17 9 0 0
BITMAP
000C00
FF7F80
305B00
FF7F80
C35B80
FF5F00
C35B80
C34F00
FE5B80
ENDCHAR
STARTCHAR uniE73B
ENCODING 59195
SWIDTH 1033 0
DWIDTH 17 0
BBX 17 9 0 0
BITMAP
FC0180
FE0180
C60000
C6FD80
FC0D80
C6FD80
C6CD80
FEFD80
FC7D80
ENDCHAR
STARTCHAR uniE73C
ENCODING 59196
SWIDTH 1000 0
DWIDTH 16 0
BBX 15 16 0 0
BITMAP
0630
0F78
0F78
0F78
6630
F00C
F01E
F7DE
6FFE
1DFC
1DF0
2148
654C
654C
718C
3EF8
ENDCHAR
STARTCHAR uniE73D
ENCODING 59197
SWIDTH 1056 0
DWIDTH 17 0
BBX 17 8 0 0
BITMAP
FF7D80
302780
FF7980
C36D80
FF6F80
C36980
C36F80
FE6980
ENDCHAR
STARTCHAR uniE73E
ENCODING 59198
SWIDTH 1000 0
DWIDTH 16 0
BBX 16 16 0 0
BITMAP
03C0
0660
0C30
0810
0810
0810
0810
0810
0C30
0FF0
3FFC
6006
6006
C003
C003
FFFF
ENDCHAR
STARTCHAR uniE73F
ENCODING 59199
SWIDTH 1000 0
DWIDTH 16 0
BBX 16 16 0 0
BITMAP
07E0
1FF8
3C3C
700E
63C6
E3C7
C663
C0C3
C183
C003
E187
6186
700E
3C3C
1FF8
07E0
ENDCHAR
STARTCHAR uniE740
ENCODING 59200
SWIDTH 998 0
DWIDTH 16 0
BBX 16 16 0 0
BITMAP
C003
F00F
FE7F
CFF3
C183
C183
C183
C183
C183
C183
C183
E187
F99E
1FF8
07E0
0180
ENDCHAR
STARTCHAR uniE741
ENCODING 59201
SWIDTH 1000 0
DWIDTH 16 0
BBX 16 16 0 0
BITMAP
FFFF
FFFF
C003
C003
CFF3
CFF3
C003
CFF3
CFF3
C003
C003
C1FF
F7FF
1C00
1800
2000
ENDCHAR
STARTCHAR uniE742
ENCODING 59202
SWIDTH 1000 0
DWIDTH 16 0
BBX 12 12 0 2
BITMAP
8010
4020
2040
1080
0900
0600
0600
0900
1080
2040
4020
8010
ENDCHAR
STARTCHAR uniE743
ENCODING 59203
SWIDTH 1000 0
DWIDTH 16 0
BBX 12 12 0 2
BITMAP
0F00
3FC0
7FE0
7FE0
FFF0
FFF0
FFF0
FFF0
7FE0
7FE0
3FC0
0F00
ENDCHAR
STARTCHAR uniE744
ENCODING 59204
SWIDTH 1000 0
DWIDTH 16 0
BBX 8 7 0 5
BITMAP
81
42
24
99
42
24
18
ENDCHAR
STARTCHAR uniE745
ENCODING 59205
SWIDTH 1000 0
DWIDTH 16 0
BBX 8 7 0 4
BITMAP
18
24
42
99
24
42
81
ENDCHAR
STARTCHAR uniE746
ENCODING 59206
SWIDTH 1000 0
DWIDTH 16 0
BBX 16 15 0 0
BITMAP
0180
0180
03C0
03C0
0FE0
FF7F
7F9E
3F3C
1EF8
09F0
0FF0
1FF8
1E78
1818
1008
ENDCHAR
STARTCHAR uniE747
ENCODING 59207
SWIDTH 1000 0
DWIDTH 16 0
BBX 16 12 0 2
BITMAP
003C
0202
0F19
1F65
3FF5
7870
E218
CF1C
CD9C
D318
6E38
3FE0
ENDCHAR
STARTCHAR uniE748
ENCODING 59208
SWIDTH 1000 0
DWIDTH 16 0
BBX 12 16 0 0
BITMAP
1F00
30C0
4060
C020
8710
8F10
8F10
9E20
5020
2040
2180
4E00
4000
4000
4000
4000
ENDCHAR
STARTCHAR uniE749
ENCODING 59209
SWIDTH 1000 0
DWIDTH 16 0
BBX 15 14 0 1
BITMAP
FE60
FE7E
C27E
DA60
DA60
DA60
DAFE
DAFE
DAC6
DAC6
18C6
3CC6
7EFE
C6FE
ENDCHAR
STARTCHAR uniE74A
ENCODING 59210
SWIDTH 1000 0
DWIDTH 16 0
BBX 16 16 0 0
BITMAP
0180
2184
73CE
3FFC
1FF8
1C38
381C
F81F
F81F
381C
1C38
1FF8
3FFC
73CE
2184
0180
ENDCHAR
STARTCHAR uniE74B
ENCODING 59211
SWIDTH 1000 0
DWIDTH 16 0
BBX 16 14 0 1
BITMAP
07E0
0000
3C3C
4242
8241
8DB1
8DB1
8241
6426
1818
2004
300C
1818
07FC
ENDCHAR
STARTCHAR uniE74C
ENCODING 59212
SWIDTH 1000 0
DWIDTH 16 0
BBX 4 16 0 0
BITMAP
F0
F0
F0
F0
F0
F0
F0
F0
F0
F0
F0
00
E0
F0
F0
F0
ENDCHAR
STARTCHAR uniE74D
ENCODING 59213
SWIDTH 1000 0
DWIDTH 16 0
BBX 11 16 0 0
BITMAP
1F00
7FC0
7FE0
F1E0
E1E0
01E0
01E0
03C0
0780
0F00
0E00
0000
0E00
0E00
0E00
0E00
ENDCHAR
STARTCHAR uniE74E
ENCODING 59214
SWIDTH 1000 0
DWIDTH 16 0
BBX 16 12 0 2
BITMAP
0004
000E
001F
203E
707C
F8F8
7DF0
3FE0
1FC0
0F80
0700
0200
ENDCHAR
STARTCHAR uniE74F
ENCODING 59215
SWIDTH 1000 0
DWIDTH 16 0
BBX 13 14 0 1
BITMAP
2000
7070
F8F8
FDF8
7FF0
3FE0
1FC0
1FC0
3FE0
7FF0
FDF8
F8F8
7070
2000
ENDCHAR
STARTCHAR uniE750
ENCODING 59216
SWIDTH 519 0
DWIDTH 8 0
BBX 8 16 0 0
BITMAP
01
02
04
08
10
20
40
80
80
40
20
10
08
04
02
01
ENDCHAR
STARTCHAR M.dup37
ENCODING 59217
SWIDTH 506 0
DWIDTH 8 0
BBX 1 1 0 0
BITMAP
00
ENDCHAR
STARTCHAR N.dup38
ENCODING 59218
SWIDTH 592 0
DWIDTH 9 0
BBX 1 1 0 0
BITMAP
00
ENDCHAR
STARTCHAR uniE753
ENCODING 59219
SWIDTH 607 0
DWIDTH 10 0
BBX 9 16 0 0
BITMAP
4000
E000
7000
3800
1C00
0E00
0700
0380
0380
0700
0E00
1C00
3800
7000
E000
4000
ENDCHAR
STARTCHAR uniE754
ENCODING 59220
SWIDTH 1000 0
DWIDTH 16 0
BBX 16 8 0 4
BITMAP
0180
03C0
0660
0C30
1818
300C
4002
8001
ENDCHAR
STARTCHAR uniE755
ENCODING 59221
SWIDTH 1000 0
DWIDTH 16 0
BBX 16 8 0 4
BITMAP
8001
4002
300C
1818
0C30
0660
03C0
0180
ENDCHAR
STARTCHAR uniE756
ENCODING 59222
SWIDTH 1000 0
DWIDTH 16 0
BBX 16 16 0 0
BITMAP
DBDB
DBDB
C3C3
FFFF
FFFF
C003
C003
CDB3
CDB3
C003
CDB3
CDB3
C003
C003
FFFF
FFFF
ENDCHAR
STARTCHAR uniE757
ENCODING 59223
SWIDTH 1000 0
DWIDTH 16 0
BBX 16 16 0 0
BITMAP
FFFF
FFFF
C003
C003
CFF3
CFF3
C003
CFF3
CFF3
C003
C003
F81F
F81F
F81F
FFFF
FFFF
ENDCHAR
STARTCHAR uniE758
ENCODING 59224
SWIDTH 1000 0
DWIDTH 16 0
BBX 16 16 0 0
BITMAP
0240
07E0
03C0
FFFF
FFFF
C183
C183
C183
C183
FFFF
C183
C183
C183
C183
FFFF
FFFF
ENDCHAR
STARTCHAR uniE759
ENCODING 59225
SWIDTH 1000 0
DWIDTH 16 0
BBX 11 7 0 3
BITMAP
0400
0E00
1F00
3B80
71C0
E0E0
4040
ENDCHAR
STARTCHAR uniE75A
ENCODING 59226
SWIDTH 1000 0
DWIDTH 16 0
BBX 11 6 0 3
BITMAP
C060
60C0
3180
1B00
0E00
0400
ENDCHAR
STARTCHAR uniE75B
ENCODING 59227
SWIDTH 1000 0
DWIDTH 16 0
BBX 16 12 0 2
BITMAP
FFFF
FFFF
FFFF
FFFF
FFFF
FFFF
6666
0000
300C
300C
FFFF
FFFF
ENDCHAR
STARTCHAR uniE75C
ENCODING 59228
SWIDTH 1000 0
DWIDTH 16 0
BBX 16 12 0 2
BITMAP
7FFE
FFFF
FFFF
CFF3
E7E7
F3CF
F99F
FC3F
FE7F
FFFF
FFFF
7FFE
ENDCHAR
STARTCHAR uniE75D
ENCODING 59229
SWIDTH 1000 0
DWIDTH 16 0
BBX 6 6 0 5
BITMAP
78
FC
FC
FC
FC
78
ENDCHAR
STARTCHAR uniE75E
ENCODING 59230
SWIDTH 1000 0
DWIDTH 16 0
BBX 16 16 0 0
BITMAP
07E0
1818
300C
6206
47E2
8FF1
9FD1
8B91
8931
9C71
8EF1
47E2
6206
300C
1818
07E0
ENDCHAR
STARTCHAR uniE75F
ENCODING 59231
SWIDTH 1000 0
DWIDTH 16 0
BBX 16 16 0 0
BITMAP
07E0
1818
300C
63C6
47E2
8FF1
8FF1
8811
8E71
8E71
8FF1
47E2
63C6
300C
1818
07E0
ENDCHAR
STARTCHAR uniE760
ENCODING 59232
SWIDTH 1000 0
DWIDTH 16 0
BBX 16 16 0 0
BITMAP
07E0
1818
300C
6006
47E2
8E71
8C31
9C39
9FF9
9C31
8E71
47E2
63C6
300C
1818
07E0
ENDCHAR
STARTCHAR uniE761
ENCODING 59233
SWIDTH 1000 0
DWIDTH 16 0
BBX 16 16 0 0
BITMAP
07E0
1818
300C
6186
47E2
8FF1
8F31
9E79
9CF9
8FF1
8C31
47E2
6186
300C
1818
07E0
ENDCHAR
STARTCHAR uniE762
ENCODING 59234
SWIDTH 1000 0
DWIDTH 16 0
BBX 16 16 0 0
BITMAP
01E0
0238
138C
3866
3812
018B
0189
87E5
83C5
93C9
D24B
4812
6666
318C
1C38
07E0
ENDCHAR
STARTCHAR uniE763
ENCODING 59235
SWIDTH 1000 0
DWIDTH 16 0
BBX 16 16 0 0
BITMAP
07E0
1818
300C
63C6
47E2
8FF1
8E71
8C31
8E71
8DB1
8BE1
4FE2
6246
300C
1818
07E0
ENDCHAR
STARTCHAR uniE764
ENCODING 59236
SWIDTH 1000 0
DWIDTH 16 0
BBX 16 16 0 0
BITMAP
0660
07E0
3FFC
3FFC
3FFC
FFE7
FFC7
678E
631E
F03F
F87F
3CFC
3FFC
3FFC
07E0
0660
ENDCHAR
STARTCHAR uniE765
ENCODING 59237
SWIDTH 1000 0
DWIDTH 16 0
BBX 13 16 0 0
BITMAP
0F80
1FE0
3FE0
3FF0
FDF8
FDF8
F078
F038
78F8
7878
7770
7FF0
3FF0
3FE0
0FC0
0300
ENDCHAR
STARTCHAR uniE766
ENCODING 59238
SWIDTH 1000 0
DWIDTH 16 0
BBX 16 16 0 0
BITMAP
07E0
1FF8
3FFC
7E7E
7C3E
F00F
F00F
F81F
FE7F
F3CF
F00F
7C3E
7E7E
3FFC
1FF8
07E0
ENDCHAR
STARTCHAR uniE767
ENCODING 59239
SWIDTH 1000 0
DWIDTH 16 0
BBX 16 16 0 0
BITMAP
07E0
1FF8
3FFC
7FFE
7F9E
FF1F
FE3F
FC7F
F8FF
F9FF
FFFF
781E
7FFE
3FFC
1FF8
07E0
ENDCHAR
STARTCHAR uniE768
ENCODING 59240
SWIDTH 1000 0
DWIDTH 16 0
BBX 16 16 0 0
BITMAP
01E0
0238
138C
3866
3812
018B
0189
87E5
83C5
93C9
D24B
4812
6666
318C
1C38
07E0
ENDCHAR
STARTCHAR uniE769
ENCODING 59241
SWIDTH 1000 0
DWIDTH 16 0
BBX 13 16 0 0
BITMAP
0F80
3FE0
7FF0
7DF8
FDF8
FCF8
E038
F878
F878
7378
7FF0
3FE0
3FF0
7DF0
18C0
0880
ENDCHAR
STARTCHAR uniE76A
ENCODING 59242
SWIDTH 576 0
DWIDTH 9 0
BBX 9 16 0 0
BITMAP
0100
0380
0700
0E00
1C00
3800
7000
E000
E000
7000
3800
1C00
0E00
0700
0380
0100
ENDCHAR
STARTCHAR uniE76B
ENCODING 59243
SWIDTH 576 0
DWIDTH 9 0
BBX 9 16 0 0
BITMAP
4000
E000
7000
3800
1C00
0E00
0700
0380
0380
0700
0E00
1C00
3800
7000
E000
4000
ENDCHAR
STARTCHAR uniE76C
ENCODING 59244
SWIDTH 1000 0
DWIDTH 16 0
BBX 16 16 0 0
BITMAP
07E0
1FF8
3FFC
7FFE
700E
F00F
F7FF
F7FF
F7F7
F7D7
F7CF
70FE
7FFE
3FFC
1FF8
07E0
ENDCHAR
STARTCHAR uniE76D
ENCODING 59245
SWIDTH 1000 0
DWIDTH 16 0
BBX 16 16 0 0
BITMAP
03E0
0FF0
0FF8
1FF8
1FFC
1FFC
3FFC
3FFC
7FFE
FFFE
FFFF
BFFF
3FFC
1FF8
3FFC
3F7C
ENDCHAR
STARTCHAR uniE76E
ENCODING 59246
SWIDTH 1142 0
DWIDTH 18 0
BBX 18 14 0 1
BITMAP
1FC000
3FF000
777000
F73800
FFCC00
FFFF00
FFFF80
7ECDC0
7FFFC0
1FFFC0
32FFC0
00FF80
007F00
001F00
ENDCHAR
STARTCHAR uniE76F
ENCODING 59247
SWIDTH 1000 0
DWIDTH 16 0
BBX 16 16 0 0
BITMAP
07E0
1FF8
381C
6006
6006
C303
C383
C3E3
C3F3
C383
C303
6006
6006
381C
1FF8
07E0
ENDCHAR
STARTCHAR uniE770
ENCODING 59248
SWIDTH 1000 0
DWIDTH 16 0
BBX 11 12 0 2
BITMAP
E000
F800
FC00
FF00
FFC0
FFE0
FFE0
FFC0
FF00
FC00
F000
E000
ENDCHAR
STARTCHAR uniE771
ENCODING 59249
SWIDTH 1000 0
DWIDTH 16 0
BBX 9 12 0 2
BITMAP
C180
E180
E180
E180
E180
E180
E180
E180
E180
E180
E180
C180
ENDCHAR
STARTCHAR uniE772
ENCODING 59250
SWIDTH 1000 0
DWIDTH 16 0
BBX 14 12 0 2
BITMAP
0100
0320
0718
1F08
FF24
FF14
FF14
FF14
FF24
0F08
0330
0100
ENDCHAR
STARTCHAR uniE773
ENCODING 59251
SWIDTH 1000 0
DWIDTH 16 0
BBX 16 16 0 0
BITMAP
0010
FC08
8004
8002
803D
80C2
8304
8408
8400
8800
8802
8002
8002
8002
8002
FFFE
ENDCHAR
STARTCHAR uniE774
ENCODING 59252
SWIDTH 1000 0
DWIDTH 16 0
BBX 16 16 0 0
BITMAP
07E0
1FF8
3FFC
781E
7BDE
FBDF
FBDF
FBDF
FBDF
FBDF
F81F
799E
781E
3FFC
1FF8
07E0
ENDCHAR
STARTCHAR uniE775
ENCODING 59253
SWIDTH 1000 0
DWIDTH 16 0
BBX 15 16 0 0
BITMAP
07E0
1C38
300E
6006
4002
C000
8000
8000
8000
8000
C002
4002
6006
300C
1C38
07E0
ENDCHAR
STARTCHAR uniE776
ENCODING 59254
SWIDTH 576 0
DWIDTH 9 0
BBX 9 16 0 0
BITMAP
0100
0380
0700
0E00
1C00
3800
7000
E000
E000
7000
3800
1C00
0E00
0700
0380
0100
ENDCHAR
STARTCHAR uniE777
ENCODING 59255
SWIDTH 576 0
DWIDTH 9 0
BBX 9 16 0 0
BITMAP
4000
E000
7000
3800
1C00
0E00
0700
0380
0380
0700
0E00
1C00
3800
7000
E000
4000
ENDCHAR
STARTCHAR uniE778
ENCODING 59256
SWIDTH 1000 0
DWIDTH 16 0
BBX 16 16 0 0
BITMAP
FFFF
8001
8001
8001
8FF1
8001
8001
8FF1
8FF1
8001
8001
8FF1
8001
8001
8001
FFFF
ENDCHAR
STARTCHAR uniE779
ENCODING 59257
SWIDTH 1000 0
DWIDTH 16 0
BBX 16 16 0 0
BITMAP
0010
0038
003C
001E
018F
03C6
07E0
0FF0
1FF0
3FE0
3FC0
1F80
8F00
C600
E000
F000
ENDCHAR
STARTCHAR uniE77A
ENCODING 59258
SWIDTH 712 0
DWIDTH 11 0
BBX 11 16 0 0
BITMAP
1F00
3F80
30C0
30C0
30C0
0000
FFE0
FFE0
F9E0
F9E0
FBE0
FBE0
FBE0
7FE0
7FC0
1F80
ENDCHAR
STARTCHAR uniE77B
ENCODING 59259
SWIDTH 998 0
DWIDTH 16 0
BBX 16 16 0 0
BITMAP
7FF0
C008
8006
8003
8181
8181
8181
8181
8FF1
8181
8181
8181
8001
8001
C003
7FFE
ENDCHAR
STARTCHAR uniE77C
ENCODING 59260
SWIDTH 1378 0
DWIDTH 22 0
BBX 22 16 0 0
BITMAP
00FC00
030300
040080
080040
107820
208410
410208
810204
810204
410208
208410
107820
080040
040080
030300
00FC00
ENDCHAR
STARTCHAR uniE77D
ENCODING 59261
SWIDTH 1000 0
DWIDTH 16 0
BBX 16 16 0 0
BITMAP
07E0
1818
300C
6006
4182
8181
8001
8001
8181
8181
8181
4182
6006
300C
1818
07E0
ENDCHAR
STARTCHAR uniE77E
ENCODING 59262
SWIDTH 1000 0
DWIDTH 16 0
BBX 16 16 0 0
BITMAP
3FF0
FFF8
C018
C018
C018
CFDC
CFCE
C007
C007
CFCE
CFDC
C018
C018
C018
FFF8
3FF0
ENDCHAR
STARTCHAR uniE77F
ENCODING 59263
SWIDTH 1000 0
DWIDTH 16 0
BBX 16 16 0 0
BITMAP
0F80
3FC0
70E0
6030
C030
C018
C018
C018
E030
6070
38F0
1FF8
071C
000E
0007
0003
ENDCHAR
STARTCHAR uniE780
ENCODING 59264
SWIDTH 1000 0
DWIDTH 16 0
BBX 16 16 0 0
BITMAP
000E
001F
002F
0077
00FA
01DC
03B8
0770
0EE0
1DC0
3B80
7700
7E00
7C00
F800
C000
ENDCHAR
STARTCHAR uniE781
ENCODING 59265
SWIDTH 1000 0
DWIDTH 16 0
BBX 16 14 0 1
BITMAP
0180
0180
03C0
03C0
07E0
FFFF
7FFE
3FFC
1FF8
0FF0
0FF0
0FF0
1E78
1818
ENDCHAR
STARTCHAR uniE782
ENCODING 59266
SWIDTH 1000 0
DWIDTH 16 0
BBX 16 16 0 0
BITMAP
0010
0038
0038
0078
0078
01F8
CFFE
CFFF
CFFF
CFFF
CFFF
CFFF
CFFE
CFFE
CFFE
CFFC
ENDCHAR
STARTCHAR uniE783
ENCODING 59267
SWIDTH 1000 0
DWIDTH 16 0
BBX 16 14 0 1
BITMAP
0010
7E18
FC1C
C07F
C1FE
C3FC
C718
C410
CC00
C806
C006
C006
FFFE
FFFE
ENDCHAR
STARTCHAR uniE784
ENCODING 59268
SWIDTH 1000 0
DWIDTH 16 0
BBX 15 16 0 0
BITMAP
0010
0028
0044
0082
0142
0224
0418
0810
1020
2040
4080
8100
8200
8400
8800
F000
ENDCHAR
STARTCHAR uniE785
ENCODING 59269
SWIDTH 1000 0
DWIDTH 16 0
BBX 15 16 0 0
BITMAP
0010
0038
007C
007E
01BE
03DC
07E8
0FF0
1FE0
3FC0
7F80
FF00
FE00
FC00
F800
F000
ENDCHAR
STARTCHAR uniE786
ENCODING 59270
SWIDTH 1000 0
DWIDTH 16 0
BBX 16 15 0 0
BITMAP
0180
0180
0240
0240
1C38
E007
4002
2004
1008
0810
1010
1188
1668
1818
1008
ENDCHAR
STARTCHAR uniE787
ENCODING 59271
SWIDTH 1000 0
DWIDTH 16 0
BBX 16 15 0 0
BITMAP
0180
0180
03C0
03C0
1FF8
FFFF
7FFE
3FFC
1FF8
0FF0
0FF0
1FF8
1E78
1818
1008
ENDCHAR
STARTCHAR uniE788
ENCODING 59272
SWIDTH 1000 0
DWIDTH 16 0
BBX 15 15 0 0
BITMAP
00F0
0090
0090
0110
0E20
F03C
9002
9002
9002
9002
9004
9004
9004
900C
7FF0
ENDCHAR
STARTCHAR uniE789
ENCODING 59273
SWIDTH 1000 0
DWIDTH 16 0
BBX 15 15 0 0
BITMAP
00F0
00F0
00F0
01F0
0FE0
FFFC
EFFE
EFFE
EFFE
EFFE
EFFC
EFFC
EFFC
EFFC
7FF0
ENDCHAR
STARTCHAR uniE78A
ENCODING 59274
SWIDTH 1000 0
DWIDTH 16 0
BBX 16 16 0 0
BITMAP
8001
4002
2004
1008
0810
0420
0240
0180
0180
0240
0420
0810
1008
2004
4002
8001
ENDCHAR
STARTCHAR uniE78B
ENCODING 59275
SWIDTH 1000 0
DWIDTH 16 0
BBX 16 16 0 0
BITMAP
07E0
1FF8
3FFC
7FF8
7FF0
FFE3
FFC7
F9CF
F89F
FC1F
FE3F
7E7E
7FFE
3FFC
1FF8
07E0
ENDCHAR
STARTCHAR uniE78C
ENCODING 59276
SWIDTH 1000 0
DWIDTH 16 0
BBX 12 15 0 1
BITMAP
0F00
3B80
6040
4F20
9930
9190
9990
CF20
4020
6060
2040
3080
1980
0B00
0600
ENDCHAR
STARTCHAR uniE78D
ENCODING 59277
SWIDTH 1000 0
DWIDTH 16 0
BBX 16 16 0 0
BITMAP
03E0
0FF0
0FF8
1FF8
1FFC
1FFC
3FFC
3FFC
7FFE
FFFE
FFFF
BFFF
3FFC
1FF8
3FFC
3E7C
ENDCHAR
STARTCHAR uniE78E
ENCODING 59278
SWIDTH 1000 0
DWIDTH 16 0
BBX 16 16 0 0
BITMAP
003C
007E
00FF
03FF
07FE
0FBC
1F00
1E00
3C00
7800
7C00
FC00
FC00
FC00
7800
3000
ENDCHAR
STARTCHAR uniE78F
ENCODING 59279
SWIDTH 1000 0
DWIDTH 16 0
BBX 16 16 0 0
BITMAP
0180
03C0
03E0
07E0
0FF0
1FF8
3FFC
3FFE
7FFE
FFFF
1FF8
1C38
1C38
1C38
1C38
1C38
ENDCHAR
STARTCHAR uniE790
ENCODING 59280
SWIDTH 1000 0
DWIDTH 16 0
BBX 16 12 0 2
BITMAP
003C
0302
0F1D
1F75
3FF1
7071
E618
CF1C
CD9C
D318
6E30
1FE0
ENDCHAR
STARTCHAR uniE791
ENCODING 59281
SWIDTH 1226 0
DWIDTH 20 0
BBX 20 16 0 0
BITMAP
0FC000
3FF000
7FF800
73B800
F7BC00
FFCF00
FFBFC0
FF7FE0
7FE6E0
7EFFF0
1EFFF0
37FFE0
00FFE0
007FC0
003F80
000040
ENDCHAR
STARTCHAR uniE792
ENCODING 59282
SWIDTH 875 0
DWIDTH 14 0
BBX 14 15 0 1
BITMAP
3FC0
7FE0
FFF0
FFF8
FCFC
FCFC
FCFC
FC1C
E01C
E0FC
FCFC
FCFC
FCFC
FFFC
7FF8
ENDCHAR
STARTCHAR uniE793
ENCODING 59283
SWIDTH 1125 0
DWIDTH 18 0
BBX 17 14 0 1
BITMAP
000400
000600
00FF80
01FF80
018600
798400
FD8000
FFF800
FFF800
FD8000
798000
018000
01FC00
00FC00
ENDCHAR
STARTCHAR uniE794
ENCODING 59284
SWIDTH 1000 0
DWIDTH 16 0
BBX 16 16 0 0
BITMAP
00FF
7003
F005
8009
8011
8021
8041
8081
8100
8200
8400
8000
8006
8006
8006
FFFC
ENDCHAR
STARTCHAR uniE795
ENCODING 59285
SWIDTH 1000 0
DWIDTH 16 0
BBX 16 16 0 0
BITMAP
FFFF
8001
8001
8401
8E01
8E01
8001
8001
8619
8F31
99E1
90C1
8001
8001
8001
FFFF
ENDCHAR
STARTCHAR uniE796
ENCODING 59286
SWIDTH 1000 0
DWIDTH 16 0
BBX 16 16 0 0
BITMAP
07E0
1FF8
3FFC
7FFE
7E7E
FE7F
EE77
E667
F24F
F81F
FC3F
7E7E
7FFE
3FFC
1FF8
07E0
ENDCHAR
STARTCHAR uniE797
ENCODING 59287
SWIDTH 1000 0
DWIDTH 16 0
BBX 1 1 0 0
BITMAP
00
ENDCHAR
STARTCHAR uniE798
ENCODING 59288
SWIDTH 1000 0
DWIDTH 16 0
BBX 1 1 0 0
BITMAP
00
ENDCHAR
STARTCHAR uniE799
ENCODING 59289
SWIDTH 1000 0
DWIDTH 16 0
BBX 1 1 0 0
BITMAP
00
ENDCHAR
STARTCHAR uniE79A
ENCODING 59290
SWIDTH 1000 0
DWIDTH 16 0
BBX 1 1 0 0
BITMAP
00
ENDCHAR
STARTCHAR uniE79B
ENCODING 59291
SWIDTH 1000 0
DWIDTH 16 0
BBX 1 1 0 0
BITMAP
00
ENDCHAR
STARTCHAR uniE79C
ENCODING 59292
SWIDTH 1000 0
DWIDTH 16 0
BBX 1 1 0 0
BITMAP
00
ENDCHAR
STARTCHAR uniE79D
ENCODING 59293
SWIDTH 1000 0
DWIDTH 16 0
BBX 1 1 0 0
BITMAP
00
ENDCHAR
STARTCHAR uniE79E
ENCODING 59294
SWIDTH 1000 0
DWIDTH 16 0
BBX 1 1 0 0
BITMAP
00
ENDCHAR
STARTCHAR uniE79F
ENCODING 59295
SWIDTH 1000 0
DWIDTH 16 0
BBX 1 1 0 0
BITMAP
00
ENDCHAR
STARTCHAR uniE7A0
ENCODING 59296
SWIDTH 1000 0
DWIDTH 16 0
BBX 1 1 0 0
BITMAP
00
ENDCHAR
STARTCHAR uniE7A1
ENCODING 59297
SWIDTH 1000 0
DWIDTH 16 0
BBX 1 1 0 0
BITMAP
00
ENDCHAR
STARTCHAR uniE7A2
ENCODING 59298
SWIDTH 1000 0
DWIDTH 16 0
BBX 1 1 0 0
BITMAP
00
ENDCHAR
STARTCHAR uniE7A3
ENCODING 59299
SWIDTH 1000 0
DWIDTH 16 0
BBX 1 1 0 0
BITMAP
00
ENDCHAR
STARTCHAR uniE7A4
ENCODING 59300
SWIDTH 1000 0
DWIDTH 16 0
BBX 1 1 0 0
BITMAP
00
ENDCHAR
STARTCHAR uniE7A5
ENCODING 59301
SWIDTH 1000 0
DWIDTH 16 0
BBX 1 1 0 0
BITMAP
00
ENDCHAR
STARTCHAR uniE7A6
ENCODING 59302
SWIDTH 1000 0
DWIDTH 16 0
BBX 1 1 0 0
BITMAP
00
ENDCHAR
STARTCHAR uniE7A7
ENCODING 59303
SWIDTH 1000 0
DWIDTH 16 0
BBX 1 1 0 0
BITMAP
00
ENDCHAR
STARTCHAR uniE7A8
ENCODING 59304
SWIDTH 1000 0
DWIDTH 16 0
BBX 1 1 0 0
BITMAP
00
ENDCHAR
STARTCHAR uniE7A9
ENCODING 59305
SWIDTH 1000 0
DWIDTH 16 0
BBX 1 1 0 0
BITMAP
00
ENDCHAR
STARTCHAR uniE7AA
ENCODING 59306
SWIDTH 1000 0
DWIDTH 16 0
BBX 1 1 0 0
BITMAP
00
ENDCHAR
STARTCHAR uniE7AB
ENCODING 59307
SWIDTH 1000 0
DWIDTH 16 0
BBX 1 1 0 0
BITMAP
00
ENDCHAR
STARTCHAR uniE7AC
ENCODING 59308
SWIDTH 1000 0
DWIDTH 16 0
BBX 1 1 0 0
BITMAP
00
ENDCHAR
STARTCHAR uniE7AD
ENCODING 59309
SWIDTH 1000 0
DWIDTH 16 0
BBX 1 1 0 0
BITMAP
00
ENDCHAR
STARTCHAR uniE7AE
ENCODING 59310
SWIDTH 1000 0
DWIDTH 16 0
BBX 1 1 0 0
BITMAP
00
ENDCHAR
STARTCHAR uniE7AF
ENCODING 59311
SWIDTH 1000 0
DWIDTH 16 0
BBX 1 1 0 0
BITMAP
00
ENDCHAR
STARTCHAR uniE7B0
ENCODING 59312
SWIDTH 1000 0
DWIDTH 16 0
BBX 1 1 0 0
BITMAP
00
ENDCHAR
STARTCHAR uniE7B1
ENCODING 59313
SWIDTH 1000 0
DWIDTH 16 0
BBX 1 1 0 0
BITMAP
00
ENDCHAR
STARTCHAR uniE7B2
ENCODING 59314
SWIDTH 1000 0
DWIDTH 16 0
BBX 1 1 0 0
BITMAP
00
ENDCHAR
STARTCHAR uniE7B3
ENCODING 59315
SWIDTH 1000 0
DWIDTH 16 0
BBX 1 1 0 0
BITMAP
00
ENDCHAR
STARTCHAR uniE7B4
ENCODING 59316
SWIDTH 1000 0
DWIDTH 16 0
BBX 1 1 0 0
BITMAP
00
ENDCHAR
STARTCHAR uniE7B5
ENCODING 59317
SWIDTH 1000 0
DWIDTH 16 0
BBX 1 1 0 0
BITMAP
00
ENDCHAR
STARTCHAR uniE7B6
ENCODING 59318
SWIDTH 1000 0
DWIDTH 16 0
BBX 1 1 0 0
BITMAP
00
ENDCHAR
STARTCHAR uniE7B7
ENCODING 59319
SWIDTH 1000 0
DWIDTH 16 0
BBX 1 1 0 0
BITMAP
00
ENDCHAR
STARTCHAR uniE7B8
ENCODING 59320
SWIDTH 1000 0
DWIDTH 16 0
BBX 1 1 0 0
BITMAP
00
ENDCHAR
STARTCHAR uniE7B9
ENCODING 59321
SWIDTH 1000 0
DWIDTH 16 0
BBX 1 1 0 0
BITMAP
00
ENDCHAR
STARTCHAR uniE7BA
ENCODING 59322
SWIDTH 1000 0
DWIDTH 16 0
BBX 1 1 0 0
BITMAP
00
ENDCHAR
STARTCHAR uniE7BB
ENCODING 59323
SWIDTH 1000 0
DWIDTH 16 0
BBX 1 1 0 0
BITMAP
00
ENDCHAR
STARTCHAR uniE7BC
ENCODING 59324
SWIDTH 1000 0
DWIDTH 16 0
BBX 1 1 0 0
BITMAP
00
ENDCHAR
STARTCHAR uniE7BD
ENCODING 59325
SWIDTH 1000 0
DWIDTH 16 0
BBX 1 1 0 0
BITMAP
00
ENDCHAR
STARTCHAR uniE7BE
ENCODING 59326
SWIDTH 1000 0
DWIDTH 16 0
BBX 1 1 0 0
BITMAP
00
ENDCHAR
STARTCHAR uniE7BF
ENCODING 59327
SWIDTH 1000 0
DWIDTH 16 0
BBX 1 1 0 0
BITMAP
00
ENDCHAR
STARTCHAR uniE7C0
ENCODING 59328
SWIDTH 1000 0
DWIDTH 16 0
BBX 1 1 0 0
BITMAP
00
ENDCHAR
STARTCHAR uniE7C1
ENCODING 59329
SWIDTH 1000 0
DWIDTH 16 0
BBX 1 1 0 0
BITMAP
00
ENDCHAR
STARTCHAR uniE7C2
ENCODING 59330
SWIDTH 1000 0
DWIDTH 16 0
BBX 1 1 0 0
BITMAP
00
ENDCHAR
STARTCHAR uniE7C3
ENCODING 59331
SWIDTH 1000 0
DWIDTH 16 0
BBX 1 1 0 0
BITMAP
00
ENDCHAR
STARTCHAR uniE7C4
ENCODING 59332
SWIDTH 1000 0
DWIDTH 16 0
BBX 1 1 0 0
BITMAP
00
ENDCHAR
STARTCHAR uniE7C5
ENCODING 59333
SWIDTH 1000 0
DWIDTH 16 0
BBX 1 1 0 0
BITMAP
00
ENDCHAR
STARTCHAR uniE7C6
ENCODING 59334
SWIDTH 1000 0
DWIDTH 16 0
BBX 1 1 0 0
BITMAP
00
ENDCHAR
STARTCHAR uniE7C7
ENCODING 59335
SWIDTH 500 0
DWIDTH 8 0
BBX 8 11 0 0
BITMAP
06
1C
38
00
F6
DB
DB
DB
DB
DB
DB
ENDCHAR
STARTCHAR uniE7C8
ENCODING 59336
SWIDTH 500 0
DWIDTH 8 0
BBX 8 11 0 0
BITMAP
30
1C
00
EE
76
66
66
66
66
66
F7
ENDCHAR
STARTCHAR uniE7C9
ENCODING 59337
SWIDTH 500 0
DWIDTH 8 0
BBX 4 11 1 0
BITMAP
F0
60
60
60
60
60
60
60
60
60
F0
ENDCHAR
STARTCHAR uniE7CA
ENCODING 59338
SWIDTH 500 0
DWIDTH 8 0
BBX 3 13 1 0
BITMAP
60
60
60
60
00
60
E0
60
60
60
60
60
60
ENDCHAR
STARTCHAR uniE7CB
ENCODING 59339
SWIDTH 1000 0
DWIDTH 16 0
BBX 1 1 15 -2
BITMAP
00
ENDCHAR
STARTCHAR uniE7CC
ENCODING 59340
SWIDTH 1000 0
DWIDTH 16 0
BBX 1 1 15 -2
BITMAP
00
ENDCHAR
STARTCHAR uniE7CD
ENCODING 59341
SWIDTH 1000 0
DWIDTH 16 0
BBX 1 1 15 -2
BITMAP
00
ENDCHAR
STARTCHAR uniE7CE
ENCODING 59342
SWIDTH 1000 0
DWIDTH 16 0
BBX 1 1 15 -2
BITMAP
00
ENDCHAR
STARTCHAR uniE7CF
ENCODING 59343
SWIDTH 1000 0
DWIDTH 16 0
BBX 1 1 15 -2
BITMAP
00
ENDCHAR
STARTCHAR uniE7D0
ENCODING 59344
SWIDTH 1000 0
DWIDTH 16 0
BBX 1 1 15 -2
BITMAP
00
ENDCHAR
STARTCHAR uniE7D1
ENCODING 59345
SWIDTH 1000 0
DWIDTH 16 0
BBX 1 1 15 -2
BITMAP
00
ENDCHAR
STARTCHAR uniE7D2
ENCODING 59346
SWIDTH 1000 0
DWIDTH 16 0
BBX 1 1 15 -2
BITMAP
00
ENDCHAR
STARTCHAR uniE7D3
ENCODING 59347
SWIDTH 1000 0
DWIDTH 16 0
BBX 1 1 15 -2
BITMAP
00
ENDCHAR
STARTCHAR uniE7E7
ENCODING 59367
SWIDTH 1000 0
DWIDTH 16 0
BBX 12 12 2 0
BITMAP
5550
8000
0810
9680
0110
8200
1F90
8400
1F90
8800
0010
AAA0
ENDCHAR
STARTCHAR uniE7E8
ENCODING 59368
SWIDTH 1000 0
DWIDTH 16 0
BBX 12 13 2 -1
BITMAP
FFF0
C730
8210
8210
8210
8210
8210
8210
8210
8210
8210
C730
FFF0
ENDCHAR
STARTCHAR uniE7E9
ENCODING 59369
SWIDTH 1000 0
DWIDTH 16 0
BBX 12 13 2 -1
BITMAP
FFF0
C030
8010
8010
8010
C030
FFF0
C030
8010
8010
8010
C030
FFF0
ENDCHAR
STARTCHAR uniE7EA
ENCODING 59370
SWIDTH 1000 0
DWIDTH 16 0
BBX 12 13 2 -1
BITMAP
FFF0
DDF0
8890
8890
8890
8890
8890
8890
8890
8890
8890
DDF0
FFF0
ENDCHAR
STARTCHAR uniE7EB
ENCODING 59371
SWIDTH 1000 0
DWIDTH 16 0
BBX 12 13 2 -1
BITMAP
FFF0
C030
8010
C030
FFF0
C030
8010
C030
FFF0
C030
8010
C030
FFF0
ENDCHAR
STARTCHAR uniE7EC
ENCODING 59372
SWIDTH 1000 0
DWIDTH 16 0
BBX 12 13 2 -1
BITMAP
FFF0
C030
8010
9FD0
98D0
9050
9050
9050
98D0
9FD0
8010
C030
FFF0
ENDCHAR
STARTCHAR uniE7ED
ENCODING 59373
SWIDTH 1000 0
DWIDTH 16 0
BBX 12 13 2 -1
BITMAP
FFF0
C030
8010
8010
8010
8010
8010
8010
8010
8010
8010
8010
8010
ENDCHAR
STARTCHAR uniE7EE
ENCODING 59374
SWIDTH 1000 0
DWIDTH 16 0
BBX 12 13 2 -1
BITMAP
8010
8010
8010
8010
8010
8010
8010
8010
8010
8010
8010
C030
FFF0
ENDCHAR
STARTCHAR uniE7EF
ENCODING 59375
SWIDTH 1000 0
DWIDTH 16 0
BBX 12 13 2 -1
BITMAP
FFF0
C000
8000
8000
8000
8000
8000
8000
8000
8000
8000
C000
FFF0
ENDCHAR
STARTCHAR uniE7F0
ENCODING 59376
SWIDTH 1000 0
DWIDTH 16 0
BBX 12 13 2 -1
BITMAP
FFF0
C000
8000
8000
8000
8000
8000
8000
8000
8000
8000
8000
8000
ENDCHAR
STARTCHAR uniE7F1
ENCODING 59377
SWIDTH 1000 0
DWIDTH 16 0
BBX 12 13 2 -1
BITMAP
FFF0
0030
0010
0010
0010
0010
0010
0010
0010
0010
0010
0010
0010
ENDCHAR
STARTCHAR uniE7F2
ENCODING 59378
SWIDTH 1000 0
DWIDTH 16 0
BBX 12 13 2 -1
BITMAP
8000
8000
8000
8000
8000
8000
8000
8000
8000
8000
8000
C000
FFF0
ENDCHAR
STARTCHAR uniE7F3
ENCODING 59379
SWIDTH 1000 0
DWIDTH 16 0
BBX 12 12 2 0
BITMAP
FF80
C180
8080
9FF0
99B0
9090
9090
D190
FF90
1010
1830
1FF0
ENDCHAR
STARTCHAR uniE7F4
ENCODING 59380
SWIDTH 1000 0
DWIDTH 16 0
BBX 12 13 2 -1
BITMAP
0010
0010
0010
0010
0010
0010
0010
0010
0010
0010
0010
0030
FFF0
ENDCHAR
STARTCHAR uniE815
ENCODING 59413
SWIDTH 1000 0
DWIDTH 16 0
BBX 12 13 1 -1
BITMAP
01F0
1E00
1000
1000
1000
1000
1000
1000
2000
2000
2000
4000
8000
ENDCHAR
STARTCHAR uniE816
ENCODING 59414
SWIDTH 1000 0
DWIDTH 16 0
BBX 14 14 1 -1
BITMAP
0200
0300
0200
0200
0208
7FFC
0200
0200
0400
0400
0800
1800
2000
C000
ENDCHAR
STARTCHAR uniE817
ENCODING 59415
SWIDTH 1000 0
DWIDTH 16 0
BBX 13 6 1 6
BITMAP
1800
1010
3FF8
2000
4000
8000
ENDCHAR
STARTCHAR uniE818
ENCODING 59416
SWIDTH 1000 0
DWIDTH 16 0
BBX 12 12 2 0
BITMAP
0020
FFF0
0020
0020
0020
0020
0020
0020
0020
0020
0020
0060
ENDCHAR
STARTCHAR uniE819
ENCODING 59417
SWIDTH 1000 0
DWIDTH 16 0
BBX 13 13 2 -1
BITMAP
0040
FFE0
4040
0040
0040
0040
0040
0040
0040
0048
0048
0038
0008
ENDCHAR
STARTCHAR uniE81A
ENCODING 59418
SWIDTH 1000 0
DWIDTH 16 0
BBX 15 15 0 -2
BITMAP
0884
0CFE
0B04
1444
1154
31F4
504C
9780
1004
11FE
1204
1554
11F4
104C
1384
ENDCHAR
STARTCHAR uniE81B
ENCODING 59419
SWIDTH 1000 0
DWIDTH 16 0
BBX 14 14 1 -1
BITMAP
0880
0900
11F0
1220
2240
2488
6BFC
A008
2008
23F8
2008
2008
23F8
2008
ENDCHAR
STARTCHAR uniE81C
ENCODING 59420
SWIDTH 1000 0
DWIDTH 16 0
BBX 12 8 1 5
BITMAP
0800
1800
1020
3FF0
4020
8040
0080
0100
ENDCHAR
STARTCHAR uniE81D
ENCODING 59421
SWIDTH 1000 0
DWIDTH 16 0
BBX 11 10 3 -1
BITMAP
4080
FFC0
4080
4080
4080
4380
4100
4020
4020
7FE0
ENDCHAR
STARTCHAR uniE81E
ENCODING 59422
SWIDTH 1000 0
DWIDTH 16 0
BBX 11 9 3 4
BITMAP
0040
FFE0
0080
0100
2200
1400
0800
0600
0200
ENDCHAR
STARTCHAR uniE81F
ENCODING 59423
SWIDTH 1000 0
DWIDTH 16 0
BBX 13 14 2 -1
BITMAP
0220
03F0
9220
F3E0
92A0
9080
9490
97F8
9490
F550
9530
0610
0470
0410
ENDCHAR
STARTCHAR uniE820
ENCODING 59424
SWIDTH 1000 0
DWIDTH 16 0
BBX 14 13 1 -1
BITMAP
0F3C
0924
AF3C
E924
AF3C
A804
AF24
AA44
EF7C
AAD4
0D24
0F54
090C
ENDCHAR
STARTCHAR uniE821
ENCODING 59425
SWIDTH 1000 0
DWIDTH 16 0
BBX 14 14 1 -1
BITMAP
00C0
0888
0FFC
A8A4
E824
AFBC
A944
AFD4
AAA4
EBD4
AAD4
0F84
089C
0804
ENDCHAR
STARTCHAR uniE822
ENCODING 59426
SWIDTH 1000 0
DWIDTH 16 0
BBX 10 6 3 6
BITMAP
0400
8640
44C0
2500
2500
2500
ENDCHAR
STARTCHAR uniE823
ENCODING 59427
SWIDTH 1000 0
DWIDTH 16 0
BBX 13 9 1 -1
BITMAP
0400
0400
1520
3520
2490
44D8
8448
1C00
0400
ENDCHAR
STARTCHAR uniE824
ENCODING 59428
SWIDTH 1000 0
DWIDTH 16 0
BBX 14 15 1 -2
BITMAP
2088
31FC
2608
22A8
3BE8
A888
A138
2608
2100
27F8
2AA8
23E8
2088
2138
2E08
ENDCHAR
STARTCHAR uniE825
ENCODING 59429
SWIDTH 1000 0
DWIDTH 16 0
BBX 14 15 1 -2
BITMAP
2080
2180
2120
23F0
2420
B448
ABFC
A808
2008
23F8
2008
2008
2008
23F8
2008
ENDCHAR
STARTCHAR uniE826
ENCODING 59430
SWIDTH 1000 0
DWIDTH 16 0
BBX 10 9 3 4
BITMAP
0380
7C00
0400
7F80
0800
FFC0
1000
2000
C000
ENDCHAR
STARTCHAR uniE827
ENCODING 59431
SWIDTH 1000 0
DWIDTH 16 0
BBX 14 15 1 -2
BITMAP
0208
23FC
3208
2228
FB38
22A8
2248
3248
62A8
A2B8
A318
2208
2208
6238
2208
ENDCHAR
STARTCHAR uniE828
ENCODING 59432
SWIDTH 1000 0
DWIDTH 16 0
BBX 14 15 1 -2
BITMAP
2000
2488
22FC
F880
2080
2080
2480
2280
F880
2180
2280
2A80
2488
E4FC
2480
ENDCHAR
STARTCHAR uniE829
ENCODING 59433
SWIDTH 1000 0
DWIDTH 16 0
BBX 14 15 1 -2
BITMAP
2110
22A8
23FC
F6A8
23FC
22A8
2BFC
32A8
E3FC
A000
27FC
2204
25B8
E040
27BC
ENDCHAR
STARTCHAR uniE82A
ENCODING 59434
SWIDTH 1000 0
DWIDTH 16 0
BBX 15 15 1 -2
BITMAP
2000
2008
277C
F108
2148
29C8
2548
3548
6250
A550
2520
2550
2888
E106
2200
ENDCHAR
STARTCHAR uniE82B
ENCODING 59435
SWIDTH 1000 0
DWIDTH 16 0
BBX 13 8 2 5
BITMAP
0600
0440
7FE0
0400
0480
3FC0
0410
FFF8
ENDCHAR
STARTCHAR uniE82C
ENCODING 59436
SWIDTH 1000 0
DWIDTH 16 0
BBX 12 7 2 6
BITMAP
1100
1980
1120
7FF0
1100
1120
FFF0
ENDCHAR
STARTCHAR uniE82D
ENCODING 59437
SWIDTH 1000 0
DWIDTH 16 0
BBX 14 14 0 -1
BITMAP
1000
19FC
1104
1514
7D9C
1154
1924
3554
5554
918C
1104
1104
1104
110C
ENDCHAR
STARTCHAR uniE82E
ENCODING 59438
SWIDTH 1000 0
DWIDTH 16 0
BBX 14 14 1 -1
BITMAP
0040
0948
7DFC
2148
29F8
7C00
4BFC
A800
29F8
1148
1148
2040
40B0
8108
ENDCHAR
STARTCHAR uniE82F
ENCODING 59439
SWIDTH 1000 0
DWIDTH 16 0
BBX 14 14 1 -1
BITMAP
4000
2840
2440
8448
51FC
5040
2E40
2260
2250
A288
4288
4200
4500
48FC
ENDCHAR
STARTCHAR uniE830
ENCODING 59440
SWIDTH 1000 0
DWIDTH 16 0
BBX 12 8 2 5
BITMAP
0400
0600
2400
2440
7FE0
4400
0420
FFF0
ENDCHAR
STARTCHAR uniE831
ENCODING 59441
SWIDTH 1000 0
DWIDTH 16 0
BBX 13 9 2 4
BITMAP
0600
0400
3FE0
0400
3FE0
0A00
FFF8
2080
4070
ENDCHAR
STARTCHAR uniE832
ENCODING 59442
SWIDTH 1000 0
DWIDTH 16 0
BBX 13 7 1 6
BITMAP
0200
1320
1A30
0A40
4A88
7FF8
8010
ENDCHAR
STARTCHAR uniE833
ENCODING 59443
SWIDTH 1000 0
DWIDTH 16 0
BBX 7 12 1 0
BITMAP
04
7E
04
18
10
54
5E
50
50
52
5C
E0
ENDCHAR
STARTCHAR uniE834
ENCODING 59444
SWIDTH 1000 0
DWIDTH 16 0
BBX 14 14 1 -1
BITMAP
0040
9250
F160
9048
93FC
F150
924C
9080
F080
97FC
9120
F140
9080
0F78
ENDCHAR
STARTCHAR uniE835
ENCODING 59445
SWIDTH 1000 0
DWIDTH 16 0
BBX 14 15 1 -2
BITMAP
0840
0C40
F090
23F0
2808
FC40
23F8
30A0
6B1C
A860
A380
2038
23C0
2018
03E0
ENDCHAR
STARTCHAR uniE836
ENCODING 59446
SWIDTH 1000 0
DWIDTH 16 0
BBX 15 6 0 7
BITMAP
0820
0820
1244
3F7E
4890
8508
ENDCHAR
STARTCHAR uniE837
ENCODING 59447
SWIDTH 1000 0
DWIDTH 16 0
BBX 14 15 1 -2
BITMAP
1040
2060
2040
4A48
4BFC
AA48
1248
2248
23F8
FA48
0248
0A48
7248
C3F8
0208
ENDCHAR
STARTCHAR uniE838
ENCODING 59448
SWIDTH 1000 0
DWIDTH 16 0
BBX 14 7 1 6
BITMAP
4008
7FFC
4C88
88C8
1080
2090
4078
ENDCHAR
STARTCHAR uniE839
ENCODING 59449
SWIDTH 1000 0
DWIDTH 16 0
BBX 12 13 2 0
BITMAP
10C0
0880
0520
3FF0
0200
3FE0
0200
FFF0
1000
1000
2000
4000
8000
ENDCHAR
STARTCHAR uniE83A
ENCODING 59450
SWIDTH 1000 0
DWIDTH 16 0
BBX 12 7 2 5
BITMAP
1100
0A40
7FE0
0400
3F80
0420
FFF0
ENDCHAR
STARTCHAR uniE83B
ENCODING 59451
SWIDTH 1000 0
DWIDTH 16 0
BBX 13 14 2 -1
BITMAP
1080
10A0
1490
7E80
1090
FFF8
0080
0090
0098
00A0
00C0
0080
0150
0230
ENDCHAR
STARTCHAR uniE83C
ENCODING 59452
SWIDTH 1000 0
DWIDTH 16 0
BBX 14 14 1 -1
BITMAP
2000
27FC
24A4
FFFC
2220
FAB8
27A0
F83C
3380
6AA8
ABA8
A2B0
23A4
22BC
ENDCHAR
STARTCHAR uniE83D
ENCODING 59453
SWIDTH 1000 0
DWIDTH 16 0
BBX 14 15 1 -2
BITMAP
2208
23FC
22A8
FBF8
2A08
F060
2048
F9FC
2040
63FC
B080
A888
21FC
2604
2000
ENDCHAR
STARTCHAR uniE83E
ENCODING 59454
SWIDTH 1000 0
DWIDTH 16 0
BBX 13 10 2 3
BITMAP
0400
0600
0480
3FC0
0490
FFF8
0480
3F80
0420
7FF0
ENDCHAR
STARTCHAR uniE83F
ENCODING 59455
SWIDTH 1000 0
DWIDTH 16 0
BBX 14 13 1 -1
BITMAP
7840
4848
4BFC
6880
5888
4FFC
6910
59F8
4A10
4820
4940
88C0
9820
ENDCHAR
STARTCHAR uniE840
ENCODING 59456
SWIDTH 1000 0
DWIDTH 16 0
BBX 14 14 1 -1
BITMAP
0C60
0848
FFFC
0900
3FFC
2004
4C40
1078
6100
0210
7FF8
0410
0890
3060
ENDCHAR
STARTCHAR uniE841
ENCODING 59457
SWIDTH 1000 0
DWIDTH 16 0
BBX 15 15 0 -2
BITMAP
1020
F9FC
0124
FDFC
0820
0BFE
1104
35FC
5904
95FC
1104
11FC
1088
1104
0602
ENDCHAR
STARTCHAR uniE842
ENCODING 59458
SWIDTH 1000 0
DWIDTH 16 0
BBX 15 15 0 -2
BITMAP
1020
F9FC
0124
FDFC
0820
0BFE
1000
35FC
5904
9524
1124
1124
1020
1050
018E
ENDCHAR
STARTCHAR uniE843
ENCODING 59459
SWIDTH 1000 0
DWIDTH 16 0
BBX 14 11 1 2
BITMAP
2240
1260
1A40
12A0
7FF0
0408
FFFC
0880
1060
201C
C008
ENDCHAR
STARTCHAR uniE844
ENCODING 59460
SWIDTH 1000 0
DWIDTH 16 0
BBX 15 13 0 -1
BITMAP
113C
F9C0
0100
1104
F9FE
1110
1110
1110
1110
1510
1A10
2210
C410
ENDCHAR
STARTCHAR uniE845
ENCODING 59461
SWIDTH 1000 0
DWIDTH 16 0
BBX 16 14 0 -1
BITMAP
00CC
108A
7BFF
0088
10F8
F955
2756
2154
2355
2577
2000
2952
324A
C429
ENDCHAR
STARTCHAR uniE846
ENCODING 59462
SWIDTH 1000 0
DWIDTH 16 0
BBX 15 14 1 -1
BITMAP
0040
8848
FDFC
8850
F9F8
8844
FBFE
8800
89F8
F948
8948
21F8
4908
8538
ENDCHAR
STARTCHAR uniE847
ENCODING 59463
SWIDTH 1000 0
DWIDTH 16 0
BBX 14 14 1 -1
BITMAP
0040
8850
FBF8
8840
A9F0
A848
ABFC
A800
ABF8
AA48
2248
53F8
4A08
8218
ENDCHAR
STARTCHAR uniE848
ENCODING 59464
SWIDTH 1000 0
DWIDTH 16 0
BBX 7 14 1 -1
BITMAP
44
7E
44
44
7C
54
10
14
5E
50
50
56
78
80
ENDCHAR
STARTCHAR uniE849
ENCODING 59465
SWIDTH 1000 0
DWIDTH 16 0
BBX 14 15 1 -1
BITMAP
0008
F3FC
1000
29FC
4508
41F8
B908
1100
7DFC
1124
55B4
5A6C
12B4
1B24
E46C
ENDCHAR
STARTCHAR uniE84A
ENCODING 59466
SWIDTH 1000 0
DWIDTH 16 0
BBX 15 14 0 -1
BITMAP
1004
F3FE
1010
2890
26D0
2294
5DFE
8810
7E30
0850
0850
0A90
0D70
3010
ENDCHAR
STARTCHAR uniE84B
ENCODING 59467
SWIDTH 1000 0
DWIDTH 16 0
BBX 15 14 0 -1
BITMAP
1028
F124
1120
2948
25FC
2240
5C7C
8844
7EA8
08A8
08A8
0A90
0D28
32C6
ENDCHAR
STARTCHAR uniE84C
ENCODING 59468
SWIDTH 1000 0
DWIDTH 16 0
BBX 15 15 0 -1
BITMAP
0004
11FE
F000
10FE
2884
26FC
2080
5CEE
88A2
7D2A
09A6
096A
09B2
0D22
3266
ENDCHAR
STARTCHAR uniE84D
ENCODING 59469
SWIDTH 1000 0
DWIDTH 16 0
BBX 15 14 0 -1
BITMAP
1088
F088
13FE
2888
2640
22F4
5C48
89FE
7E40
09FC
08A4
0A94
0CFC
3084
ENDCHAR
STARTCHAR uniE84E
ENCODING 59470
SWIDTH 1000 0
DWIDTH 16 0
BBX 15 14 0 -1
BITMAP
1088
F054
11FE
2820
26FC
2220
5DFE
88A8
7E70
09FE
0800
0AF8
0C88
30F8
ENDCHAR
STARTCHAR uniE84F
ENCODING 59471
SWIDTH 1000 0
DWIDTH 16 0
BBX 15 15 0 -2
BITMAP
1154
F1DC
1154
29DC
2554
2290
5DFC
8AA0
7EFC
08A0
09FE
0884
0D48
3030
01CE
ENDCHAR
STARTCHAR uniE850
ENCODING 59472
SWIDTH 1000 0
DWIDTH 16 0
BBX 12 15 2 -2
BITMAP
F9F0
8910
F9F0
8910
F9F0
8210
9290
9290
AB50
C210
9FD0
8210
BFD0
8030
8010
ENDCHAR
STARTCHAR uniE851
ENCODING 59473
SWIDTH 1000 0
DWIDTH 16 0
BBX 12 15 2 -2
BITMAP
F9F0
8910
F9F0
8910
F9F0
8050
9F90
AA90
9550
BF90
8490
BF90
8410
8C30
8010
ENDCHAR
STARTCHAR uniE852
ENCODING 59474
SWIDTH 1000 0
DWIDTH 16 0
BBX 13 15 2 -2
BITMAP
0300
4210
FFF8
4210
4010
4210
5290
5290
6B50
4210
5FD0
4210
7FD0
4010
4070
ENDCHAR
STARTCHAR uniE853
ENCODING 59475
SWIDTH 1000 0
DWIDTH 16 0
BBX 13 15 2 -2
BITMAP
0300
4210
FFF8
4210
41D0
5E90
6A50
5110
5FD0
4250
5FD0
4210
4210
4E10
4270
ENDCHAR
STARTCHAR uniE854
ENCODING 59476
SWIDTH 1000 0
DWIDTH 16 0
BBX 9 15 1 -2
BITMAP
0800
0A00
FF00
0800
4A00
7F00
4200
7E00
4200
7E00
0900
FF80
0800
0800
0800
ENDCHAR
STARTCHAR uniE855
ENCODING 59477
SWIDTH 1000 0
DWIDTH 16 0
BBX 14 10 1 3
BITMAP
1040
1040
5558
5560
1040
6DB0
8004
FFFC
8004
8004
ENDCHAR
STARTCHAR uniE856
ENCODING 59478
SWIDTH 1000 0
DWIDTH 16 0
BBX 15 15 0 -2
BITMAP
0510
0790
2410
7F94
243E
3F24
24C4
27A4
2924
3224
2F28
4910
4F28
8046
BF80
ENDCHAR
STARTCHAR uniE857
ENCODING 59479
SWIDTH 1000 0
DWIDTH 16 0
BBX 15 15 1 -2
BITMAP
FC00
2454
459E
8D14
0114
89D4
FD14
A914
F914
A9D4
F91C
0114
1C10
E010
0010
ENDCHAR
STARTCHAR uniE858
ENCODING 59480
SWIDTH 1000 0
DWIDTH 16 0
BBX 15 15 1 -2
BITMAP
FC20
2420
45FC
8C20
01F8
8850
FDFE
A890
F9F8
AA96
F8F0
0090
1CF0
E090
0090
ENDCHAR
STARTCHAR uniE859
ENCODING 59481
SWIDTH 1000 0
DWIDTH 16 0
BBX 15 14 0 -1
BITMAP
7E5C
1248
2284
4600
01FE
C428
7EFE
54AA
7CAA
54CE
7C82
00FE
0E82
70FE
ENDCHAR
STARTCHAR uniE85A
ENCODING 59482
SWIDTH 1000 0
DWIDTH 16 0
BBX 15 14 0 -1
BITMAP
0910
0F90
2814
3FBE
24A4
3F44
24A4
27A4
4924
57A8
4AA8
4F90
8AA8
9546
ENDCHAR
STARTCHAR uniE85B
ENCODING 59483
SWIDTH 1000 0
DWIDTH 16 0
BBX 15 14 1 -1
BITMAP
0040
7970
4A48
4840
6BFC
58A0
4FFE
6950
5E8E
4BFC
4D54
49F0
9954
8BFE
ENDCHAR
STARTCHAR uniE85C
ENCODING 59484
SWIDTH 1000 0
DWIDTH 16 0
BBX 14 15 1 -2
BITMAP
0820
FC48
21FC
A508
FF48
A528
A518
A500
A508
A7FC
AC08
A5E8
2008
2038
2008
ENDCHAR
STARTCHAR uniE85D
ENCODING 59485
SWIDTH 1000 0
DWIDTH 16 0
BBX 14 15 1 -2
BITMAP
2020
2848
FDFC
0108
4948
8528
0118
4900
2908
11FC
2808
25E8
4408
8038
0008
ENDCHAR
STARTCHAR uniE85E
ENCODING 59486
SWIDTH 1000 0
DWIDTH 16 0
BBX 14 15 1 -2
BITMAP
0208
FF4C
2468
7E48
9248
1D38
E228
1FF0
1110
10B0
1008
3FFC
0008
FFB8
0008
ENDCHAR
STARTCHAR uniE85F
ENCODING 59487
SWIDTH 1000 0
DWIDTH 16 0
BBX 15 15 0 -2
BITMAP
0C10
0824
7EFE
0884
3EA4
0894
FF8C
0080
7E84
52FE
5204
7EF4
4204
461C
4204
ENDCHAR
STARTCHAR uniE860
ENCODING 59488
SWIDTH 1000 0
DWIDTH 16 0
BBX 14 15 1 -2
BITMAP
4420
7E48
45FC
7D08
4548
7D28
4518
7D00
5908
15FC
FE08
11E8
2808
4438
8008
ENDCHAR
STARTCHAR uniE861
ENCODING 59489
SWIDTH 1000 0
DWIDTH 16 0
BBX 15 15 0 -2
BITMAP
4110
FE24
44FE
4784
54A4
7F94
548C
5F80
5484
57FE
5004
5574
5504
A99C
0004
ENDCHAR
STARTCHAR uniE862
ENCODING 59490
SWIDTH 1000 0
DWIDTH 16 0
BBX 15 15 0 -2
BITMAP
7908
4910
4FBE
4822
7ABA
42A2
4026
6BA0
BD7E
A922
AB8A
A97E
B902
290E
0002
ENDCHAR
STARTCHAR uniE863
ENCODING 59491
SWIDTH 1000 0
DWIDTH 16 0
BBX 14 15 1 -2
BITMAP
0480
0450
7FF8
0500
0520
09C8
1708
E1F0
0008
FFFC
0210
7FF8
0480
1860
E01C
ENDCHAR
STARTCHAR uniE864
ENCODING 59492
SWIDTH 1000 0
DWIDTH 16 0
BBX 14 9 1 4
BITMAP
2710
5028
A7D0
5028
F378
2814
63B0
AAD4
ABD4
ENDCHAR
STARTCHAR uniE865
ENCODING 59493
SWIDTH 1000 0
DWIDTH 16 0
BBX 15 15 1 -2
BITMAP
0040
F7FE
9492
9118
9000
93F8
9208
93F8
9040
97FC
F444
94E4
0594
0404
041C
ENDCHAR
STARTCHAR uniE866
ENCODING 59494
SWIDTH 1000 0
DWIDTH 16 0
BBX 16 15 0 -2
BITMAP
1000
102E
7C42
1082
1082
FEEE
2882
2882
6CEE
AAAA
A828
2828
2849
4849
998F
ENDCHAR
STARTCHAR uniE867
ENCODING 59495
SWIDTH 1000 0
DWIDTH 16 0
BBX 16 15 0 -2
BITMAP
2050
2051
FC92
2194
2298
FC91
20F1
209F
FC80
2420
25FF
2420
2C20
2020
2020
ENDCHAR
STARTCHAR uniE868
ENCODING 59496
SWIDTH 1000 0
DWIDTH 16 0
BBX 16 15 0 -2
BITMAP
0088
07FE
F888
2088
27FE
2402
FC02
23FC
2020
2020
23FE
2828
F024
0020
07FF
ENDCHAR
STARTCHAR uniE869
ENCODING 59497
SWIDTH 1000 0
DWIDTH 16 0
BBX 16 15 0 -2
BITMAP
2108
2108
2108
F908
2108
3108
2908
6108
A294
A224
A444
2883
2000
2FFF
2000
ENDCHAR
STARTCHAR uniE86A
ENCODING 59498
SWIDTH 1000 0
DWIDTH 16 0
BBX 15 15 1 -2
BITMAP
1000
13FE
1020
FC40
95FC
9504
9524
FD24
9524
9524
9524
9440
FC70
8488
8306
ENDCHAR
STARTCHAR uniE86B
ENCODING 59499
SWIDTH 1000 0
DWIDTH 16 0
BBX 16 14 0 -2
BITMAP
FDFE
1000
1000
2000
3BFF
6820
A820
A8A8
2924
2922
2A22
3821
28E0
0020
ENDCHAR
STARTCHAR uniE86C
ENCODING 59500
SWIDTH 1000 0
DWIDTH 16 0
BBX 16 15 0 -2
BITMAP
20E0
2020
2850
A888
A904
AA03
A1FC
2020
23FE
3020
2A22
2124
4128
47FF
8000
ENDCHAR
STARTCHAR uniE86D
ENCODING 59501
SWIDTH 1000 0
DWIDTH 16 0
BBX 15 15 0 -2
BITMAP
11FC
1044
1044
1084
FDFE
1112
1112
11FE
1048
108A
110E
1C60
E012
0004
00F8
ENDCHAR
STARTCHAR uniE86E
ENCODING 59502
SWIDTH 1000 0
DWIDTH 16 0
BBX 12 15 2 -2
BITMAP
4210
2220
1240
0200
7FE0
4020
4220
4220
4220
4220
4200
0500
0880
1040
E030
ENDCHAR
STARTCHAR uniE86F
ENCODING 59503
SWIDTH 1000 0
DWIDTH 16 0
BBX 15 15 1 -2
BITMAP
E020
2020
5020
4BFE
8020
7040
2090
2110
F920
2220
2048
2844
3044
21FC
4002
ENDCHAR
STARTCHAR uniE870
ENCODING 59504
SWIDTH 1000 0
DWIDTH 16 0
BBX 14 15 1 -2
BITMAP
4000
4FFC
2100
0100
8100
4100
21F8
0108
0108
2208
2208
4208
4408
8808
89F0
ENDCHAR
STARTCHAR uniE871
ENCODING 59505
SWIDTH 1000 0
DWIDTH 16 0
BBX 14 14 1 -1
BITMAP
0040
F040
03FC
0204
0204
E000
2000
2000
2000
2000
2000
2800
33FC
C000
ENDCHAR
STARTCHAR uniE872
ENCODING 59506
SWIDTH 1000 0
DWIDTH 16 0
BBX 14 15 1 -2
BITMAP
4000
27F8
1040
0040
0040
E040
27FC
2040
2040
2040
2040
2840
3040
2340
40C0
ENDCHAR
STARTCHAR uniE873
ENCODING 59507
SWIDTH 1000 0
DWIDTH 16 0
BBX 16 15 0 -2
BITMAP
1010
1110
111E
7D10
5510
57FF
5420
5522
7D22
5122
1152
158A
1D02
E5FE
0102
ENDCHAR
STARTCHAR uniE874
ENCODING 59508
SWIDTH 1000 0
DWIDTH 16 0
BBX 14 14 1 -2
BITMAP
EFFC
A840
A850
A848
A840
ABFC
A840
A840
A8A0
E8A0
A920
0910
1208
1404
ENDCHAR
STARTCHAR uniE875
ENCODING 59509
SWIDTH 1000 0
DWIDTH 16 0
BBX 16 15 0 -2
BITMAP
0820
FFFF
0820
0820
0000
FFFF
0420
7FFE
4422
4422
4422
4A52
514A
4002
401E
ENDCHAR
STARTCHAR uniE876
ENCODING 59510
SWIDTH 1000 0
DWIDTH 16 0
BBX 15 15 1 -2
BITMAP
E000
23F8
5208
4A08
8208
73F8
2208
2208
FA08
23F8
2208
2A08
3208
2208
4FFE
ENDCHAR
STARTCHAR uniE877
ENCODING 59511
SWIDTH 1000 0
DWIDTH 16 0
BBX 15 15 1 -2
BITMAP
23FC
2084
2084
A90C
A800
ABFC
AA24
AA24
ABFC
AA04
AA00
AA02
FA02
0204
01FC
ENDCHAR
STARTCHAR uniE878
ENCODING 59512
SWIDTH 1000 0
DWIDTH 16 0
BBX 14 15 1 -2
BITMAP
E040
207C
5040
4840
83FC
7204
2204
2204
FBFC
2204
2200
2A00
3200
2400
4400
ENDCHAR
STARTCHAR uniE879
ENCODING 59513
SWIDTH 1000 0
DWIDTH 16 0
BBX 15 15 1 -2
BITMAP
E210
2210
5210
4F90
8210
727C
2710
2A90
FA90
2210
2210
2A10
3210
22FE
4200
ENDCHAR
STARTCHAR uniE87A
ENCODING 59514
SWIDTH 1000 0
DWIDTH 16 0
BBX 15 15 1 -2
BITMAP
E040
27FE
5040
4BFC
8000
73FC
2204
23FC
F908
27FE
2000
2BFC
3204
23FC
4204
ENDCHAR
STARTCHAR uniE87B
ENCODING 59515
SWIDTH 1000 0
DWIDTH 16 0
BBX 15 15 1 -2
BITMAP
E410
2210
50FE
4892
8492
7290
22BC
20A4
F8A4
22A8
22A8
2A90
3510
2528
4544
ENDCHAR
STARTCHAR uniE87C
ENCODING 59516
SWIDTH 1000 0
DWIDTH 16 0
BBX 15 15 1 -2
BITMAP
E3FC
2244
5244
4BFC
8244
73FC
2244
2040
FBFC
2040
27FE
2800
32A4
2494
4492
ENDCHAR
STARTCHAR uniE87D
ENCODING 59517
SWIDTH 1000 0
DWIDTH 16 0
BBX 14 15 1 -2
BITMAP
E3C0
2040
50A0
4910
8208
7404
2100
2110
F960
2180
2100
2904
3104
2104
40F8
ENDCHAR
STARTCHAR uniE87E
ENCODING 59518
SWIDTH 1000 0
DWIDTH 16 0
BBX 15 15 1 -2
BITMAP
E3FE
2004
53E4
4A24
8224
73E4
2004
27FE
F804
23E4
2224
2A24
33E4
2004
4038
ENDCHAR
STARTCHAR uniE87F
ENCODING 59519
SWIDTH 1000 0
DWIDTH 16 0
BBX 14 15 1 -2
BITMAP
E100
2100
51FC
4A40
8440
7040
2040
23FC
F840
2040
20A0
2890
3108
2204
4404
ENDCHAR
STARTCHAR uniE880
ENCODING 59520
SWIDTH 1000 0
DWIDTH 16 0
BBX 14 15 1 -2
BITMAP
2000
27FC
24A4
F4A4
24A4
27FC
2100
21FC
7204
A408
2D10
20A0
2040
2380
EC00
ENDCHAR
STARTCHAR uniE881
ENCODING 59521
SWIDTH 1000 0
DWIDTH 16 0
BBX 15 15 1 -2
BITMAP
E090
2290
52BE
4AA0
82A0
72DE
2280
2080
FBFC
2294
2294
2A94
3294
2294
47FE
ENDCHAR
STARTCHAR uniE882
ENCODING 59522
SWIDTH 1000 0
DWIDTH 16 0
BBX 15 11 1 -1
BITMAP
1000
1010
5008
5008
5004
9002
9000
9010
1010
1010
1FF0
ENDCHAR
STARTCHAR uniE883
ENCODING 59523
SWIDTH 1000 0
DWIDTH 16 0
BBX 15 15 0 -2
BITMAP
1028
FE28
10FE
10AA
7EAA
10AA
FEAA
10FE
1EAA
22AA
C4AA
14AA
0CAA
30FE
C082
ENDCHAR
STARTCHAR uniE884
ENCODING 59524
SWIDTH 1000 0
DWIDTH 16 0
BBX 14 15 1 -2
BITMAP
0040
F840
8FFC
8A48
8A48
8950
8950
8FFC
8840
88E0
F950
9A48
0244
0444
0040
ENDCHAR
STARTCHAR uniE885
ENCODING 59525
SWIDTH 1000 0
DWIDTH 16 0
BBX 16 15 0 -2
BITMAP
0420
FFFF
0420
0800
49FF
4E10
48FE
4882
FF92
0892
4992
4A92
8C92
186C
E383
ENDCHAR
STARTCHAR uniE886
ENCODING 59526
SWIDTH 1000 0
DWIDTH 16 0
BBX 14 15 1 -2
BITMAP
0080
F080
9FFC
9080
9080
97F8
F080
9080
9FFC
9084
9084
9084
F0B8
8080
0080
ENDCHAR
STARTCHAR uniE887
ENCODING 59527
SWIDTH 1000 0
DWIDTH 16 0
BBX 14 15 1 -2
BITMAP
8000
4FFC
2804
0BF4
8884
4884
2BF4
0884
08A4
2894
2884
4BF4
4804
4FFC
8804
ENDCHAR
STARTCHAR uniE888
ENCODING 59528
SWIDTH 1000 0
DWIDTH 16 0
BBX 14 15 1 -2
BITMAP
2080
20F8
2108
FA10
2420
23FC
2004
3804
6004
A3FC
2004
2004
2004
27FC
E004
ENDCHAR
STARTCHAR uniE889
ENCODING 59529
SWIDTH 1000 0
DWIDTH 16 0
BBX 16 15 0 -2
BITMAP
1080
1082
FE84
1088
10B0
7C80
11FF
1090
FE90
1290
1288
1284
1692
10E1
1080
ENDCHAR
STARTCHAR uniE88A
ENCODING 59530
SWIDTH 1000 0
DWIDTH 16 0
BBX 16 15 0 -2
BITMAP
2090
2092
2114
FA98
2AB0
2CD1
4892
489E
48A0
2820
13FF
2820
2820
4020
8020
ENDCHAR
STARTCHAR uniE88B
ENCODING 59531
SWIDTH 1000 0
DWIDTH 16 0
BBX 14 15 1 -2
BITMAP
2000
23F8
2080
A880
A880
A880
A7FC
20A0
20A0
50A0
5120
4A24
4424
8824
8838
ENDCHAR
STARTCHAR uniE88C
ENCODING 59532
SWIDTH 1000 0
DWIDTH 16 0
BBX 16 15 0 -2
BITMAP
2000
23FE
2002
A9FE
A802
A802
23FE
2000
2004
23FF
3104
2884
4844
4004
80F8
ENDCHAR
STARTCHAR uniE88D
ENCODING 59533
SWIDTH 1000 0
DWIDTH 16 0
BBX 16 15 0 -2
BITMAP
1084
1048
11FE
9512
5512
55FE
5512
1112
11FE
1112
2810
25FF
4010
4010
8010
ENDCHAR
STARTCHAR uniE88E
ENCODING 59534
SWIDTH 1000 0
DWIDTH 16 0
BBX 15 15 0 -2
BITMAP
2104
1088
0890
7FFE
4002
4002
7FFE
0800
1000
3FFC
5004
9004
1004
1FFC
1004
ENDCHAR
STARTCHAR uniE88F
ENCODING 59535
SWIDTH 1000 0
DWIDTH 16 0
BBX 16 15 0 -2
BITMAP
0020
7C20
1020
23FF
2020
5820
6820
A850
A850
2848
2888
2944
3922
2A21
0400
ENDCHAR
STARTCHAR uniE890
ENCODING 59536
SWIDTH 1000 0
DWIDTH 16 0
BBX 15 15 1 -2
BITMAP
E3C0
2040
50A0
4910
8208
7406
2000
23FC
F840
2040
2040
2840
3040
27FE
4000
ENDCHAR
STARTCHAR uniE891
ENCODING 59537
SWIDTH 1000 0
DWIDTH 16 0
BBX 16 15 0 -2
BITMAP
3010
2010
3DFF
4501
4501
9400
1102
110C
1130
11C0
1101
1501
1902
1102
20FC
ENDCHAR
STARTCHAR uniE892
ENCODING 59538
SWIDTH 1000 0
DWIDTH 16 0
BBX 16 15 0 -2
BITMAP
7010
1810
25FF
7F01
8101
7C80
4482
7C8C
44B0
7CC0
4081
7C81
4082
7C84
407C
ENDCHAR
STARTCHAR uniE893
ENCODING 59539
SWIDTH 1000 0
DWIDTH 16 0
BBX 16 15 0 -2
BITMAP
FE88
2288
4688
0089
7E8A
4AEC
4A88
7E88
4A88
4A88
7E89
4289
00A9
FEC9
010E
ENDCHAR
STARTCHAR uniE894
ENCODING 59540
SWIDTH 1000 0
DWIDTH 16 0
BBX 16 15 0 -2
BITMAP
4888
4888
538E
2088
50E8
8850
098C
1A22
2C21
49FC
8820
0924
0A22
08E0
7020
ENDCHAR
STARTCHAR uniE895
ENCODING 59541
SWIDTH 1000 0
DWIDTH 16 0
BBX 16 15 0 -2
BITMAP
0908
0BFF
1108
1108
31F8
5020
53FE
9222
1222
13FE
1020
17FF
1020
1020
1020
ENDCHAR
STARTCHAR uniE896
ENCODING 59542
SWIDTH 1000 0
DWIDTH 16 0
BBX 14 15 1 -2
BITMAP
2040
23EC
22A4
AAA4
AAE4
AAA4
AAA4
AAA4
AAE4
AB2C
A800
F924
8924
0224
0C1C
ENDCHAR
STARTCHAR uniE897
ENCODING 59543
SWIDTH 1000 0
DWIDTH 16 0
BBX 16 15 0 -1
BITMAP
0124
2124
22AA
2534
22A5
FBFF
2028
27FF
2020
27D4
2554
2FD5
3549
C7D9
0026
ENDCHAR
STARTCHAR uniE898
ENCODING 59544
SWIDTH 1000 0
DWIDTH 16 0
BBX 15 15 1 -2
BITMAP
0100
7FFC
0100
FFFE
4848
90C4
0000
23FC
FE04
23FC
7204
ABFC
A204
23FC
2204
ENDCHAR
STARTCHAR uniE899
ENCODING 59545
SWIDTH 1000 0
DWIDTH 16 0
BBX 15 15 1 -2
BITMAP
E040
2080
517C
4B24
8524
71FE
2124
2924
F924
21FC
A924
A920
2540
3940
C140
ENDCHAR
STARTCHAR uniE89A
ENCODING 59546
SWIDTH 1000 0
DWIDTH 16 0
BBX 15 15 1 -2
BITMAP
E080
2100
52FC
4A24
8624
72FE
2224
2A24
FA24
22FC
2224
2A40
3240
2280
4280
ENDCHAR
STARTCHAR uniE89B
ENCODING 59547
SWIDTH 1000 0
DWIDTH 16 0
BBX 14 15 1 -2
BITMAP
FFFC
8204
FFFC
8204
FFFC
0200
0D80
1040
EFB8
0000
3FF0
0210
0210
0230
0200
ENDCHAR
STARTCHAR uniE89C
ENCODING 59548
SWIDTH 1000 0
DWIDTH 16 0
BBX 15 14 0 -2
BITMAP
FBF8
0000
01E0
F022
2024
27E4
20A8
20B0
2128
2128
2224
3822
C020
00E0
ENDCHAR
STARTCHAR uniE89D
ENCODING 59549
SWIDTH 1000 0
DWIDTH 16 0
BBX 16 16 0 -2
BITMAP
0040
8FFF
4A09
240E
0EA5
EB7B
2EA5
2BFD
2F51
2BBD
2B57
2480
2A42
23FD
5000
8FFF
ENDCHAR
STARTCHAR uniE89E
ENCODING 59550
SWIDTH 1000 0
DWIDTH 16 0
BBX 16 15 0 -2
BITMAP
2020
3F20
407F
BE41
2A41
2A92
2A92
FF10
5210
5210
5228
7F28
0244
0282
1D01
ENDCHAR
STARTCHAR uniE89F
ENCODING 59551
SWIDTH 1000 0
DWIDTH 16 0
BBX 12 15 2 -2
BITMAP
3FC0
2040
2040
3FC0
2040
3FC0
2040
3FC0
0000
FFF0
8010
8010
8010
FFF0
8010
ENDCHAR
STARTCHAR uniE8A0
ENCODING 59552
SWIDTH 1000 0
DWIDTH 16 0
BBX 16 15 0 -2
BITMAP
0088
07FF
F888
2088
2000
23FE
FA22
2020
27FF
2020
20A8
28A8
F124
0622
0020
ENDCHAR
STARTCHAR uniE8A1
ENCODING 59553
SWIDTH 1000 0
DWIDTH 16 0
BBX 14 15 1 -2
BITMAP
13FC
1000
23FC
2204
2204
6204
A204
A3FC
A204
2200
2400
2400
2400
2800
2800
ENDCHAR
STARTCHAR uniE8A2
ENCODING 59554
SWIDTH 1000 0
DWIDTH 16 0
BBX 16 15 0 -2
BITMAP
01E0
FC50
0848
4884
4902
4A01
FDFC
0800
1800
29FC
2904
4904
8904
09FC
3904
ENDCHAR
STARTCHAR uniE8A3
ENCODING 59555
SWIDTH 1000 0
DWIDTH 16 0
BBX 14 13 1 -1
BITMAP
FFFC
0000
0010
2010
1020
1020
0820
0840
0840
0840
0480
0080
FFFC
ENDCHAR
STARTCHAR uniE8A4
ENCODING 59556
SWIDTH 1000 0
DWIDTH 16 0
BBX 7 14 1 -1
BITMAP
02
02
02
02
22
22
22
42
42
82
82
82
02
1E
ENDCHAR
STARTCHAR uniE8A5
ENCODING 59557
SWIDTH 1000 0
DWIDTH 16 0
BBX 11 15 4 -2
BITMAP
0800
0800
0800
0800
0900
0880
0840
0840
0820
0820
0820
0820
0800
0800
F000
ENDCHAR
STARTCHAR uniE8A6
ENCODING 59558
SWIDTH 1000 0
DWIDTH 16 0
BBX 15 15 1 -2
BITMAP
0090
F890
0B9C
8890
8890
8890
839C
F890
0890
0890
EB9E
0890
0890
3890
0890
ENDCHAR
STARTCHAR uniE8A7
ENCODING 59559
SWIDTH 1000 0
DWIDTH 16 0
BBX 16 15 0 -2
BITMAP
0420
FFFF
0420
1000
13FE
9420
55FC
5504
5124
1124
1124
2924
2524
4450
458E
ENDCHAR
STARTCHAR uniE8A8
ENCODING 59560
SWIDTH 1000 0
DWIDTH 16 0
BBX 15 15 0 -2
BITMAP
2020
2020
2020
53FE
4820
8020
79FC
2000
FC24
2112
2152
2552
3A40
2044
C07C
ENDCHAR
STARTCHAR uniE8A9
ENCODING 59561
SWIDTH 1000 0
DWIDTH 16 0
BBX 15 14 0 -1
BITMAP
1008
187C
11A0
5628
5B4C
5090
D068
904C
23F6
3020
28E8
2CA4
2522
4222
ENDCHAR
STARTCHAR uniE8AA
ENCODING 59562
SWIDTH 1000 0
DWIDTH 16 0
BBX 14 15 1 -2
BITMAP
1000
1A10
FFF8
2490
6960
9840
25B8
C0C0
0088
FFFC
0080
7080
0880
0B80
0080
ENDCHAR
STARTCHAR uniE8AB
ENCODING 59563
SWIDTH 1000 0
DWIDTH 16 0
BBX 14 14 1 -1
BITMAP
0180
4108
FFFC
4820
7EFC
4820
5A68
6AAC
4100
5FF0
5110
5FF0
8104
BFFC
ENDCHAR
STARTCHAR uniE8AC
ENCODING 59564
SWIDTH 1000 0
DWIDTH 16 0
BBX 14 14 1 -1
BITMAP
40D8
6090
4894
7DFC
9090
9090
1490
FED4
10BC
9590
D690
9490
FC90
8510
ENDCHAR
STARTCHAR uniE8AD
ENCODING 59565
SWIDTH 1000 0
DWIDTH 16 0
BBX 14 14 1 -1
BITMAP
0040
0BE0
0C40
1020
2058
5FE4
8A40
31C0
C000
228C
3EF0
2284
3E84
227C
ENDCHAR
STARTCHAR uniE8AE
ENCODING 59566
SWIDTH 1000 0
DWIDTH 16 0
BBX 15 14 1 -1
BITMAP
0180
4104
7FFE
4824
9024
1CE0
1020
1CE0
4110
79D0
4112
79D2
412A
FBC4
ENDCHAR
STARTCHAR uniE8AF
ENCODING 59567
SWIDTH 1000 0
DWIDTH 16 0
BBX 15 14 1 -1
BITMAP
2020
2030
2224
ABFC
FA94
A892
A95E
AA40
F8A4
ABFE
2048
28A8
7810
89EE
ENDCHAR
STARTCHAR uniE8B0
ENCODING 59568
SWIDTH 1000 0
DWIDTH 16 0
BBX 14 14 1 -1
BITMAP
0020
3E20
C4F8
5288
8AF8
2088
7EF8
9080
14FC
FE80
10FC
D2A4
7E54
42AC
ENDCHAR
STARTCHAR uniE8B1
ENCODING 59569
SWIDTH 1000 0
DWIDTH 16 0
BBX 13 14 1 -1
BITMAP
FCF8
8488
FCF8
8488
FCF8
A108
97C8
A148
97E8
8288
B7E8
9088
9038
AFC8
ENDCHAR
STARTCHAR uniE8B2
ENCODING 59570
SWIDTH 1000 0
DWIDTH 16 0
BBX 14 14 1 -1
BITMAP
7060
1048
28FC
4488
4950
FEA0
A050
2990
FC14
23FC
A810
7110
2570
F810
ENDCHAR
STARTCHAR uniE8B3
ENCODING 59571
SWIDTH 1000 0
DWIDTH 16 0
BBX 14 14 1 -1
BITMAP
0200
2330
1220
0A48
7FFC
0680
0A40
3230
DFEC
1020
1FE0
1020
1FE0
1020
ENDCHAR
STARTCHAR uniE8B4
ENCODING 59572
SWIDTH 1000 0
DWIDTH 16 0
BBX 14 14 1 -1
BITMAP
1428
FEFC
1220
4208
7FF8
5488
4F08
5288
7FF8
1080
1E9C
10E0
1E84
E0FC
ENDCHAR
STARTCHAR uniE8B5
ENCODING 59573
SWIDTH 1000 0
DWIDTH 16 0
BBX 15 15 0 -1
BITMAP
0040
4288
33FC
0208
43F8
3208
07FE
2D12
F114
221C
25E0
2120
21E0
5004
CFFE
ENDCHAR
STARTCHAR uniE8B6
ENCODING 59574
SWIDTH 1000 0
DWIDTH 16 0
BBX 15 11 1 0
BITMAP
0040
1FE0
0A90
1FF8
1290
1FF0
1254
FFFE
4580
0240
1C60
ENDCHAR
STARTCHAR uniE8B7
ENCODING 59575
SWIDTH 969 0
DWIDTH 16 0
BBX 12 14 2 -2
BITMAP
0400
FFE0
1100
2080
2080
2080
2080
1F00
0000
0600
8600
8000
8000
FFF0
ENDCHAR
STARTCHAR uniE8B8
ENCODING 59576
SWIDTH 969 0
DWIDTH 16 0
BBX 15 15 0 -2
BITMAP
FFFE
FF7E
E00E
FBDE
F7EE
F7EE
F7EE
FBDE
FC3E
FFFE
FE7E
EE7E
EFFE
E006
FFFE
ENDCHAR
STARTCHAR uniE8B9
ENCODING 59577
SWIDTH 969 0
DWIDTH 16 0
BBX 15 15 0 -2
BITMAP
FFFE
8102
BFFA
8442
8822
8822
8822
87C2
8002
8182
8182
A002
BFFA
8002
FFFE
ENDCHAR
STARTCHAR uniE8BA
ENCODING 59578
SWIDTH 969 0
DWIDTH 16 0
BBX 14 15 1 -2
BITMAP
0400
FFD0
1210
211C
4090
4090
4090
4090
3F10
0010
0010
8000
8000
8000
FFF8
ENDCHAR
STARTCHAR uniE8BB
ENCODING 59579
SWIDTH 969 0
DWIDTH 16 0
BBX 12 14 2 -2
BITMAP
FFF0
0010
0010
0010
0000
FFF0
0000
FFF0
0010
0010
FFF0
8000
8000
FFF0
ENDCHAR
STARTCHAR uniE8BC
ENCODING 59580
SWIDTH 969 0
DWIDTH 16 0
BBX 13 11 1 1
BITMAP
FFA0
00A0
00B8
00A0
00A0
00A0
00A0
10A0
10A0
1020
FFA0
ENDCHAR
STARTCHAR uniE8BD
ENCODING 59581
SWIDTH 969 0
DWIDTH 16 0
BBX 12 14 2 -2
BITMAP
FF10
0110
0110
0110
FF70
0110
0110
0000
FFF0
8010
8010
8010
8010
FFF0
ENDCHAR
STARTCHAR uniE8BE
ENCODING 59582
SWIDTH 969 0
DWIDTH 16 0
BBX 12 14 2 -2
BITMAP
FFF0
1080
1080
1080
1080
FFF0
0000
FFF0
1080
1080
1080
1080
1080
1080
ENDCHAR
STARTCHAR uniE8BF
ENCODING 59583
SWIDTH 969 0
DWIDTH 16 0
BBX 12 11 2 1
BITMAP
FE10
8010
80F0
8010
FE10
8010
8010
8010
FE10
0010
0010
ENDCHAR
STARTCHAR uniE8C0
ENCODING 59584
SWIDTH 969 0
DWIDTH 16 0
BBX 14 15 1 -2
BITMAP
FFFC
FFFC
FFFC
FFFC
FFFC
FFFC
FFEC
8004
FFFC
FFFC
FFFC
FFFC
FFFC
FFFC
FFFC
ENDCHAR
STARTCHAR uniE8C1
ENCODING 59585
SWIDTH 969 0
DWIDTH 16 0
BBX 14 15 1 -2
BITMAP
FFFC
FFFC
FFFC
FFBC
C01C
FFFC
FFFC
FFFC
FFFC
FFDC
800C
FFFC
FFFC
FFFC
FFFC
ENDCHAR
STARTCHAR uniE8C2
ENCODING 59586
SWIDTH 969 0
DWIDTH 16 0
BBX 14 15 1 -2
BITMAP
FFFC
FFFC
FFBC
C01C
FFFC
FFFC
FFBC
E01C
FFFC
FFFC
FFDC
800C
FFFC
FFFC
FFFC
ENDCHAR
STARTCHAR uniE8C3
ENCODING 59587
SWIDTH 969 0
DWIDTH 16 0
BBX 14 15 1 -2
BITMAP
FFFC
FFFC
DFEC
C004
DAEC
DAEC
DAEC
DAAC
D72C
CFEC
C00C
DFEC
FFFC
FFFC
FFFC
ENDCHAR
STARTCHAR uniE8C4
ENCODING 59588
SWIDTH 969 0
DWIDTH 16 0
BBX 14 15 1 -2
BITMAP
FFFC
FFFC
FFBC
C01C
FDFC
FDFC
FB7C
E03C
FB7C
FB7C
F75C
C00C
FFFC
FFFC
FFFC
ENDCHAR
STARTCHAR uniE8C5
ENCODING 59589
SWIDTH 969 0
DWIDTH 16 0
BBX 14 15 1 -2
BITMAP
FFFC
FFFC
FDFC
FCFC
FDDC
C00C
FFFC
F37C
F7BC
EFDC
DFCC
BFDC
FFFC
FFFC
FFFC
ENDCHAR
STARTCHAR uniE8C6
ENCODING 59590
SWIDTH 969 0
DWIDTH 16 0
BBX 14 15 1 -2
BITMAP
FFFC
FFFC
FFFC
F3FC
F7FC
F7BC
F01C
87FC
F7FC
F7DC
F7DC
F03C
FFFC
FFFC
FFFC
ENDCHAR
STARTCHAR uniE8C7
ENCODING 59591
SWIDTH 969 0
DWIDTH 16 0
BBX 14 15 1 -2
BITMAP
FFFC
FFFC
FEFC
F07C
FEFC
F6FC
F77C
EF7C
EFBC
DFCC
BFEC
FFFC
FFFC
FFFC
FFFC
ENDCHAR
STARTCHAR uniE8C8
ENCODING 59592
SWIDTH 969 0
DWIDTH 16 0
BBX 14 15 1 -2
BITMAP
FFFC
FFFC
FBFC
F9FC
FB7C
C03C
FB7C
FB7C
FB7C
F76C
EF0C
DFFC
FFFC
FFFC
FFFC
ENDCHAR
STARTCHAR uniE8C9
ENCODING 59593
SWIDTH 969 0
DWIDTH 16 0
BBX 14 15 1 -2
BITMAP
FFFC
FFFC
FFFC
FDFC
FCFC
FDFC
FDEC
8004
FDFC
FDFC
FDFC
FDFC
FFFC
FFFC
FFFC
ENDCHAR
STARTCHAR uniE8CA
ENCODING 59594
SWIDTH 969 0
DWIDTH 16 0
BBX 14 15 1 -2
BITMAP
FFFC
FFFC
F7BC
F01C
F7BC
F7BC
F7BC
F03C
F7BC
F7BC
F7BC
F03C
F7BC
FFFC
FFFC
ENDCHAR
STARTCHAR uniE8CB
ENCODING 59595
SWIDTH 969 0
DWIDTH 16 0
BBX 14 15 1 -2
BITMAP
FFFC
F7BC
F01C
F7BC
F7BC
F03C
F7BC
F7BC
F03C
F7BC
F7BC
EC3C
DF7C
FFFC
FFFC
ENDCHAR
STARTCHAR uniE8CC
ENCODING 59596
SWIDTH 969 0
DWIDTH 16 0
BBX 14 15 1 -2
BITMAP
FFFC
FFFC
FDFC
FCFC
F5DC
F58C
CC7C
D8FC
FB7C
F7BC
EF9C
9FCC
FFDC
FFFC
FFFC
ENDCHAR
STARTCHAR uniE8CD
ENCODING 59597
SWIDTH 969 0
DWIDTH 16 0
BBX 14 15 1 -2
BITMAP
FFFC
FFFC
FCFC
FDFC
F4CC
849C
F57C
F57C
EDBC
DDBC
BDCC
E1DC
FBFC
FFFC
FFFC
ENDCHAR
STARTCHAR uniE8CE
ENCODING 59598
SWIDTH 969 0
DWIDTH 16 0
BBX 14 15 1 -2
BITMAP
FFFC
FFFC
FDFC
FCFC
FDDC
C00C
FCFC
F97C
F57C
ED9C
DDCC
BDDC
FDFC
FFFC
FFFC
ENDCHAR
STARTCHAR uniE8CF
ENCODING 59599
SWIDTH 969 0
DWIDTH 16 0
BBX 14 15 1 -2
BITMAP
FFFC
FDFC
C0FC
FB7C
F7BC
E8CC
DDBC
E01C
EDBC
F5BC
F55C
C00C
FFFC
FFFC
FFFC
ENDCHAR
STARTCHAR uniE8D0
ENCODING 59600
SWIDTH 969 0
DWIDTH 16 0
BBX 14 15 1 -2
BITMAP
FFFC
FFFC
FFFC
FDFC
FDFC
FDFC
C01C
FDFC
FDFC
FDDC
800C
FFFC
FFFC
FFFC
FFFC
ENDCHAR
STARTCHAR uniE8D1
ENCODING 59601
SWIDTH 969 0
DWIDTH 16 0
BBX 13 13 1 -1
BITMAP
0200
0400
0800
1040
08A0
0510
8208
4500
2880
1040
0040
0080
0100
ENDCHAR
STARTCHAR uniE8D2
ENCODING 59602
SWIDTH 969 0
DWIDTH 16 0
BBX 16 11 0 0
BITMAP
7FC0
3F00
4EF0
C8E0
5CF0
3E95
7F2A
0014
1FEB
0000
07FC
ENDCHAR
STARTCHAR uniE8D3
ENCODING 59603
SWIDTH 969 0
DWIDTH 16 0
BBX 14 14 1 -2
BITMAP
1FC0
3DF0
7AF0
FAF8
F778
F77C
EFBC
DFDC
BFEC
8008
7FF8
3FF0
1FE0
0780
ENDCHAR
STARTCHAR uniE8D4
ENCODING 59604
SWIDTH 969 0
DWIDTH 16 0
BBX 14 14 1 -2
BITMAP
1FC0
3FF0
7FF0
FFF8
8008
DFDC
DFDC
EFBC
F77C
F778
7AF8
3AF0
1DE0
0780
ENDCHAR
STARTCHAR uniE8D5
ENCODING 59605
SWIDTH 969 0
DWIDTH 16 0
BBX 14 14 1 -2
BITMAP
1FC0
3FF0
7870
F7B8
EFD8
DFEC
DFEC
DFEC
DFEC
EFD8
77B8
3870
1FE0
0780
ENDCHAR
STARTCHAR uniE8D6
ENCODING 59606
SWIDTH 969 0
DWIDTH 16 0
BBX 14 14 1 -2
BITMAP
1FC0
3FF0
5FD0
EFB8
F778
FAFC
FDFC
FAFC
F77C
EFB8
5FD8
3FF0
1FE0
0780
ENDCHAR
STARTCHAR uniE8D7
ENCODING 59607
SWIDTH 969 0
DWIDTH 16 0
BBX 14 14 1 -2
BITMAP
1FC0
3FF0
4010
DFD8
DFD8
DFDC
DFDC
DFDC
DFDC
DFD8
4018
3FF0
1FE0
0780
ENDCHAR
STARTCHAR uniE8D8
ENCODING 59608
SWIDTH 969 0
DWIDTH 16 0
BBX 14 14 1 -2
BITMAP
1FC0
3EF0
7D70
FBB8
F7D8
EFEC
DFF4
BFEC
DFDC
EFB8
7778
7AF0
1DE0
0780
ENDCHAR
STARTCHAR uniE8D9
ENCODING 59609
SWIDTH 969 0
DWIDTH 16 0
BBX 14 14 1 -2
BITMAP
1FC0
2030
4710
8888
8888
9044
9024
A024
A024
BFE8
8008
4010
3020
0FC0
ENDCHAR
STARTCHAR uniE8DA
ENCODING 59610
SWIDTH 969 0
DWIDTH 16 0
BBX 14 14 1 -2
BITMAP
1FC0
2030
4010
8008
FFF8
A024
A024
9044
8844
8888
8508
4510
3220
0FC0
ENDCHAR
STARTCHAR uniE8DB
ENCODING 59611
SWIDTH 969 0
DWIDTH 16 0
BBX 14 14 1 -2
BITMAP
1FC0
2030
7FF0
A028
A028
A024
A024
A024
A024
A028
A028
5FD0
3020
0FC0
ENDCHAR
STARTCHAR uniE8DC
ENCODING 59612
SWIDTH 969 0
DWIDTH 16 0
BBX 14 14 1 -2
BITMAP
1FC0
2230
4D90
9048
A028
C014
800C
C014
A024
9048
8888
4510
3220
0FC0
ENDCHAR
STARTCHAR uniE8DD
ENCODING 59613
SWIDTH 969 0
DWIDTH 16 0
BBX 9 14 3 -2
BITMAP
8000
C000
E000
F000
FC00
FE00
FF00
FF80
F800
FC00
CE00
8700
0780
0200
ENDCHAR
STARTCHAR uniE8DE
ENCODING 59614
SWIDTH 969 0
DWIDTH 16 0
BBX 9 14 3 -2
BITMAP
8000
C000
A000
9000
8800
8400
8200
8700
8800
B400
CA00
8500
0280
0100
ENDCHAR
STARTCHAR uniE8DF
ENCODING 59615
SWIDTH 1000 0
DWIDTH 16 0
BBX 16 15 0 -2
BITMAP
0180
7FFE
0000
3FFC
3FFC
318C
3FFC
318C
3FFC
3FFC
0000
2D86
6CDB
CC1B
87F0
ENDCHAR
STARTCHAR uniE8E0
ENCODING 59616
SWIDTH 1000 0
DWIDTH 16 0
BBX 14 15 1 -2
BITMAP
3FF0
3FF0
0060
01C0
C30C
C30C
C30C
C30C
C30C
DF0C
CF0C
C00C
FFFC
FFFC
C00C
ENDCHAR
STARTCHAR uniE8E1
ENCODING 59617
SWIDTH 1000 0
DWIDTH 16 0
BBX 14 15 1 -2
BITMAP
0300
E33C
EFBC
AFB4
A334
A33C
AFB8
AFB4
A334
AFB4
EFBC
E338
A630
0C30
1830
ENDCHAR
STARTCHAR uniE8E2
ENCODING 59618
SWIDTH 1000 0
DWIDTH 16 0
BBX 15 15 0 -2
BITMAP
47FE
4000
4FFE
4FFE
EC06
EFFE
5FFE
5800
5BFE
5B56
5BFE
4BFE
7356
F356
C30E
ENDCHAR
STARTCHAR uniE8E3
ENCODING 59619
SWIDTH 1000 0
DWIDTH 16 0
BBX 16 15 0 -2
BITMAP
3030
37FF
3630
37FE
FFFE
3636
37FF
3636
37FE
3E33
3FB6
36FC
66F4
CDB6
1B73
ENDCHAR
STARTCHAR uniE8E4
ENCODING 59620
SWIDTH 1000 0
DWIDTH 16 0
BBX 16 15 0 -2
BITMAP
3233
3336
31B6
FFFF
3603
37FF
31FC
798C
79FC
F1FC
B0D8
30D8
319B
331B
360E
ENDCHAR
STARTCHAR uniE8E5
ENCODING 59621
SWIDTH 1000 0
DWIDTH 16 0
BBX 14 15 1 -2
BITMAP
8180
C180
6FFC
2FFC
8180
CFF8
6FF8
2180
0FFC
3FFC
618C
618C
C1B8
C1B0
C180
ENDCHAR
STARTCHAR uniE8E6
ENCODING 59622
SWIDTH 1000 0
DWIDTH 16 0
BBX 14 15 1 -2
BITMAP
C000
67FC
37FC
00C0
80C0
CFFC
6FFC
21C0
0360
3360
636C
666C
C66C
DC7C
D878
ENDCHAR
STARTCHAR uniE8E7
ENCODING 59623
SWIDTH 1000 0
DWIDTH 16 0
BBX 15 15 1 -2
BITMAP
80C0
CFFC
60C0
2618
8FFE
C618
6000
27F8
0618
36D8
66D8
66D8
C1E0
C738
CC0C
ENDCHAR
STARTCHAR uniE8E8
ENCODING 59624
SWIDTH 1000 0
DWIDTH 16 0
BBX 15 15 0 -2
BITMAP
0060
FBFE
FBFE
618C
60D8
63FE
FB06
FB66
6060
63FE
7B66
FB66
E36E
836E
0060
ENDCHAR
STARTCHAR uniE8E9
ENCODING 59625
SWIDTH 1000 0
DWIDTH 16 0
BBX 16 15 0 -2
BITMAP
018D
F7ED
F7ED
618C
67FF
67DF
F6CC
F7CC
67CC
654C
67CE
77DB
755B
C55B
84DB
ENDCHAR
STARTCHAR uniE8EA
ENCODING 59626
SWIDTH 1000 0
DWIDTH 16 0
BBX 16 15 0 -2
BITMAP
064C
F6EC
F61D
6EFD
6E0D
66EC
F7BC
F5B6
68E3
6000
63FE
718C
70F8
E1DC
8707
ENDCHAR
STARTCHAR uniE8EB
ENCODING 59627
SWIDTH 1000 0
DWIDTH 16 0
BBX 16 14 0 -2
BITMAP
FDDE
FDDE
6956
6556
7DDE
EC00
EDFE
6C00
6FFF
6D80
7DFC
7C0C
6C3C
0038
ENDCHAR
STARTCHAR uniE8EC
ENCODING 59628
SWIDTH 1000 0
DWIDTH 16 0
BBX 16 14 0 -1
BITMAP
00D8
FFFF
FCD8
6BFE
66DA
7FFE
EEDA
EFFE
6E02
6DFC
6D8C
7DFC
7D8C
6DFC
ENDCHAR
STARTCHAR uniE8ED
ENCODING 59629
SWIDTH 1000 0
DWIDTH 16 0
BBX 16 13 0 -1
BITMAP
FDFC
FD8C
69FC
67DE
7F52
EFDE
EC30
6FFF
6FFF
6C78
7CFC
7DB6
6F33
ENDCHAR
STARTCHAR uniE8EE
ENCODING 59630
SWIDTH 1000 0
DWIDTH 16 0
BBX 16 15 0 -2
BITMAP
1830
1830
DDFF
DCFC
19B7
FF33
FDFE
1986
3DFE
7D86
D9FE
9800
1BFF
1BFF
1800
ENDCHAR
STARTCHAR uniE8EF
ENCODING 59631
SWIDTH 1000 0
DWIDTH 16 0
BBX 16 15 0 -2
BITMAP
3000
33FE
6060
7FFF
DB6D
D860
3B6C
6000
63FE
F860
03FE
7ADA
E2DA
02DA
0204
ENDCHAR
STARTCHAR uniE8F0
ENCODING 59632
SWIDTH 1000 0
DWIDTH 16 0
BBX 15 15 0 -2
BITMAP
0800
FFEE
6366
36EE
FF6E
6B66
7F66
7F66
6B66
7F6E
18EE
7F66
1866
1F66
E0EC
ENDCHAR
STARTCHAR uniE8F1
ENCODING 59633
SWIDTH 1000 0
DWIDTH 16 0
BBX 16 15 0 -2
BITMAP
0030
7C30
6C30
6FFF
7FFF
7C30
6C30
6DFE
7DFE
7D86
6D86
6D86
6DFE
CDFE
9986
ENDCHAR
STARTCHAR uniE8F2
ENCODING 59634
SWIDTH 1000 0
DWIDTH 16 0
BBX 16 15 0 -2
BITMAP
0030
7DB6
6DB6
6FFF
7C70
7CFC
6DBF
6F33
6C60
7FFF
6FFF
6DCC
6C78
6CEE
DF83
ENDCHAR
STARTCHAR uniE8F3
ENCODING 59635
SWIDTH 1000 0
DWIDTH 16 0
BBX 14 15 1 -2
BITMAP
1860
FFFC
FFFC
1860
0000
3FE0
3FE0
3060
3060
3FE0
3FE0
0000
18C0
3060
6030
ENDCHAR
STARTCHAR uniE8F4
ENCODING 59636
SWIDTH 1000 0
DWIDTH 16 0
BBX 14 15 1 -2
BITMAP
1860
FFFC
FFFC
1860
FEFC
36CC
FED8
FEF0
36D8
FECC
FECC
36FC
66F8
DEC0
CCC0
ENDCHAR
STARTCHAR uniE8F5
ENCODING 59637
SWIDTH 1000 0
DWIDTH 16 0
BBX 16 14 0 -2
BITMAP
7DFE
6DFE
6DB6
6DB6
7DB6
1BFF
5BFF
5DB6
59B6
59FE
5DFE
FC06
E03E
003C
ENDCHAR
STARTCHAR uniE8F6
ENCODING 59638
SWIDTH 1000 0
DWIDTH 16 0
BBX 16 15 0 -2
BITMAP
1830
19B6
FFB6
FEFC
7878
D9FE
D9FE
FE6C
FE6C
186C
1E6C
FECD
F98D
198F
1B06
ENDCHAR
STARTCHAR uniE8F7
ENCODING 59639
SWIDTH 1000 0
DWIDTH 16 0
BBX 15 15 0 -2
BITMAP
1800
187E
FF7E
FF66
1866
7F7C
7F6E
0366
6366
3666
1E7E
0C7C
1E60
3360
6160
ENDCHAR
STARTCHAR uniE8F8
ENCODING 59640
SWIDTH 1000 0
DWIDTH 16 0
BBX 15 15 0 -2
BITMAP
1800
303E
363E
6336
FF36
FFBE
36BC
3636
FFB6
FFBE
363C
3630
6630
6630
C630
ENDCHAR
STARTCHAR uniE8F9
ENCODING 59641
SWIDTH 1000 0
DWIDTH 16 0
BBX 16 15 0 -2
BITMAP
7BC0
6ADF
7BDB
6ADB
7BDB
6ADE
7BDB
321B
3FDB
761B
FFDE
B618
3FD8
3618
3FD8
ENDCHAR
STARTCHAR uniE8FA
ENCODING 59642
SWIDTH 1000 0
DWIDTH 16 0
BBX 16 14 0 -1
BITMAP
31DB
301B
FFFF
FC6C
6B7D
3B6F
6FF7
C3C0
0C30
37EC
C183
3FFC
0DB0
7FFE
ENDCHAR
STARTCHAR uniE8FB
ENCODING 59643
SWIDTH 1000 0
DWIDTH 16 0
BBX 16 15 0 -2
BITMAP
306C
3066
7860
FFFF
CFFF
0063
7F76
33FC
7C6C
7CEC
31E6
3763
3E63
79E0
61C0
ENDCHAR
STARTCHAR uniE8FC
ENCODING 59644
SWIDTH 1000 0
DWIDTH 16 0
BBX 15 15 0 -2
BITMAP
318C
33FE
7BFE
FDAC
CC70
00D8
7D8C
3376
7C00
7DFC
31FC
358C
3DFC
79FC
618C
ENDCHAR
STARTCHAR uniE8FD
ENCODING 59645
SWIDTH 1000 0
DWIDTH 16 0
BBX 16 15 0 -2
BITMAP
30CC
33FE
7BFE
FCCC
CDFF
0030
7DFE
31FE
7DB6
7DFE
31B6
35FE
3C88
798E
6306
ENDCHAR
STARTCHAR uniE8FE
ENCODING 59646
SWIDTH 1000 0
DWIDTH 16 0
BBX 16 15 0 -2
BITMAP
318C
33FF
7BFF
F850
CBFE
0356
7B8E
33FE
7B06
7BFE
300C
33FF
3BFF
78CC
6058
ENDCHAR
STARTCHAR uniE8FF
ENCODING 59647
SWIDTH 1000 0
DWIDTH 16 0
BBX 14 14 1 -2
BITMAP
FB7C
FB7C
DB6C
F37C
FB6C
DB7C
FB7C
FB44
D000
C360
C36C
C36C
C67C
CC38
ENDCHAR
STARTCHAR uniE900
ENCODING 59648
SWIDTH 1000 0
DWIDTH 16 0
BBX 16 15 0 -2
BITMAP
3030
3DFF
6DFF
D983
FFB3
D660
FFFF
FFFF
D6C6
FEC6
FE6C
0038
0E3C
FEE6
F183
ENDCHAR
STARTCHAR uniE901
ENCODING 59649
SWIDTH 1000 0
DWIDTH 16 0
BBX 16 15 0 -2
BITMAP
3060
3C7C
6CCC
D998
FE00
D6FE
FED6
FED6
D6FE
FE00
FE6C
006D
0E6D
FECD
F186
ENDCHAR
STARTCHAR uniE902
ENCODING 59650
SWIDTH 1000 0
DWIDTH 16 0
BBX 16 15 0 -2
BITMAP
3018
3CFF
6CFF
D8D8
FEFE
D6DA
FEFF
FEDA
D6FE
FEDB
FEFE
00D8
0EFE
FEDB
F1B8
ENDCHAR
STARTCHAR uniE903
ENCODING 59651
SWIDTH 1000 0
DWIDTH 16 0
BBX 14 15 1 -2
BITMAP
1860
FF60
1860
FEFC
18FC
FF6C
006C
FF6C
C36C
DB6C
DB6C
DB6C
1C6C
36DC
E2D8
ENDCHAR
STARTCHAR uniE904
ENCODING 59652
SWIDTH 1000 0
DWIDTH 16 0
BBX 16 15 0 -2
BITMAP
6326
61AC
60B8
63FE
FBFE
F8F8
61AC
6326
6060
6BFF
798C
F318
C1F0
00DC
0787
ENDCHAR
STARTCHAR uniE905
ENCODING 59653
SWIDTH 1000 0
DWIDTH 16 0
BBX 16 15 0 -2
BITMAP
3000
37DE
37DE
32D6
F9CE
FAD6
3070
33DF
3777
31CC
3B38
F9E7
C31C
00F0
0780
ENDCHAR
STARTCHAR uniE906
ENCODING 59654
SWIDTH 1000 0
DWIDTH 16 0
BBX 15 15 0 -2
BITMAP
1048
1048
11FE
D5FE
D54A
D54A
D54A
D5FE
D5FE
D54A
D54A
FD4A
FDFE
01FE
0102
ENDCHAR
STARTCHAR uniE907
ENCODING 59655
SWIDTH 1000 0
DWIDTH 16 0
BBX 14 15 1 -2
BITMAP
6318
7FF8
7FF8
0300
FFFC
FFFC
6330
C618
FFFC
1B00
7FF8
0300
FFFC
FFFC
0300
ENDCHAR
STARTCHAR uniE908
ENCODING 59656
SWIDTH 1000 0
DWIDTH 16 0
BBX 16 15 0 -2
BITMAP
20CC
20CD
AFFD
A8CC
ABFF
ABFF
AB6C
AAAC
ABEC
ABEC
AAAC
FBEE
FBEA
8AAB
0279
ENDCHAR
STARTCHAR uniE909
ENCODING 59657
SWIDTH 1000 0
DWIDTH 16 0
BBX 15 14 1 -2
BITMAP
FBFC
FBFC
DB0C
FB6C
FB6C
DB6C
DB6C
FB6C
FB6C
D8E0
D9A6
FB26
C63E
0C3C
ENDCHAR
STARTCHAR uniE90A
ENCODING 59658
SWIDTH 1000 0
DWIDTH 16 0
BBX 16 15 0 -2
BITMAP
37BF
37BF
618C
6B0C
DB2C
FB2F
33AF
61AC
E5AC
FDAC
07BF
3BBF
7300
C7FF
0CFF
ENDCHAR
STARTCHAR uniE90B
ENCODING 59659
SWIDTH 1000 0
DWIDTH 16 0
BBX 16 15 0 -2
BITMAP
330E
31DC
6070
6BCE
D833
FBFF
33FF
61B0
E330
FFFF
05B3
79B3
E1B7
01B7
0030
ENDCHAR
STARTCHAR uniE90C
ENCODING 59660
SWIDTH 1000 0
DWIDTH 16 0
BBX 16 15 0 -2
BITMAP
3030
33FF
63FF
6CCC
DBFF
D800
3BFE
6306
63FE
FB06
03FE
7832
E2DB
06CD
047C
ENDCHAR
STARTCHAR uniE90D
ENCODING 59661
SWIDTH 1000 0
DWIDTH 16 0
BBX 16 15 0 -2
BITMAP
33FE
3060
63FE
6860
DBFE
FB66
3BFE
6366
63FE
F860
01FC
3860
F7FF
C35A
062D
ENDCHAR
STARTCHAR uniE90E
ENCODING 59662
SWIDTH 1000 0
DWIDTH 16 0
BBX 14 15 1 -2
BITMAP
0C60
FFFC
FFFC
0C60
6000
3600
0600
FFF8
FFF8
1B18
1998
30D8
6018
C1F8
81F0
ENDCHAR
STARTCHAR uniE90F
ENCODING 59663
SWIDTH 1000 0
DWIDTH 16 0
BBX 16 15 0 -2
BITMAP
3030
33FE
3030
F9FE
F830
31FF
75FF
FC00
B9FE
3DB6
35B6
31B6
3070
31DC
3706
ENDCHAR
STARTCHAR uniE910
ENCODING 59664
SWIDTH 1000 0
DWIDTH 16 0
BBX 15 15 0 -3
BITMAP
F3FE
F3FE
0306
F376
F376
3306
3376
3376
3356
3B56
3B76
7376
E306
C31E
831C
ENDCHAR
STARTCHAR uniE911
ENCODING 59665
SWIDTH 1000 0
DWIDTH 16 0
BBX 16 16 0 -3
BITMAP
0036
F636
F7FF
0618
F7F8
F7FB
361B
36FB
36FB
36AE
3EEC
3EEC
761C
E67D
CCEF
9987
ENDCHAR
STARTCHAR uniE912
ENCODING 59666
SWIDTH 1000 0
DWIDTH 16 0
BBX 16 15 0 -3
BITMAP
F67E
F67E
0666
F67E
F666
367E
3000
3060
37FE
3FFE
3998
7070
E7DF
CF0F
8000
ENDCHAR
STARTCHAR uniE913
ENCODING 59667
SWIDTH 1000 0
DWIDTH 16 0
BBX 15 16 0 -3
BITMAP
07FE
F6D6
F6D6
07FE
F000
F7FE
3000
33FC
330C
33FC
38B2
3996
779C
EDEE
C3C6
8E00
ENDCHAR
STARTCHAR uniE914
ENCODING 59668
SWIDTH 1000 0
DWIDTH 16 0
BBX 16 15 0 -2
BITMAP
1800
19FE
FFFE
FED8
30D8
6CD8
6CD8
FED8
FED8
0CD8
0ED8
FEDB
FCDB
0D9F
0D86
ENDCHAR
STARTCHAR uniE915
ENCODING 59669
SWIDTH 1000 0
DWIDTH 16 0
BBX 16 15 0 -2
BITMAP
1800
18DE
FEDE
FED2
30DE
6CDE
6CD2
FEDE
FEDE
0C00
0ED8
FEDB
FCDB
0CDF
0D8E
ENDCHAR
STARTCHAR uniE916
ENCODING 59670
SWIDTH 1000 0
DWIDTH 17 0
BBX 16 15 0 -2
BITMAP
19FE
19FE
FE4C
FE38
31FF
6C7B
6CDB
FFB0
FE18
0CFF
0EFF
FE3C
FC7E
0CDB
0D99
ENDCHAR
STARTCHAR uniE917
ENCODING 59671
SWIDTH 1000 0
DWIDTH 16 0
BBX 14 14 1 -2
BITMAP
FE7C
C66C
FE6C
186C
FF78
DB70
DB78
FF6C
DB6C
FF6C
187C
1F78
FF60
F060
ENDCHAR
STARTCHAR uniE918
ENCODING 59672
SWIDTH 1000 0
DWIDTH 16 0
BBX 16 15 0 -2
BITMAP
3030
3030
7830
CDFE
01FE
FC30
FC30
31FF
FDFF
FC70
30D8
34CC
3D86
F303
E603
ENDCHAR
STARTCHAR uniE919
ENCODING 59673
SWIDTH 1000 0
DWIDTH 16 0
BBX 15 15 0 -2
BITMAP
3030
3030
78FC
CCFC
0030
FC30
FDFE
31FE
FC00
FC30
30FC
34FC
3C30
F1FE
E1FE
ENDCHAR
STARTCHAR uniE91A
ENCODING 59674
SWIDTH 1000 0
DWIDTH 16 0
BBX 15 15 0 -2
BITMAP
31FE
31FE
7986
CDFE
01FE
FC00
FDFE
3186
FDFE
FDFE
3186
35FE
3DFE
F186
E19E
ENDCHAR
STARTCHAR uniE91B
ENCODING 59675
SWIDTH 1000 0
DWIDTH 16 0
BBX 16 15 0 -2
BITMAP
30CC
30CC
7BFE
CFFE
00CC
FCFC
FCCC
30FC
FCCC
FFFF
33FF
3400
3CCC
F1CC
E306
ENDCHAR
STARTCHAR uniE91C
ENCODING 59676
SWIDTH 1000 0
DWIDTH 16 0
BBX 16 15 0 -2
BITMAP
33FF
33FF
7932
CCB4
01FF
FDFF
FC74
33B2
FDFE
FDFE
31A6
35FE
3DA6
F1FE
E186
ENDCHAR
STARTCHAR uniE91D
ENCODING 59677
SWIDTH 1000 0
DWIDTH 16 0
BBX 15 15 0 -2
BITMAP
33FE
33FE
786C
CFFE
007A
FCDA
FFB8
3000
FFFE
FF56
339E
3776
3F56
F376
E30C
ENDCHAR
STARTCHAR uniE91E
ENCODING 59678
SWIDTH 1000 0
DWIDTH 16 0
BBX 14 15 1 -2
BITMAP
0100
FFFC
FFFC
C40C
DFEC
DAEC
DD6C
DAEC
DFEC
C10C
DFFC
DFFC
CD4C
D96C
D02C
ENDCHAR
STARTCHAR uniE91F
ENCODING 59679
SWIDTH 1000 0
DWIDTH 16 0
BBX 16 15 0 -2
BITMAP
08FF
6AFF
6A18
7E30
7EFF
00FF
7EC3
7EDB
06DB
7EDB
7EDB
6038
666C
FFC6
F983
ENDCHAR
STARTCHAR uniE920
ENCODING 59680
SWIDTH 1000 0
DWIDTH 16 0
BBX 16 15 0 -2
BITMAP
3400
34FF
34FF
F530
F57E
777E
3446
3656
7756
F556
B456
3510
3738
666C
04C6
ENDCHAR
STARTCHAR uniE921
ENCODING 59681
SWIDTH 1000 0
DWIDTH 16 0
BBX 16 14 0 -2
BITMAP
7EFF
7EFF
1630
FFFE
16C6
7ED6
7ED6
30D6
7ED6
FED6
B638
3E6C
3EC6
3783
ENDCHAR
STARTCHAR uniE922
ENCODING 59682
SWIDTH 1000 0
DWIDTH 16 0
BBX 16 15 0 -2
BITMAP
3030
3030
3DFE
6DFE
CC30
B9FE
31B6
31B6
31FE
3030
3078
3CFC
39B6
7733
4633
ENDCHAR
STARTCHAR uniE923
ENCODING 59683
SWIDTH 1000 0
DWIDTH 16 0
BBX 16 15 0 -2
BITMAP
3030
33FF
3C00
6FFE
CEDA
BAFA
32DA
33FE
3186
31FE
3186
3DFE
39FE
7000
43FF
ENDCHAR
STARTCHAR uniE924
ENCODING 59684
SWIDTH 1000 0
DWIDTH 16 0
BBX 16 15 0 -2
BITMAP
F830
F830
1BFF
DBFF
D8CC
D8CC
D8CC
FCCC
7CCC
0C78
3C78
FCCC
CCCC
3D86
3986
ENDCHAR
STARTCHAR uniE925
ENCODING 59685
SWIDTH 1000 0
DWIDTH 16 0
BBX 16 15 0 -2
BITMAP
F830
F830
1830
D9FE
D9FE
D836
D836
FDFF
7DFF
0C30
3C30
FC78
CCCC
3D86
3B03
ENDCHAR
STARTCHAR uniE926
ENCODING 59686
SWIDTH 1000 0
DWIDTH 16 0
BBX 16 15 0 -2
BITMAP
F8C0
F8FF
18FF
D9C3
DB7B
D9FB
D863
FDFB
7DFB
0C63
3D6B
FDFB
CDFB
3C03
383E
ENDCHAR
STARTCHAR uniE927
ENCODING 59687
SWIDTH 1000 0
DWIDTH 16 0
BBX 16 15 0 -2
BITMAP
F8FE
F8FE
1806
D8FE
D806
D9FF
D9FF
FC30
7DB6
0CFC
3C7C
FDF6
CDB3
3CF0
38E0
ENDCHAR
STARTCHAR uniE928
ENCODING 59688
SWIDTH 1000 0
DWIDTH 16 0
BBX 16 15 0 -2
BITMAP
F9FE
F986
19FE
D986
D9FE
D986
D800
FDFF
7DFF
0C18
3CDE
FCD8
CCD8
3DFF
3B0F
ENDCHAR
STARTCHAR uniE929
ENCODING 59689
SWIDTH 1000 0
DWIDTH 16 0
BBX 16 15 0 -2
BITMAP
F9FF
F9FF
198C
D998
D9FF
D983
D9FF
FD83
7DFF
0D9B
3DBC
FDBE
CDDB
3DB9
3B38
ENDCHAR
STARTCHAR uniE92A
ENCODING 59690
SWIDTH 1000 0
DWIDTH 16 0
BBX 16 15 0 -2
BITMAP
F81E
FBFE
1BE2
D9B6
D8D4
D8CE
D9D8
FC73
7DFF
0DFF
3C30
FDFF
CDFF
3CD8
3B8F
ENDCHAR
STARTCHAR uniE92B
ENCODING 59691
SWIDTH 1000 0
DWIDTH 16 0
BBX 16 15 0 -2
BITMAP
2080
78BF
DABF
3288
FABF
FABF
AAAB
FAAB
FAAB
AAAB
F8AB
F0AF
0CAB
FD88
F308
ENDCHAR
STARTCHAR uniE92C
ENCODING 59692
SWIDTH 1000 0
DWIDTH 16 0
BBX 16 16 0 -3
BITMAP
0C6E
6F7C
6F73
6C7F
7F7E
C600
0FF8
1830
3FFC
718C
FFFC
318C
3FFC
0000
FFFF
FFFF
ENDCHAR
STARTCHAR uniE92D
ENCODING 59693
SWIDTH 1000 0
DWIDTH 16 0
BBX 16 15 0 -2
BITMAP
30DB
3DB6
6DB6
D8DB
FDFF
D54B
FD33
FD4B
D5FF
FDB6
FD7E
01AE
0DF6
FD6F
F1B2
ENDCHAR
STARTCHAR uniE92E
ENCODING 59694
SWIDTH 1000 0
DWIDTH 16 0
BBX 14 15 1 -2
BITMAP
D3FC
6060
F1F8
3060
DBFC
33FC
0600
7FF0
6C30
6660
7FFC
000C
FFEC
000C
0078
ENDCHAR
STARTCHAR uniE92F
ENCODING 59695
SWIDTH 1000 0
DWIDTH 16 0
BBX 15 15 1 -2
BITMAP
0198
F7FE
F7FE
6198
67FE
67FE
F198
F7FE
6596
6596
7756
777E
66CE
C486
041C
ENDCHAR
STARTCHAR uniE930
ENCODING 59696
SWIDTH 1000 0
DWIDTH 16 0
BBX 16 16 0 -3
BITMAP
1830
1BFF
33FF
3000
6DFE
FDFE
F986
19FE
31B6
FC30
FC36
01B6
79B3
F333
00F0
0030
ENDCHAR
STARTCHAR uniE931
ENCODING 59697
SWIDTH 1000 0
DWIDTH 16 0
BBX 16 15 0 -2
BITMAP
1B66
182C
FEFF
FEFF
3318
6C31
6F7B
FFDE
FF3C
0D5E
0FBB
FF58
FDB8
0D00
0EFF
ENDCHAR
STARTCHAR uniE932
ENCODING 59698
SWIDTH 1000 0
DWIDTH 16 0
BBX 16 15 0 -2
BITMAP
30CC
30CC
78CC
CFFF
03FF
FCCC
FCCC
30CC
FBFF
FBFF
3000
34D8
3D8C
F306
E603
ENDCHAR
STARTCHAR uniE933
ENCODING 59699
SWIDTH 1000 0
DWIDTH 16 0
BBX 16 15 0 -2
BITMAP
3318
3118
7818
CF7F
017F
FC18
FF98
3198
FD98
FD9C
31B6
35E3
3D80
F3FF
E77F
ENDCHAR
STARTCHAR uniE934
ENCODING 59700
SWIDTH 1000 0
DWIDTH 16 0
BBX 16 15 0 -2
BITMAP
19FF
19FF
FE18
FE30
19FF
19FF
FF83
FFB3
47B3
EDB3
B9B3
3838
6C6C
C6C6
8183
ENDCHAR
STARTCHAR uniE935
ENCODING 59701
SWIDTH 1000 0
DWIDTH 16 0
BBX 16 15 0 -2
BITMAP
F830
F830
19FF
D818
D830
DB66
D9CC
FCD8
7C70
0C60
3C66
FCC6
CD9E
3FFF
3BE3
ENDCHAR
STARTCHAR uniE936
ENCODING 59702
SWIDTH 1000 0
DWIDTH 16 0
BBX 16 15 0 -2
BITMAP
0C00
6EDE
6EDE
6CDA
FEDE
FEDE
10DA
D6DE
D6DE
D6DE
EE0C
C6CD
FECD
FECF
C78E
ENDCHAR
STARTCHAR uniE937
ENCODING 59703
SWIDTH 1000 0
DWIDTH 16 0
BBX 16 15 0 -2
BITMAP
198C
18D8
1BFE
33FE
3336
73FE
F336
B3FE
33FE
3030
37FF
37FF
3030
3030
3030
ENDCHAR
STARTCHAR uniE938
ENCODING 59704
SWIDTH 1000 0
DWIDTH 16 0
BBX 15 14 1 -2
BITMAP
FBFC
DBFC
D8B0
DBBC
D9B8
DBFE
DBFE
D800
D9EC
DDB6
FD86
DD9A
19F0
00E0
ENDCHAR
STARTCHAR uniE939
ENCODING 59705
SWIDTH 1000 0
DWIDTH 16 0
BBX 16 14 0 -1
BITMAP
3000
31FF
31FF
31E6
FDE6
FDBC
319C
3198
3198
31BC
3DEC
FDE6
E1FF
01FF
ENDCHAR
STARTCHAR uniE93A
ENCODING 59706
SWIDTH 1000 0
DWIDTH 16 0
BBX 16 14 0 -1
BITMAP
33E0
33F0
30D8
318C
FB06
FE03
3184
319C
31F8
35E0
3D86
F986
E1FE
00FC
ENDCHAR
STARTCHAR uniE93B
ENCODING 59707
SWIDTH 1000 0
DWIDTH 16 0
BBX 15 15 0 -2
BITMAP
30D8
33FE
33FE
30D8
FBFE
FBFE
3366
3060
33FE
37FE
3C66
F8C6
E186
037E
063C
ENDCHAR
ENDFONT
